{
.appVersion = "1271";
DisplayStrings = (
"/a.ss01/aacute.ss01/abreve.ss01/abreveacute.ss01/a.ss01/abrevedotbelow.ss01/abrevegrave.ss01/abrevehookabove.ss01/abrevetilde.ss01/acaron.ss01/acircumflex.ss01/acircumflexacute.ss01/acircumflexdotbelow.ss01/acircumflexgrave.ss01/acircumflexhookabove.ss01/acircumflextilde.ss01/adblgrave.ss01/adieresis.ss01/adotbelow.ss01/agrave.ss01/ahookabove.ss01/ainvertedbreve.ss01/amacron.ss01 a/aogonek.ss01/aring.ss01/aringacute.ss01/atilde.ss01"
);
classes = (
{
automatic = 1;

glyphs = (
{
glyphname = A;
lastChange = "2018-09-10 20:01:08 +0000";
layers = (
{
anchors = (
{
name = bottom;
position = "{352, 0}";
},
{
name = ogonek;
position = "{609, 10}";
},
{
name = top;
position = "{352, 700}";
}
);
layerId = "3D0525B3-6B2A-4787-8D58-1F6DD6CCA7DC";
paths = (
{
closed = 1;
nodes = (
"337 612 LINE",
"359 548 OFFCURVE",
"379 478 OFFCURVE",
"400 422 CURVE SMOOTH",
"560 0 LINE",
"675 0 LINE",
"406 700 LINE",
"296 700 LINE",
"25 0 LINE",
"135 0 LINE",
"294 418 LINE SMOOTH",
"315 474 OFFCURVE",
"336 548 OFFCURVE",
"360 613 CURVE"
);
},
{
closed = 1;
nodes = (
"520 174 LINE",
"503 278 LINE",
"218 278 LINE",
"175 174 LINE"
);
}
);
width = 700;
},
{
anchors = (
{
name = bottom;
position = "{496, 0}";
},
{
name = ogonek;
position = "{893, 10}";
},
{
name = top;
position = "{496, 700}";
}
);
layerId = "950578AD-3C55-42C9-B412-F732192F54B4";
paths = (
{
closed = 1;
nodes = (
"478 637 LINE",
"500 573 OFFCURVE",
"521 533 OFFCURVE",
"546 482 CURVE SMOOTH",
"781 0 LINE",
"900 0 LINE",
"560 700 LINE",
"434 700 LINE",
"92 0 LINE",
"206 0 LINE",
"439 478 LINE SMOOTH",
"464 529 OFFCURVE",
"486 573 OFFCURVE",
"510 638 CURVE"
);
},
{
closed = 1;
nodes = (
"716 164 LINE",
"699 268 LINE",
"284 268 LINE",
"241 164 LINE"
);
}
);
width = 992;
}
);
leftKerningGroup = A;
note = A;
rightKerningGroup = A;
unicode = 0041;
},
{
glyphname = Aogonek;
lastChange = "2018-06-06 12:09:24 +0000";
layers = (
{
anchors = (
{
name = bottom;
position = "{341, 0}";
},
{
name = top;
position = "{341, 700}";
}
);
layerId = "3D0525B3-6B2A-4787-8D58-1F6DD6CCA7DC";
paths = (
{
closed = 1;
nodes = (
"601 21 LINE",
"602 52 LINE",
"521 30 OFFCURVE",
"427 -43 OFFCURVE",
"427 -114 CURVE SMOOTH",
"427 -178 OFFCURVE",
"480 -221 OFFCURVE",
"547 -221 CURVE SMOOTH",
"595 -221 OFFCURVE",
"637 -200 OFFCURVE",
"671 -177 CURVE",
"632 -118 LINE",
"611 -133 OFFCURVE",
"587 -144 OFFCURVE",
"567 -144 CURVE SMOOTH",
"540 -144 OFFCURVE",
"520 -123 OFFCURVE",
"520 -100 CURVE SMOOTH",
"520 -63 OFFCURVE",
"590 -26 OFFCURVE",
"655 0 CURVE",
"661 32 LINE",
"410 700 LINE",
"290 700 LINE",
"25 0 LINE",
"134 0 LINE",
"287 418 LINE SMOOTH",
"308 474 OFFCURVE",
"329 548 OFFCURVE",
"353 613 CURVE",
"341 612 LINE",
"363 548 OFFCURVE",
"384 478 OFFCURVE",
"404 422 CURVE SMOOTH",
"559 0 LINE"
);
},
{
closed = 1;
nodes = (
"519 174 LINE",
"502 278 LINE",
"217 278 LINE",
"174 174 LINE"
);
}
);
width = 696;
},
{
anchors = (
{
name = bottom;
position = "{496, 0}";
},
{
name = top;
position = "{496, 700}";
}
);
layerId = "950578AD-3C55-42C9-B412-F732192F54B4";
paths = (
{
closed = 1;
nodes = (
"841 0 LINE",
"826 52 LINE",
"745 30 OFFCURVE",
"651 -43 OFFCURVE",
"651 -114 CURVE SMOOTH",
"651 -178 OFFCURVE",
"704 -221 OFFCURVE",
"771 -221 CURVE SMOOTH",
"819 -221 OFFCURVE",
"861 -200 OFFCURVE",
"895 -177 CURVE",
"856 -118 LINE",
"835 -133 OFFCURVE",
"811 -144 OFFCURVE",
"791 -144 CURVE SMOOTH",
"764 -144 OFFCURVE",
"744 -123 OFFCURVE",
"744 -100 CURVE SMOOTH",
"744 -63 OFFCURVE",
"814 -26 OFFCURVE",
"879 0 CURVE",
"885 32 LINE",
"567 700 LINE",
"427 700 LINE",
"92 0 LINE",
"216 0 LINE",
"439 458 LINE SMOOTH",
"464 510 OFFCURVE",
"486 553 OFFCURVE",
"510 618 CURVE",
"478 617 LINE",
"500 553 OFFCURVE",
"521 514 OFFCURVE",
"546 462 CURVE SMOOTH",
"771 0 LINE"
);
},
{
closed = 1;
nodes = (
"696 164 LINE",
"679 278 LINE",
"284 278 LINE",
"241 164 LINE"
);
}
);
width = 987;
}
);
leftMetricsKey = A;
rightMetricsKey = A;
unicode = 0104;
},
{
glyphname = Aring;
lastChange = "2018-07-03 12:05:05 +0000";
layers = (
{
anchors = (
{
name = top;
position = "{354, 853}";
}
);
components = (
{
name = A;
}
);
layerId = "3D0525B3-6B2A-4787-8D58-1F6DD6CCA7DC";
paths = (
{
closed = 1;
nodes = (
"414 631 OFFCURVE",
"470 684 OFFCURVE",
"470 746 CURVE",
"470 811 OFFCURVE",
"414 862 OFFCURVE",
"351 862 CURVE",
"288 862 OFFCURVE",
"231 811 OFFCURVE",
"231 746 CURVE",
"231 684 OFFCURVE",
"288 631 OFFCURVE",
"351 631 CURVE"
);
},
{
closed = 1;
nodes = (
"323 700 OFFCURVE",
"302 720 OFFCURVE",
"302 746 CURVE",
"302 774 OFFCURVE",
"323 793 OFFCURVE",
"351 793 CURVE",
"376 793 OFFCURVE",
"400 776 OFFCURVE",
"400 746 CURVE",
"400 720 OFFCURVE",
"378 700 OFFCURVE",
"351 700 CURVE"
);
}
);
width = 700;
},
{
anchors = (
{
name = top;
position = "{486, 842}";
}
);
components = (
{
name = A;
}
);
layerId = "950578AD-3C55-42C9-B412-F732192F54B4";
paths = (
{
closed = 1;
nodes = (
"556 631 OFFCURVE",
"612 684 OFFCURVE",
"612 746 CURVE",
"612 811 OFFCURVE",
"556 862 OFFCURVE",
"493 862 CURVE",
"430 862 OFFCURVE",
"373 811 OFFCURVE",
"373 746 CURVE",
"373 684 OFFCURVE",
"430 631 OFFCURVE",
"493 631 CURVE"
);
},
{
closed = 1;
nodes = (
"465 700 OFFCURVE",
"444 720 OFFCURVE",
"444 746 CURVE",
"444 774 OFFCURVE",
"465 793 OFFCURVE",
"493 793 CURVE",
"518 793 OFFCURVE",
"542 776 OFFCURVE",
"542 746 CURVE",
"542 720 OFFCURVE",
"520 700 OFFCURVE",
"493 700 CURVE"
);
}
);
width = 992;
}
);
leftMetricsKey = A;
rightMetricsKey = A;
unicode = 00C5;
},
{
glyphname = AE;
lastChange = "2018-12-03 15:54:40 +0000";
layers = (
{
anchors = (
{
name = bottom;
position = "{497, 0}";
},
{
name = top;
position = "{646, 700}";
}
);
layerId = "3D0525B3-6B2A-4787-8D58-1F6DD6CCA7DC";
paths = (
{
closed = 1;
nodes = (
"174 153 LINE",
"488 153 LINE",
"465 166 LINE",
"465 0 LINE",
"894 0 LINE",
"894 93 LINE",
"557 93 LINE",
"566 72 LINE",
"566 322 LINE",
"556 308 LINE",
"849 308 LINE",
"849 402 LINE",
"558 402 LINE",
"566 385 LINE",
"566 616 LINE",
"557 607 LINE",
"894 607 LINE",
"894 700 LINE",
"493 700 LINE",
"5 0 LINE",
"114 0 LINE",
"484 541 LINE",
"465 552 LINE",
"465 213 LINE",
"483 245 LINE",
"228 245 LINE"
);
}
);
width = 969;
},
{
anchors = (
{
name = bottom;
position = "{711, 0}";
},
{
name = top;
position = "{960, 700}";
}
);
layerId = "950578AD-3C55-42C9-B412-F732192F54B4";
paths = (
{
closed = 1;
nodes = (
"301 153 LINE",
"715 153 LINE",
"692 166 LINE",
"692 0 LINE",
"1261 0 LINE",
"1261 104 LINE",
"791 104 LINE",
"800 83 LINE",
"800 307 LINE",
"790 293 LINE",
"1216 293 LINE",
"1216 397 LINE",
"792 397 LINE",
"800 380 LINE",
"800 605 LINE",
"791 596 LINE",
"1261 596 LINE",
"1261 700 LINE",
"720 700 LINE",
"92 0 LINE",
"221 0 LINE",
"711 551 LINE",
"692 562 LINE",
"692 213 LINE",
"710 257 LINE",
"355 257 LINE"
);
}
);
width = 1421;
}
);
note = AE;
rightMetricsKey = E;
unicode = 00C6;
},
{
glyphname = B;
lastChange = "2018-09-11 01:35:09 +0000";
layers = (
{
anchors = (
{
name = bottom;
position = "{349, 0}";
},
{
name = top;
position = "{349, 700}";
}
);
layerId = "3D0525B3-6B2A-4787-8D58-1F6DD6CCA7DC";
paths = (
{
closed = 1;
nodes = (
"98 700 LINE",
"98 0 LINE",
"400 0 LINE",
"508 0 OFFCURVE",
"633 43 OFFCURVE",
"633 206 CURVE",
"633 354 OFFCURVE",
"500 399 OFFCURVE",
"412 399 CURVE",
"411 363 LINE",
"532 365 OFFCURVE",
"596 433 OFFCURVE",
"596 524 CURVE",
"596 638 OFFCURVE",
"526 700 OFFCURVE",
"390 700 CURVE"
);
},
{
closed = 1;
nodes = (
"437 596 OFFCURVE",
"488 570 OFFCURVE",
"488 503 CURVE",
"488 444 OFFCURVE",
"439 411 OFFCURVE",
"384 410 CURVE",
"197 410 LINE",
"206 399 LINE",
"206 621 LINE",
"196 596 LINE",
"372 596 LINE"
);
},
{
closed = 1;
nodes = (
"450 306 OFFCURVE",
"523 283 OFFCURVE",
"523 208 CURVE",
"523 137 OFFCURVE",
"470 104 OFFCURVE",
"394 104 CURVE",
"200 104 LINE",
"206 84 LINE",
"206 324 LINE",
"201 306 LINE",
"389 306 LINE"
);
}
);
width = 681;
},
{
anchors = (
{
name = bottom;
position = "{498, 0}";
},
{
name = top;
position = "{498, 700}";
}
);
layerId = "950578AD-3C55-42C9-B412-F732192F54B4";
paths = (
{
closed = 1;
nodes = (
"182 700 LINE",
"182 0 LINE",
"590 0 LINE",
"721 0 OFFCURVE",
"867 43 OFFCURVE",
"867 206 CURVE",
"867 354 OFFCURVE",
"716 399 OFFCURVE",
"606 399 CURVE",
"605 363 LINE",
"752 365 OFFCURVE",
"830 433 OFFCURVE",
"830 524 CURVE",
"830 638 OFFCURVE",
"740 700 OFFCURVE",
"564 700 CURVE"
);
},
{
closed = 1;
nodes = (
"655 596 OFFCURVE",
"719 572 OFFCURVE",
"719 508 CURVE",
"719 450 OFFCURVE",
"656 417 OFFCURVE",
"584 416 CURVE",
"281 416 LINE",
"290 399 LINE",
"290 631 LINE",
"280 596 LINE",
"572 596 LINE"
);
},
{
closed = 1;
nodes = (
"666 311 OFFCURVE",
"757 287 OFFCURVE",
"757 208 CURVE",
"757 137 OFFCURVE",
"689 104 OFFCURVE",
"594 104 CURVE",
"284 104 LINE",
"290 74 LINE",
"290 334 LINE",
"285 311 LINE",
"589 311 LINE"
);
}
);
width = 995;
}
);
leftKerningGroup = H;
leftMetricsKey = H;
note = B;
rightKerningGroup = B;
rightMetricsKey = O;
unicode = 0042;
},
{
glyphname = C;
lastChange = "2018-09-10 20:06:09 +0000";
layers = (
{
anchors = (
{
name = bottom;
position = "{377, 0}";
},
{
name = top;
position = "{372, 700}";
}
);
layerId = "3D0525B3-6B2A-4787-8D58-1F6DD6CCA7DC";
paths = (
{
closed = 1;
nodes = (
"576 174 LINE",
"540 137 OFFCURVE",
"478 99 OFFCURVE",
"400 99 CURVE SMOOTH",
"271 99 OFFCURVE",
"158 182 OFFCURVE",
"158 350 CURVE SMOOTH",
"158 504 OFFCURVE",
"270 598 OFFCURVE",
"391 598 CURVE SMOOTH",
"461 598 OFFCURVE",
"521 561 OFFCURVE",
"571 510 CURVE",
"643 585 LINE",
"600 646 OFFCURVE",
"505 706 OFFCURVE",
"391 706 CURVE SMOOTH",
"206 706 OFFCURVE",
"48 556 OFFCURVE",
"48 350 CURVE SMOOTH",
"48 131 OFFCURVE",
"194 -10 OFFCURVE",
"382 -10 CURVE SMOOTH",
"491 -10 OFFCURVE",
"588 37 OFFCURVE",
"630 86 CURVE"
);
}
);
width = 679;
},
{
anchors = (
{
name = bottom;
position = "{392, 0}";
},
{
name = top;
position = "{374, 700}";
}
);
associatedMasterId = "3D0525B3-6B2A-4787-8D58-1F6DD6CCA7DC";
layerId = "A8318955-2332-4256-90D0-5C0B55045161";
name = "Apr 2 18, 12:45";
paths = (
{
closed = 1;
nodes = (
"592 648 OFFCURVE",
"507 706 OFFCURVE",
"386 706 CURVE SMOOTH",
"201 706 OFFCURVE",
"43 556 OFFCURVE",
"43 350 CURVE",
"43 121 OFFCURVE",
"209 -10 OFFCURVE",
"400 -10 CURVE",
"464 -10 OFFCURVE",
"530 9 OFFCURVE",
"581 37 CURVE",
"597 45 OFFCURVE",
"606 61 OFFCURVE",
"606 77 CURVE SMOOTH",
"606 88 OFFCURVE",
"602 99 OFFCURVE",
"594 110 CURVE",
"584 122 OFFCURVE",
"571 127 OFFCURVE",
"558 127 CURVE SMOOTH",
"549 127 OFFCURVE",
"540 125 OFFCURVE",
"532 121 CURVE",
"492 98 OFFCURVE",
"447 86 OFFCURVE",
"400 86 CURVE",
"258 86 OFFCURVE",
"148 180 OFFCURVE",
"148 350 CURVE",
"148 503 OFFCURVE",
"253 610 OFFCURVE",
"386 610 CURVE SMOOTH",
"476 610 OFFCURVE",
"535 561 OFFCURVE",
"555 537 CURVE SMOOTH",
"567 522 OFFCURVE",
"580 512 OFFCURVE",
"596 512 CURVE SMOOTH",
"620 512 OFFCURVE",
"644 531 OFFCURVE",
"644 561 CURVE SMOOTH",
"644 569 OFFCURVE",
"641 580 OFFCURVE",
"633 591 CURVE SMOOTH"
);
}
);
width = 637;
},
{
anchors = (
{
name = bottom;
position = "{392, 0}";
},
{
name = top;
position = "{374, 700}";
}
);
associatedMasterId = "3D0525B3-6B2A-4787-8D58-1F6DD6CCA7DC";
layerId = "77367C94-86C1-49F8-9713-672AA0BC257D";
name = "Apr 2 18, 12:45";
paths = (
{
closed = 1;
nodes = (
"528 689 OFFCURVE",
"465 706 OFFCURVE",
"400 706 CURVE",
"196 706 OFFCURVE",
"43 556 OFFCURVE",
"43 350 CURVE",
"43 121 OFFCURVE",
"209 -10 OFFCURVE",
"400 -10 CURVE",
"464 -10 OFFCURVE",
"530 9 OFFCURVE",
"581 37 CURVE",
"607 51 OFFCURVE",
"614 83 OFFCURVE",
"594 110 CURVE",
"578 129 OFFCURVE",
"554 132 OFFCURVE",
"532 121 CURVE",
"492 98 OFFCURVE",
"447 86 OFFCURVE",
"400 86 CURVE",
"258 86 OFFCURVE",
"148 180 OFFCURVE",
"148 350 CURVE",
"148 503 OFFCURVE",
"249 610 OFFCURVE",
"400 610 CURVE",
"448 610 OFFCURVE",
"493 597 OFFCURVE",
"532 576 CURVE",
"554 564 OFFCURVE",
"578 566 OFFCURVE",
"593 585 CURVE",
"613 610 OFFCURVE",
"608 644 OFFCURVE",
"580 659 CURVE"
);
}
);
visible = 1;
width = 637;
},
{
anchors = (
{
name = bottom;
position = "{491, 0}";
},
{
name = top;
position = "{531, 700}";
}
);
layerId = "950578AD-3C55-42C9-B412-F732192F54B4";
paths = (
{
closed = 1;
nodes = (
"798 194 LINE",
"738 150 OFFCURVE",
"659 95 OFFCURVE",
"540 95 CURVE SMOOTH",
"384 95 OFFCURVE",
"238 182 OFFCURVE",
"238 350 CURVE SMOOTH",
"238 504 OFFCURVE",
"380 600 OFFCURVE",
"522 600 CURVE SMOOTH",
"633 600 OFFCURVE",
"719 557 OFFCURVE",
"791 498 CURVE",
"855 589 LINE",
"794 647 OFFCURVE",
"667 706 OFFCURVE",
"532 706 CURVE SMOOTH",
"315 706 OFFCURVE",
"128 556 OFFCURVE",
"128 350 CURVE SMOOTH",
"128 131 OFFCURVE",
"305 -10 OFFCURVE",
"532 -10 CURVE SMOOTH",
"672 -10 OFFCURVE",
"793 57 OFFCURVE",
"850 104 CURVE"
);
}
);
width = 981;
}
);
leftKerningGroup = C;
leftMetricsKey = O;
note = C;
unicode = 0043;
},
{
glyphname = D;
lastChange = "2018-09-11 01:34:35 +0000";
layers = (
{
anchors = (
{
name = bottom;
position = "{335, 0}";
},
{
name = center;
position = "{147, 350}";
},
{
name = top;
position = "{325, 700}";
}
);
layerId = "3D0525B3-6B2A-4787-8D58-1F6DD6CCA7DC";
paths = (
{
closed = 1;
nodes = (
"98 700 LINE",
"98 0 LINE",
"372 0 LINE SMOOTH",
"588 0 OFFCURVE",
"700 157 OFFCURVE",
"700 350 CURVE SMOOTH",
"700 540 OFFCURVE",
"588 700 OFFCURVE",
"372 700 CURVE SMOOTH"
);
},
{
closed = 1;
nodes = (
"203 104 LINE",
"206 93 LINE",
"206 605 LINE",
"200 596 LINE",
"367 596 LINE SMOOTH",
"524 596 OFFCURVE",
"590 482 OFFCURVE",
"590 350 CURVE SMOOTH",
"590 215 OFFCURVE",
"524 104 OFFCURVE",
"367 104 CURVE SMOOTH"
);
}
);
width = 748;
},
{
anchors = (
{
name = bottom;
position = "{486, 0}";
},
{
name = center;
position = "{247, 350}";
},
{
name = top;
position = "{486, 700}";
}
);
layerId = "950578AD-3C55-42C9-B412-F732192F54B4";
paths = (
{
closed = 1;
nodes = (
"182 700 LINE",
"182 0 LINE",
"536 0 LINE SMOOTH",
"795 0 OFFCURVE",
"929 157 OFFCURVE",
"929 350 CURVE SMOOTH",
"929 540 OFFCURVE",
"795 700 OFFCURVE",
"536 700 CURVE SMOOTH"
);
},
{
closed = 1;
nodes = (
"287 104 LINE",
"290 93 LINE",
"290 605 LINE",
"284 596 LINE",
"531 596 LINE SMOOTH",
"730 596 OFFCURVE",
"814 482 OFFCURVE",
"814 350 CURVE SMOOTH",
"814 214 OFFCURVE",
"730 104 OFFCURVE",
"531 104 CURVE SMOOTH"
);
}
);
width = 1057;
}
);
leftKerningGroup = H;
leftMetricsKey = H;
note = D;
rightKerningGroup = D;
rightMetricsKey = O;
unicode = 0044;
},
{
glyphname = E;
lastChange = "2020-01-04 16:37:48 +0000";
layers = (
{
anchors = (
{
name = bottom;
position = "{322, 0}";
},
{
name = ogonek;
position = "{475, 10}";
},
{
name = top;
position = "{317, 700}";
},
{
name = topleft;
position = "{46, 700}";
}
);
layerId = "3D0525B3-6B2A-4787-8D58-1F6DD6CCA7DC";
paths = (
{
closed = 1;
nodes = (
"206 0 LINE",
"206 660 LINE",
"98 660 LINE",
"98 0 LINE"
);
},
{
closed = 1;
nodes = (
"539 0 LINE",
"539 0 OFFCURVE",
"539 104 OFFCURVE",
"539 104 CURVE",
"171 104 LINE",
"171 0 LINE"
);
},
{
closed = 1;
nodes = (
"484 307 LINE",
"484 411 LINE",
"147 411 LINE",
"147 307 LINE"
);
},
{
closed = 1;
nodes = (
"539 596 LINE",
"539 700 LINE",
"98 700 LINE",
"98 596 LINE"
);
}
);
width = 614;
},
{
anchors = (
{
name = bottom;
position = "{462, 0}";
},
{
name = ogonek;
position = "{831, 10}";
},
{
name = top;
position = "{462, 700}";
},
{
name = topleft;
position = "{20, 700}";
}
);
layerId = "950578AD-3C55-42C9-B412-F732192F54B4";
paths = (
{
closed = 1;
nodes = (
"290 0 LINE",
"290 684 LINE",
"182 684 LINE",
"182 0 LINE"
);
},
{
closed = 1;
nodes = (
"763 0 LINE",
"763 0 OFFCURVE",
"763 104 OFFCURVE",
"763 104 CURVE",
"230 104 LINE",
"230 0 LINE"
);
},
{
closed = 1;
nodes = (
"708 307 LINE",
"708 411 LINE",
"241 411 LINE",
"241 307 LINE"
);
},
{
closed = 1;
nodes = (
"763 596 LINE",
"763 700 LINE",
"182 700 LINE",
"182 596 LINE"
);
}
);
width = 923;
}
);
leftKerningGroup = H;
leftMetricsKey = H;
note = E;
rightKerningGroup = E;
unicode = 0045;
},
{
glyphname = Eogonek;
lastChange = "2018-12-03 15:54:37 +0000";
layers = (
{
anchors = (
{
name = bottom;
position = "{296, 0}";
},
{
name = top;
position = "{293, 700}";
},
{
name = topleft;
position = "{20, 700}";
}
);
components = (
{
name = E;
}
);
layerId = "3D0525B3-6B2A-4787-8D58-1F6DD6CCA7DC";
paths = (
{
closed = 1;
nodes = (
"463 -221 OFFCURVE",
"505 -200 OFFCURVE",
"539 -177 CURVE",
"500 -118 LINE",
"479 -133 OFFCURVE",
"455 -144 OFFCURVE",
"435 -144 CURVE SMOOTH",
"408 -144 OFFCURVE",
"388 -123 OFFCURVE",
"388 -100 CURVE SMOOTH",
"388 -62 OFFCURVE",
"458 -24 OFFCURVE",
"523 0 CURVE",
"470 52 LINE",
"389 30 OFFCURVE",
"295 -43 OFFCURVE",
"295 -114 CURVE SMOOTH",
"295 -178 OFFCURVE",
"348 -221 OFFCURVE",
"415 -221 CURVE SMOOTH"
);
}
);
width = 614;
},
{
anchors = (
{
name = bottom;
position = "{473, 0}";
},
{
name = top;
position = "{470, 700}";
},
{
name = topleft;
position = "{20, 700}";
}
);
components = (
{
name = E;
}
);
layerId = "950578AD-3C55-42C9-B412-F732192F54B4";
paths = (
{
closed = 1;
nodes = (
"703 -221 OFFCURVE",
"745 -200 OFFCURVE",
"779 -177 CURVE",
"740 -118 LINE",
"719 -133 OFFCURVE",
"695 -144 OFFCURVE",
"675 -144 CURVE SMOOTH",
"648 -144 OFFCURVE",
"628 -123 OFFCURVE",
"628 -100 CURVE SMOOTH",
"628 -62 OFFCURVE",
"698 -24 OFFCURVE",
"763 0 CURVE",
"710 52 LINE",
"629 30 OFFCURVE",
"535 -43 OFFCURVE",
"535 -114 CURVE SMOOTH",
"535 -178 OFFCURVE",
"588 -221 OFFCURVE",
"655 -221 CURVE SMOOTH"
);
}
);
width = 939;
}
);
leftMetricsKey = E;
note = Eogonek;
rightMetricsKey = E;
unicode = 0118;
},
{
glyphname = F;
lastChange = "2020-01-04 16:35:09 +0000";
layers = (
{
layerId = "3D0525B3-6B2A-4787-8D58-1F6DD6CCA7DC";
paths = (
{
closed = 1;
nodes = (
"94 0 OFFCURVE",
"203 0 OFFCURVE",
"206 0 CURVE",
"206 666 LINE",
"98 666 LINE",
"98 0 LINE"
);
},
{
closed = 1;
nodes = (
"507 298 LINE",
"507 402 LINE",
"146 402 LINE",
"146 298 LINE"
);
},
{
closed = 1;
nodes = (
"552 596 LINE",
"552 700 LINE",
"98 700 LINE",
"98 596 LINE"
);
}
);
width = 602;
},
{
layerId = "950578AD-3C55-42C9-B412-F732192F54B4";
paths = (
{
closed = 1;
nodes = (
"178 0 OFFCURVE",
"287 0 OFFCURVE",
"290 0 CURVE",
"290 682 LINE",
"182 682 LINE",
"182 0 LINE"
);
},
{
closed = 1;
nodes = (
"711 288 LINE",
"711 392 LINE",
"218 392 LINE",
"218 288 LINE"
);
},
{
closed = 1;
nodes = (
"756 596 LINE",
"756 700 LINE",
"182 700 LINE",
"182 596 LINE"
);
}
);
width = 896;
}
);
leftKerningGroup = H;
leftMetricsKey = H;
note = F;
rightKerningGroup = F;
unicode = 0046;
},
{
glyphname = G;
lastChange = "2018-11-26 23:09:19 +0000";
layers = (
{
anchors = (
{
name = bottom;
position = "{413, 0}";
},
{
name = top;
position = "{400, 700}";
}
);
layerId = "3D0525B3-6B2A-4787-8D58-1F6DD6CCA7DC";
paths = (
{
closed = 1;
nodes = (
"206 706 OFFCURVE",
"48 552 OFFCURVE",
"48 350 CURVE",
"48 148 OFFCURVE",
"207 -10 OFFCURVE",
"411 -10 CURVE",
"514 -10 OFFCURVE",
"602 32 OFFCURVE",
"655 99 CURVE SMOOTH",
"701 151 OFFCURVE",
"723 225 OFFCURVE",
"723 299 CURVE SMOOTH",
"723 319 OFFCURVE",
"721 339 OFFCURVE",
"718 359 CURVE",
"408 359 LINE",
"408 252 LINE",
"622 252 LINE",
"606 266 LINE",
"607 259 OFFCURVE",
"607 253 OFFCURVE",
"607 246 CURVE SMOOTH",
"607 158 OFFCURVE",
"514 95 OFFCURVE",
"414 95 CURVE SMOOTH",
"275 95 OFFCURVE",
"158 208 OFFCURVE",
"158 350 CURVE",
"158 493 OFFCURVE",
"267 601 OFFCURVE",
"410 601 CURVE SMOOTH",
"484 601 OFFCURVE",
"549 565 OFFCURVE",
"602 514 CURVE",
"672 587 LINE",
"627 648 OFFCURVE",
"529 706 OFFCURVE",
"410 706 CURVE SMOOTH"
);
}
);
width = 766;
},
{
anchors = (
{
name = bottom;
position = "{541, 0}";
},
{
name = top;
position = "{541, 700}";
}
);
layerId = "950578AD-3C55-42C9-B412-F732192F54B4";
paths = (
{
closed = 1;
nodes = (
"317 706 OFFCURVE",
"128 552 OFFCURVE",
"128 350 CURVE",
"128 112 OFFCURVE",
"322 -10 OFFCURVE",
"544 -10 CURVE",
"708 -10 OFFCURVE",
"834 38 OFFCURVE",
"901 121 CURVE SMOOTH",
"936 164 OFFCURVE",
"962 231 OFFCURVE",
"962 303 CURVE SMOOTH",
"962 318 OFFCURVE",
"960 334 OFFCURVE",
"958 349 CURVE",
"558 349 LINE",
"558 244 LINE",
"857 244 LINE",
"841 266 LINE",
"842 262 OFFCURVE",
"842 258 OFFCURVE",
"842 253 CURVE SMOOTH",
"842 161 OFFCURVE",
"716 95 OFFCURVE",
"553 95 CURVE SMOOTH",
"394 95 OFFCURVE",
"243 172 OFFCURVE",
"243 350 CURVE",
"243 493 OFFCURVE",
"381 601 OFFCURVE",
"560 601 CURVE SMOOTH",
"661 601 OFFCURVE",
"750 563 OFFCURVE",
"822 508 CURVE",
"892 587 LINE",
"835 648 OFFCURVE",
"711 706 OFFCURVE",
"560 706 CURVE SMOOTH"
);
}
);
width = 1082;
}
);
leftKerningGroup = C;
leftMetricsKey = O;
note = G;
rightKerningGroup = G;
unicode = 0047;
},
{
glyphname = H;
lastChange = "2018-09-10 18:59:57 +0000";
layers = (
{
anchors = (
{
name = bottom;
position = "{376, 0}";
},
{
name = center;
position = "{376, 350}";
},
{
name = top;
position = "{376, 700}";
},
{
name = topleft;
position = "{36, 700}";
}
);
layerId = "3D0525B3-6B2A-4787-8D58-1F6DD6CCA7DC";
paths = (
{
closed = 1;
nodes = (
"98 700 LINE",
"98 0 LINE",
"206 0 LINE",
"206 700 LINE"
);
},
{
closed = 1;
nodes = (
"555 700 LINE",
"555 0 LINE",
"663 0 LINE",
"663 700 LINE"
);
},
{
closed = 1;
nodes = (
"145 297 LINE",
"603 297 LINE",
"603 401 LINE",
"146 401 LINE"
);
}
);
width = 761;
},
{
anchors = (
{
name = bottom;
position = "{545, 0}";
},
{
name = center;
position = "{545, 350}";
},
{
name = top;
position = "{545, 700}";
},
{
name = topleft;
position = "{20, 700}";
}
);
layerId = "950578AD-3C55-42C9-B412-F732192F54B4";
paths = (
{
closed = 1;
nodes = (
"182 700 LINE",
"182 0 LINE",
"290 0 LINE",
"290 700 LINE"
);
},
{
closed = 1;
nodes = (
"779 700 LINE",
"779 0 LINE",
"887 0 LINE",
"887 700 LINE"
);
},
{
closed = 1;
nodes = (
"229 293 LINE",
"827 293 LINE",
"827 397 LINE",
"230 397 LINE"
);
}
);
width = 1069;
}
);
leftKerningGroup = H;
note = H;
rightKerningGroup = H;
unicode = 0048;
},
{
glyphname = Hbar;
lastChange = "2018-07-19 20:33:34 +0000";
layers = (
{
components = (
{
name = H;
transform = "{1, 0, 0, 1, 48, 0}";
}
);
layerId = "3D0525B3-6B2A-4787-8D58-1F6DD6CCA7DC";
paths = (
{
closed = 1;
nodes = (
"163 468 LINE",
"209 478 LINE",
"625 478 LINE",
"656 468 LINE",
"800 468 LINE",
"800 572 LINE",
"649 572 LINE",
"613 562 LINE",
"219 562 LINE",
"173 572 LINE",
"57 572 LINE",
"57 468 LINE"
);
}
);
width = 857;
},
{
components = (
{
name = H;
transform = "{1, 0, 0, 1, 48, 0}";
}
);
layerId = "950578AD-3C55-42C9-B412-F732192F54B4";
paths = (
{
closed = 1;
nodes = (
"233 468 LINE",
"279 478 LINE",
"906 478 LINE",
"937 468 LINE",
"1109 468 LINE",
"1109 572 LINE",
"930 572 LINE",
"894 562 LINE",
"289 562 LINE",
"243 572 LINE",
"87 572 LINE",
"87 468 LINE"
);
}
);
width = 1196;
}
);
note = Hbar;
unicode = 0126;
},
{
glyphname = I;
lastChange = "2018-09-10 20:05:34 +0000";
layers = (
{
anchors = (
{
name = bottom;
position = "{238, 0}";
},
{
name = ogonek;
position = "{428, 10}";
},
{
name = top;
position = "{238, 700}";
},
{
name = topleft;
position = "{123, 700}";
}
);
layerId = "3D0525B3-6B2A-4787-8D58-1F6DD6CCA7DC";
paths = (
{
closed = 1;
nodes = (
"293 700 LINE",
"292 700 OFFCURVE",
"186 700 OFFCURVE",
"185 700 CURVE",
"185 0 LINE",
"293 0 LINE"
);
},
{
closed = 1;
nodes = (
"406 700 LINE",
"72 700 LINE",
"72 600 LINE",
"406 600 LINE"
);
},
{
closed = 1;
nodes = (
"406 100 LINE",
"72 100 LINE",
"72 0 LINE",
"406 0 LINE"
);
}
);
width = 478;
},
{
anchors = (
{
name = bottom;
position = "{427, 0}";
},
{
name = ogonek;
position = "{769, 10}";
},
{
name = top;
position = "{427, 700}";
},
{
name = topleft;
position = "{20, 700}";
}
);
layerId = "950578AD-3C55-42C9-B412-F732192F54B4";
paths = (
{
closed = 1;
nodes = (
"481 700 LINE",
"480 700 OFFCURVE",
"374 700 OFFCURVE",
"373 700 CURVE",
"373 0 LINE",
"481 0 LINE"
);
},
{
closed = 1;
nodes = (
"664 700 LINE",
"190 700 LINE",
"190 593 LINE",
"664 593 LINE"
);
},
{
closed = 1;
nodes = (
"664 107 LINE",
"190 107 LINE",
"190 0 LINE",
"664 0 LINE"
);
}
);
width = 854;
}
);
note = I;
unicode = 0049;
},
{
glyphname = J;
lastChange = "2018-09-10 20:06:00 +0000";
layers = (
{
anchors = (
{
name = bottom;
position = "{310, 0}";
},
{
name = top;
position = "{457, 700}";
}
);
layerId = "3D0525B3-6B2A-4787-8D58-1F6DD6CCA7DC";
paths = (
{
closed = 1;
nodes = (
"402 -10 OFFCURVE",
"484 99 OFFCURVE",
"484 213 CURVE",
"484 700 LINE",
"376 700 LINE",
"376 223 LINE",
"376 152 OFFCURVE",
"331 95 OFFCURVE",
"256 95 CURVE SMOOTH",
"184 95 OFFCURVE",
"152 141 OFFCURVE",
"118 188 CURVE",
"50 117 LINE",
"66 86 OFFCURVE",
"128 -10 OFFCURVE",
"256 -10 CURVE"
);
},
{
closed = 1;
nodes = (
"592 700 LINE",
"248 700 LINE",
"248 600 LINE",
"592 600 LINE"
);
}
);
width = 642;
},
{
anchors = (
{
name = bottom;
position = "{441, 0}";
},
{
name = top;
position = "{632, 700}";
}
);
layerId = "950578AD-3C55-42C9-B412-F732192F54B4";
paths = (
{
closed = 1;
nodes = (
"592 -10 OFFCURVE",
"699 128 OFFCURVE",
"699 273 CURVE",
"699 700 LINE",
"591 700 LINE",
"591 283 LINE",
"591 176 OFFCURVE",
"519 90 OFFCURVE",
"401 90 CURVE SMOOTH",
"295 90 OFFCURVE",
"247 156 OFFCURVE",
"197 223 CURVE",
"125 147 LINE",
"146 109 OFFCURVE",
"230 -10 OFFCURVE",
"401 -10 CURVE"
);
},
{
closed = 1;
nodes = (
"831 700 LINE",
"417 700 LINE",
"417 593 LINE",
"831 593 LINE"
);
}
);
width = 881;
}
);
leftKerningGroup = J;
note = J;
rightKerningGroup = J;
unicode = 004A;
},
{
glyphname = K;
lastChange = "2018-09-10 20:06:38 +0000";
layers = (
{
anchors = (
{
name = bottom;
position = "{336, 0}";
},
{
name = top;
position = "{348, 700}";
}
);
layerId = "3D0525B3-6B2A-4787-8D58-1F6DD6CCA7DC";
paths = (
{
closed = 1;
nodes = (
"697 0 LINE",
"374 427 LINE",
"307 341 LINE",
"562 0 LINE"
);
},
{
closed = 1;
nodes = (
"549 700 LINE",
"315 466 LINE",
"182 333 LINE",
"188 212 LINE",
"691 700 LINE"
);
},
{
closed = 1;
nodes = (
"206 700 LINE",
"205 700 OFFCURVE",
"99 700 OFFCURVE",
"98 700 CURVE",
"98 0 LINE",
"206 0 LINE"
);
}
);
width = 732;
},
{
anchors = (
{
name = bottom;
position = "{536, 0}";
},
{
name = top;
position = "{536, 700}";
}
);
layerId = "950578AD-3C55-42C9-B412-F732192F54B4";
paths = (
{
closed = 1;
nodes = (
"921 0 LINE",
"537 465 LINE",
"470 379 LINE",
"777 0 LINE"
);
},
{
closed = 1;
nodes = (
"775 700 LINE",
"482 471 LINE",
"259 297 LINE",
"282 192 LINE",
"935 700 LINE"
);
},
{
closed = 1;
nodes = (
"290 700 LINE",
"289 700 OFFCURVE",
"183 700 OFFCURVE",
"182 700 CURVE",
"182 0 LINE",
"290 0 LINE"
);
}
);
width = 1071;
}
);
leftKerningGroup = H;
leftMetricsKey = H;
note = K;
rightKerningGroup = K;
unicode = 004B;
},
{
glyphname = L;
lastChange = "2018-09-10 20:06:45 +0000";
layers = (
{
anchors = (
{
name = bottom;
position = "{298, 0}";
},
{
name = center;
position = "{291, 350}";
},
{
name = top;
position = "{141, 700}";
},
{
name = topright;
position = "{547, 700}";
}
);
layerId = "3D0525B3-6B2A-4787-8D58-1F6DD6CCA7DC";
paths = (
{
closed = 1;
nodes = (
"178 104 LINE",
"206 78 LINE",
"206 700 LINE",
"98 700 LINE",
"98 0 LINE",
"534 0 LINE",
"534 0 OFFCURVE",
"534 104 OFFCURVE",
"534 104 CURVE"
);
}
);
width = 599;
},
{
anchors = (
{
name = bottom;
position = "{429, 0}";
},
{
name = center;
position = "{429, 350}";
},
{
name = top;
position = "{236, 700}";
},
{
name = topright;
position = "{838, 700}";
}
);
layerId = "950578AD-3C55-42C9-B412-F732192F54B4";
paths = (
{
closed = 1;
nodes = (
"242 104 LINE",
"290 68 LINE",
"290 700 LINE",
"182 700 LINE",
"182 0 LINE",
"758 0 LINE",
"758 0 OFFCURVE",
"758 104 OFFCURVE",
"758 104 CURVE"
);
}
);
width = 898;
}
);
leftKerningGroup = H;
leftMetricsKey = H;
note = L;
rightKerningGroup = L;
unicode = 004C;
},
{
glyphname = Lslash;
lastChange = "2018-09-06 13:34:43 +0000";
layers = (
{
components = (
{
name = L;
transform = "{1, 0, 0, 1, 39, 0}";
}
);
layerId = "3D0525B3-6B2A-4787-8D58-1F6DD6CCA7DC";
paths = (
{
closed = 1;
nodes = (
"69 256 LINE",
"363 382 LINE",
"331 459 LINE",
"40 328 LINE"
);
}
);
width = 638;
},
{
components = (
{
name = L;
transform = "{1, 0, 0, 1, 39, 0}";
}
);
layerId = "950578AD-3C55-42C9-B412-F732192F54B4";
paths = (
{
closed = 1;
nodes = (
"59 226 LINE",
"623 439 LINE",
"591 536 LINE",
"30 318 LINE"
);
}
);
width = 937;
}
);
leftKerningGroup = L;
note = Lslash;
rightKerningGroup = L;
rightMetricsKey = L;
unicode = 0141;
},
{
glyphname = M;
lastChange = "2019-01-30 19:30:21 +0000";
layers = (
{
anchors = (
{
name = bottom;
position = "{433, 0}";
},
{
name = top;
position = "{433, 700}";
}
);
layerId = "3D0525B3-6B2A-4787-8D58-1F6DD6CCA7DC";
paths = (
{
closed = 1;
nodes = (
"98 700 LINE",
"98 0 LINE",
"99 0 OFFCURVE",
"205 0 OFFCURVE",
"206 0 CURVE",
"206 287 LINE SMOOTH",
"206 398 OFFCURVE",
"202 490 OFFCURVE",
"186 592 CURVE",
"175 551 LINE",
"397 201 LINE",
"463 201 LINE",
"692 555 LINE",
"678 592 LINE",
"663 490 OFFCURVE",
"658 398 OFFCURVE",
"658 287 CURVE SMOOTH",
"658 0 LINE",
"766 0 LINE",
"766 700 LINE",
"666 700 LINE",
"408 286 LINE",
"459 285 LINE",
"204 700 LINE"
);
}
);
width = 864;
},
{
anchors = (
{
name = bottom;
position = "{596, 0}";
},
{
name = top;
position = "{596, 700}";
}
);
layerId = "950578AD-3C55-42C9-B412-F732192F54B4";
paths = (
{
closed = 1;
nodes = (
"182 700 LINE",
"182 0 LINE",
"183 0 OFFCURVE",
"289 0 OFFCURVE",
"290 0 CURVE",
"290 297 LINE SMOOTH",
"290 408 OFFCURVE",
"286 500 OFFCURVE",
"270 602 CURVE",
"259 561 LINE",
"555 201 LINE",
"621 201 LINE",
"917 561 LINE",
"906 602 LINE",
"890 500 OFFCURVE",
"886 408 OFFCURVE",
"886 297 CURVE SMOOTH",
"886 0 LINE",
"994 0 LINE",
"994 700 LINE",
"888 700 LINE",
"569 305 LINE",
"607 305 LINE",
"288 700 LINE"
);
}
);
width = 1176;
}
);
leftKerningGroup = H;
leftMetricsKey = H;
note = M;
rightKerningGroup = H;
rightMetricsKey = H;
unicode = 004D;
},
{
glyphname = N;
lastChange = "2018-09-10 20:07:10 +0000";
layers = (
{
anchors = (
{
name = bottom;
position = "{393, 0}";
},
{
name = top;
position = "{393, 700}";
}
);
layerId = "3D0525B3-6B2A-4787-8D58-1F6DD6CCA7DC";
paths = (
{
closed = 1;
nodes = (
"586 700 OFFCURVE",
"587 700 CURVE",
"587 470 LINE",
"587 360 OFFCURVE",
"591 219 OFFCURVE",
"607 118 CURVE",
"623 127 LINE",
"195 700 LINE",
"98 700 LINE",
"98 0 LINE",
"206 0 LINE",
"206 291 LINE",
"206 383 OFFCURVE",
"194 474 OFFCURVE",
"186 566 CURVE",
"175 552 LINE",
"596 0 LINE",
"695 0 LINE",
"695 700 LINE",
"692 700 OFFCURVE"
);
}
);
width = 793;
},
{
anchors = (
{
name = bottom;
position = "{561, 0}";
},
{
name = top;
position = "{561, 700}";
}
);
layerId = "950578AD-3C55-42C9-B412-F732192F54B4";
paths = (
{
closed = 1;
nodes = (
"830 700 OFFCURVE",
"831 700 CURVE",
"831 470 LINE",
"831 360 OFFCURVE",
"835 219 OFFCURVE",
"851 118 CURVE",
"857 127 LINE",
"289 700 LINE",
"182 700 LINE",
"182 0 LINE",
"290 0 LINE",
"290 291 LINE",
"290 383 OFFCURVE",
"278 474 OFFCURVE",
"270 566 CURVE",
"269 552 LINE",
"830 0 LINE",
"939 0 LINE",
"939 700 LINE",
"936 700 OFFCURVE"
);
}
);
width = 1121;
}
);
leftKerningGroup = H;
leftMetricsKey = H;
note = N;
rightKerningGroup = H;
rightMetricsKey = H;
unicode = 004E;
},
{
glyphname = Eng;
lastChange = "2020-01-18 17:35:36 +0000";
layers = (
{
background = {
paths = (
{
closed = 1;
nodes = (
"586 700 OFFCURVE",
"587 700 CURVE",
"587 470 LINE",
"587 360 OFFCURVE",
"591 219 OFFCURVE",
"607 118 CURVE",
"623 127 LINE",
"195 700 LINE",
"98 700 LINE",
"98 0 LINE",
"206 0 LINE",
"206 291 LINE",
"206 383 OFFCURVE",
"194 474 OFFCURVE",
"186 566 CURVE",
"175 552 LINE",
"596 0 LINE",
"695 0 LINE",
"695 700 LINE",
"692 700 OFFCURVE"
);
}
);
};
layerId = "3D0525B3-6B2A-4787-8D58-1F6DD6CCA7DC";
paths = (
{
closed = 1;
nodes = (
"587 76 LINE",
"587 1 LINE SMOOTH",
"587 -73 OFFCURVE",
"552 -118 OFFCURVE",
"471 -118 CURVE",
"510 -197 LINE",
"618 -197 OFFCURVE",
"695 -131 OFFCURVE",
"695 -24 CURVE SMOOTH",
"695 58 LINE",
"695 700 LINE",
"692 700 OFFCURVE",
"586 700 OFFCURVE",
"587 700 CURVE",
"587 470 LINE",
"587 360 OFFCURVE",
"591 219 OFFCURVE",
"607 118 CURVE",
"623 127 LINE",
"195 700 LINE",
"98 700 LINE",
"98 0 LINE",
"206 0 LINE",
"206 291 LINE",
"206 383 OFFCURVE",
"194 474 OFFCURVE",
"186 566 CURVE",
"175 552 LINE",
"596 0 LINE"
);
}
);
width = 793;
},
{
background = {
paths = (
{
closed = 1;
nodes = (
"830 700 OFFCURVE",
"831 700 CURVE",
"831 470 LINE",
"831 360 OFFCURVE",
"835 219 OFFCURVE",
"851 118 CURVE",
"857 127 LINE",
"289 700 LINE",
"182 700 LINE",
"182 0 LINE",
"290 0 LINE",
"290 291 LINE",
"290 383 OFFCURVE",
"278 474 OFFCURVE",
"270 566 CURVE",
"269 552 LINE",
"830 0 LINE",
"939 0 LINE",
"939 700 LINE",
"936 700 OFFCURVE"
);
}
);
};
layerId = "950578AD-3C55-42C9-B412-F732192F54B4";
paths = (
{
closed = 1;
nodes = (
"825 126 LINE",
"826 91 LINE",
"826 -10 OFFCURVE",
"767 -95 OFFCURVE",
"630 -95 CURVE",
"669 -197 LINE",
"822 -197 OFFCURVE",
"939 -81 OFFCURVE",
"939 106 CURVE SMOOTH",
"939 178 LINE",
"939 700 LINE",
"936 700 OFFCURVE",
"830 700 OFFCURVE",
"831 700 CURVE",
"831 470 LINE",
"831 360 OFFCURVE",
"835 219 OFFCURVE",
"851 118 CURVE",
"857 127 LINE",
"289 700 LINE",
"182 700 LINE",
"182 0 LINE",
"290 0 LINE",
"290 291 LINE",
"290 383 OFFCURVE",
"278 474 OFFCURVE",
"270 566 CURVE",
"269 552 LINE",
"830 0 LINE"
);
}
);
width = 1121;
}
);
leftKerningGroup = H;
leftMetricsKey = N;
note = Eng;
rightKerningGroup = H;
rightMetricsKey = N;
unicode = 014A;
},
{
glyphname = Nhookleft;
lastChange = "2018-09-06 13:36:03 +0000";
layers = (
{
layerId = "3D0525B3-6B2A-4787-8D58-1F6DD6CCA7DC";
paths = (
{
closed = 1;
nodes = (
"190 291 LINE",
"190 383 OFFCURVE",
"178 474 OFFCURVE",
"170 566 CURVE",
"159 552 LINE",
"580 0 LINE",
"679 0 LINE",
"679 700 LINE",
"676 700 OFFCURVE",
"570 700 OFFCURVE",
"571 700 CURVE",
"571 470 LINE",
"571 360 OFFCURVE",
"575 219 OFFCURVE",
"591 118 CURVE",
"607 127 LINE",
"179 700 LINE",
"82 700 LINE",
"82 1 LINE SMOOTH",
"82 -73 OFFCURVE",
"47 -118 OFFCURVE",
"-34 -118 CURVE",
"5 -197 LINE",
"113 -197 OFFCURVE",
"190 -131 OFFCURVE",
"190 -24 CURVE SMOOTH"
);
}
);
width = 777;
},
{
layerId = "950578AD-3C55-42C9-B412-F732192F54B4";
paths = (
{
closed = 1;
nodes = (
"310 291 LINE",
"310 383 OFFCURVE",
"298 474 OFFCURVE",
"290 566 CURVE",
"269 532 LINE",
"830 0 LINE",
"939 0 LINE",
"939 700 LINE",
"936 700 OFFCURVE",
"810 700 OFFCURVE",
"811 700 CURVE",
"811 470 LINE",
"811 360 OFFCURVE",
"815 219 OFFCURVE",
"831 118 CURVE",
"857 147 LINE",
"289 700 LINE",
"182 700 LINE",
"182 131 LINE SMOOTH",
"182 -10 OFFCURVE",
"131 -95 OFFCURVE",
"1 -95 CURVE",
"40 -197 LINE",
"193 -197 OFFCURVE",
"310 -81 OFFCURVE",
"310 106 CURVE SMOOTH"
);
}
);
width = 1121;
}
);
leftKerningGroup = H;
rightKerningGroup = H;
rightMetricsKey = N;
unicode = 019D;
},
{
glyphname = O;
lastChange = "2018-09-10 19:16:50 +0000";
layers = (
{
anchors = (
{
name = bottom;
position = "{386, 0}";
},
{
name = center;
position = "{386, 350}";
},
{
name = ogonek;
position = "{690, 10}";
},
{
name = top;
position = "{386, 700}";
},
{
name = topleft;
position = "{25, 700}";
},
{
name = topright;
position = "{387, 706}";
}
);
layerId = "3D0525B3-6B2A-4787-8D58-1F6DD6CCA7DC";
paths = (
{
closed = 1;
nodes = (
"734 553 OFFCURVE",
"591 710 OFFCURVE",
"391 710 CURVE",
"190 710 OFFCURVE",
"48 553 OFFCURVE",
"48 350 CURVE",
"48 147 OFFCURVE",
"190 -10 OFFCURVE",
"391 -10 CURVE",
"591 -10 OFFCURVE",
"734 147 OFFCURVE",
"734 350 CURVE"
);
},
{
closed = 1;
nodes = (
"624 205 OFFCURVE",
"527 95 OFFCURVE",
"391 95 CURVE SMOOTH",
"253 95 OFFCURVE",
"158 204 OFFCURVE",
"158 350 CURVE",
"158 496 OFFCURVE",
"253 605 OFFCURVE",
"391 605 CURVE SMOOTH",
"527 605 OFFCURVE",
"624 495 OFFCURVE",
"624 350 CURVE"
);
}
);
width = 782;
},
{
anchors = (
{
name = bottom;
position = "{551, 0}";
},
{
name = center;
position = "{551, 350}";
},
{
name = ogonek;
position = "{646, 10}";
},
{
name = top;
position = "{551, 700}";
},
{
name = topleft;
position = "{20, 700}";
},
{
name = topright;
position = "{798, 710}";
}
);
layerId = "950578AD-3C55-42C9-B412-F732192F54B4";
paths = (
{
closed = 1;
nodes = (
"974 553 OFFCURVE",
"798 710 OFFCURVE",
"551 710 CURVE",
"303 710 OFFCURVE",
"128 553 OFFCURVE",
"128 350 CURVE",
"128 147 OFFCURVE",
"303 -10 OFFCURVE",
"551 -10 CURVE",
"798 -10 OFFCURVE",
"974 147 OFFCURVE",
"974 350 CURVE"
);
},
{
closed = 1;
nodes = (
"864 205 OFFCURVE",
"734 95 OFFCURVE",
"551 95 CURVE SMOOTH",
"365 95 OFFCURVE",
"238 204 OFFCURVE",
"238 350 CURVE",
"238 496 OFFCURVE",
"365 605 OFFCURVE",
"551 605 CURVE SMOOTH",
"734 605 OFFCURVE",
"864 495 OFFCURVE",
"864 350 CURVE"
);
}
);
width = 1102;
}
);
leftKerningGroup = C;
note = O;
rightKerningGroup = D;
unicode = 004F;
},
{
glyphname = Oslash;
lastChange = "2018-09-06 13:36:22 +0000";
layers = (
{
anchors = (
{
name = bottom;
position = "{368, 0}";
},
{
name = top;
position = "{368, 700}";
}
);
components = (
{
name = O;
transform = "{1, 0, 0, 1, 1, 0}";
}
);
layerId = "3D0525B3-6B2A-4787-8D58-1F6DD6CCA7DC";
paths = (
{
closed = 1;
nodes = (
"103 -33 LINE",
"697 694 LINE",
"629 741 LINE",
"40 20 LINE"
);
}
);
width = 770;
},
{
anchors = (
{
name = bottom;
position = "{551, 0}";
},
{
name = top;
position = "{551, 700}";
}
);
components = (
{
name = O;
}
);
layerId = "950578AD-3C55-42C9-B412-F732192F54B4";
paths = (
{
closed = 1;
nodes = (
"171 -34 LINE",
"985 669 LINE",
"919 737 LINE",
"111 39 LINE"
);
}
);
width = 1102;
}
);
leftKerningGroup = O;
note = Oslash;
rightKerningGroup = O;
unicode = 00D8;
},
{
glyphname = OE;
lastChange = "2018-12-03 15:54:59 +0000";
layers = (
{
anchors = (
{
name = bottom;
position = "{492, 0}";
},
{
name = top;
position = "{492, 700}";
}
);
layerId = "3D0525B3-6B2A-4787-8D58-1F6DD6CCA7DC";
paths = (
{
closed = 1;
nodes = (
"167 700 OFFCURVE",
"48 540 OFFCURVE",
"48 350 CURVE SMOOTH",
"48 157 OFFCURVE",
"160 0 OFFCURVE",
"375 0 CURVE SMOOTH",
"952 0 LINE",
"952 0 OFFCURVE",
"952 104 OFFCURVE",
"952 104 CURVE",
"612 104 LINE",
"619 97 LINE",
"619 316 LINE",
"613 307 LINE",
"897 307 LINE",
"897 411 LINE",
"610 411 LINE",
"619 402 LINE",
"619 614 LINE",
"610 596 LINE",
"952 596 LINE",
"952 700 LINE",
"395 700 LINE SMOOTH"
);
},
{
closed = 1;
nodes = (
"552 104 LINE",
"378 104 LINE SMOOTH",
"223 104 OFFCURVE",
"158 214 OFFCURVE",
"158 350 CURVE SMOOTH",
"158 483 OFFCURVE",
"229 596 OFFCURVE",
"398 596 CURVE SMOOTH",
"552 596 LINE",
"511 641 LINE",
"511 57 LINE"
);
}
);
width = 1027;
},
{
anchors = (
{
name = bottom;
position = "{736, 0}";
},
{
name = top;
position = "{736, 700}";
}
);
layerId = "950578AD-3C55-42C9-B412-F732192F54B4";
paths = (
{
closed = 1;
nodes = (
"271 700 OFFCURVE",
"128 540 OFFCURVE",
"128 350 CURVE SMOOTH",
"128 157 OFFCURVE",
"264 0 OFFCURVE",
"525 0 CURVE SMOOTH",
"1312 0 LINE",
"1312 0 OFFCURVE",
"1312 114 OFFCURVE",
"1312 114 CURVE",
"832 114 LINE",
"839 107 LINE",
"839 306 LINE",
"833 297 LINE",
"1257 297 LINE",
"1257 411 LINE",
"830 411 LINE",
"839 402 LINE",
"839 604 LINE",
"830 586 LINE",
"1312 586 LINE",
"1312 700 LINE",
"545 700 LINE SMOOTH"
);
},
{
closed = 1;
nodes = (
"772 114 LINE",
"528 114 LINE SMOOTH",
"338 114 OFFCURVE",
"258 220 OFFCURVE",
"258 350 CURVE SMOOTH",
"258 478 OFFCURVE",
"344 586 OFFCURVE",
"548 586 CURVE SMOOTH",
"772 586 LINE",
"731 641 LINE",
"731 57 LINE"
);
}
);
width = 1472;
}
);
leftKerningGroup = O;
leftMetricsKey = O;
note = OE;
rightKerningGroup = E;
rightMetricsKey = E;
unicode = 0152;
},
{
glyphname = P;
lastChange = "2018-09-10 20:07:58 +0000";
layers = (
{
anchors = (
{
name = bottom;
position = "{321, 0}";
},
{
name = top;
position = "{321, 700}";
}
);
layerId = "3D0525B3-6B2A-4787-8D58-1F6DD6CCA7DC";
paths = (
{
closed = 1;
nodes = (
"98 700 LINE",
"98 0 LINE",
"206 0 LINE",
"206 282 LINE",
"198 268 LINE",
"383 268 LINE SMOOTH",
"495 268 OFFCURVE",
"589 364 OFFCURVE",
"589 485 CURVE SMOOTH",
"589 606 OFFCURVE",
"495 700 OFFCURVE",
"383 700 CURVE SMOOTH"
);
},
{
closed = 1;
nodes = (
"197 372 LINE",
"206 358 LINE",
"206 611 LINE",
"197 596 LINE",
"381 596 LINE SMOOTH",
"434 596 OFFCURVE",
"479 547 OFFCURVE",
"479 485 CURVE SMOOTH",
"479 423 OFFCURVE",
"434 372 OFFCURVE",
"381 372 CURVE SMOOTH"
);
}
);
width = 634;
},
{
anchors = (
{
name = bottom;
position = "{477, 0}";
},
{
name = top;
position = "{477, 700}";
}
);
layerId = "950578AD-3C55-42C9-B412-F732192F54B4";
paths = (
{
closed = 1;
nodes = (
"182 700 LINE",
"182 0 LINE",
"290 0 LINE",
"290 282 LINE",
"282 258 LINE",
"571 258 LINE SMOOTH",
"705 258 OFFCURVE",
"818 358 OFFCURVE",
"818 485 CURVE SMOOTH",
"818 606 OFFCURVE",
"714 700 OFFCURVE",
"591 700 CURVE SMOOTH"
);
},
{
closed = 1;
nodes = (
"281 362 LINE",
"290 348 LINE",
"290 621 LINE",
"281 596 LINE",
"561 596 LINE SMOOTH",
"638 596 OFFCURVE",
"703 547 OFFCURVE",
"703 485 CURVE SMOOTH",
"703 418 OFFCURVE",
"638 362 OFFCURVE",
"561 362 CURVE SMOOTH"
);
}
);
width = 953;
}
);
leftKerningGroup = H;
leftMetricsKey = H;
note = P;
rightKerningGroup = P;
unicode = 0050;
},
{
glyphname = Thorn;
lastChange = "2018-09-11 15:48:39 +0000";
layers = (
{
anchors = (
{
name = bottom;
position = "{295, 0}";
},
{
name = top;
position = "{295, 700}";
}
);
layerId = "3D0525B3-6B2A-4787-8D58-1F6DD6CCA7DC";
paths = (
{
closed = 1;
nodes = (
"98 700 LINE",
"98 0 LINE",
"206 0 LINE",
"206 700 LINE"
);
},
{
closed = 1;
nodes = (
"198 141 LINE",
"383 141 LINE SMOOTH",
"495 141 OFFCURVE",
"589 237 OFFCURVE",
"589 358 CURVE SMOOTH",
"589 479 OFFCURVE",
"495 573 OFFCURVE",
"383 573 CURVE SMOOTH",
"118 573 LINE",
"147 469 LINE",
"381 469 LINE SMOOTH",
"434 469 OFFCURVE",
"479 420 OFFCURVE",
"479 358 CURVE SMOOTH",
"479 296 OFFCURVE",
"434 245 OFFCURVE",
"381 245 CURVE SMOOTH",
"197 245 LINE"
);
}
);
width = 634;
},
{
anchors = (
{
name = bottom;
position = "{477, 0}";
},
{
name = top;
position = "{477, 700}";
}
);
layerId = "950578AD-3C55-42C9-B412-F732192F54B4";
paths = (
{
closed = 1;
nodes = (
"182 700 LINE",
"182 0 LINE",
"290 0 LINE",
"290 700 LINE"
);
},
{
closed = 1;
nodes = (
"282 141 LINE",
"588 141 LINE SMOOTH",
"739 141 OFFCURVE",
"833 237 OFFCURVE",
"833 358 CURVE SMOOTH",
"833 499 OFFCURVE",
"739 573 OFFCURVE",
"588 573 CURVE SMOOTH",
"222 573 LINE",
"251 469 LINE",
"601 469 LINE SMOOTH",
"664 469 OFFCURVE",
"718 420 OFFCURVE",
"718 358 CURVE SMOOTH",
"718 295 OFFCURVE",
"664 245 OFFCURVE",
"601 245 CURVE SMOOTH",
"281 245 LINE"
);
}
);
width = 968;
}
);
leftKerningGroup = H;
leftMetricsKey = H;
note = Thorn;
rightKerningGroup = P;
rightMetricsKey = P;
unicode = 00DE;
},
{
glyphname = Q;
lastChange = "2018-09-10 20:07:42 +0000";
layers = (
{
anchors = (
{
name = bottom;
position = "{387, 0}";
},
{
name = top;
position = "{387, 700}";
}
);
layerId = "3D0525B3-6B2A-4787-8D58-1F6DD6CCA7DC";
paths = (
{
closed = 1;
nodes = (
"437 296 LINE",
"436 296 OFFCURVE",
"349 237 OFFCURVE",
"348 237 CURVE",
"613 -110 LINE",
"699 -48 LINE"
);
},
{
closed = 1;
nodes = (
"734 553 OFFCURVE",
"591 710 OFFCURVE",
"391 710 CURVE",
"190 710 OFFCURVE",
"48 553 OFFCURVE",
"48 350 CURVE",
"48 147 OFFCURVE",
"190 -10 OFFCURVE",
"391 -10 CURVE",
"591 -10 OFFCURVE",
"734 147 OFFCURVE",
"734 350 CURVE"
);
},
{
closed = 1;
nodes = (
"624 205 OFFCURVE",
"527 95 OFFCURVE",
"391 95 CURVE SMOOTH",
"253 95 OFFCURVE",
"158 204 OFFCURVE",
"158 350 CURVE",
"158 496 OFFCURVE",
"253 605 OFFCURVE",
"391 605 CURVE SMOOTH",
"527 605 OFFCURVE",
"624 495 OFFCURVE",
"624 350 CURVE"
);
}
);
width = 782;
},
{
anchors = (
{
name = bottom;
position = "{551, 0}";
},
{
name = top;
position = "{551, 700}";
}
);
layerId = "950578AD-3C55-42C9-B412-F732192F54B4";
paths = (
{
closed = 1;
nodes = (
"620 286 LINE",
"619 286 OFFCURVE",
"532 237 OFFCURVE",
"531 237 CURVE",
"796 -110 LINE",
"882 -58 LINE"
);
},
{
closed = 1;
nodes = (
"974 553 OFFCURVE",
"798 710 OFFCURVE",
"551 710 CURVE",
"303 710 OFFCURVE",
"128 553 OFFCURVE",
"128 350 CURVE",
"128 147 OFFCURVE",
"303 -10 OFFCURVE",
"551 -10 CURVE",
"798 -10 OFFCURVE",
"974 147 OFFCURVE",
"974 350 CURVE"
);
},
{
closed = 1;
nodes = (
"864 205 OFFCURVE",
"734 95 OFFCURVE",
"551 95 CURVE SMOOTH",
"365 95 OFFCURVE",
"238 204 OFFCURVE",
"238 350 CURVE",
"238 496 OFFCURVE",
"365 605 OFFCURVE",
"551 605 CURVE SMOOTH",
"734 605 OFFCURVE",
"864 495 OFFCURVE",
"864 350 CURVE"
);
}
);
width = 1102;
}
);
leftKerningGroup = C;
leftMetricsKey = O;
note = Q;
rightKerningGroup = D;
rightMetricsKey = O;
unicode = 0051;
},
{
glyphname = R;
lastChange = "2018-09-10 20:08:55 +0000";
layers = (
{
anchors = (
{
name = bottom;
position = "{365, 0}";
},
{
name = top;
position = "{325, 700}";
}
);
layerId = "3D0525B3-6B2A-4787-8D58-1F6DD6CCA7DC";
paths = (
{
closed = 1;
nodes = (
"520 263 OFFCURVE",
"617 365 OFFCURVE",
"617 477 CURVE",
"617 614 OFFCURVE",
"505 700 OFFCURVE",
"396 700 CURVE",
"98 700 LINE",
"98 0 LINE",
"206 0 LINE",
"206 630 LINE",
"196 596 LINE",
"378 596 LINE",
"448 596 OFFCURVE",
"507 551 OFFCURVE",
"507 478 CURVE",
"507 421 OFFCURVE",
"470 367 OFFCURVE",
"406 367 CURVE",
"193 367 LINE",
"193 263 LINE",
"396 263 LINE"
);
},
{
closed = 1;
nodes = (
"336 316 LINE",
"514 0 LINE",
"645 -1 LINE",
"447 341 LINE"
);
}
);
width = 695;
},
{
anchors = (
{
name = bottom;
position = "{506, 0}";
},
{
name = top;
position = "{466, 700}";
}
);
layerId = "950578AD-3C55-42C9-B412-F732192F54B4";
paths = (
{
closed = 1;
nodes = (
"705 258 OFFCURVE",
"818 358 OFFCURVE",
"818 485 CURVE SMOOTH",
"818 606 OFFCURVE",
"714 700 OFFCURVE",
"591 700 CURVE SMOOTH",
"182 700 LINE",
"182 0 LINE",
"290 0 LINE",
"290 621 LINE",
"281 596 LINE",
"561 596 LINE SMOOTH",
"638 596 OFFCURVE",
"703 547 OFFCURVE",
"703 485 CURVE SMOOTH",
"703 418 OFFCURVE",
"638 362 OFFCURVE",
"561 362 CURVE SMOOTH",
"281 362 LINE",
"282 258 LINE",
"571 258 LINE SMOOTH"
);
},
{
closed = 1;
nodes = (
"486 316 LINE",
"724 0 LINE",
"859 -1 LINE",
"601 341 LINE"
);
}
);
width = 1011;
}
);
leftKerningGroup = H;
leftMetricsKey = H;
note = R;
rightKerningGroup = R;
unicode = 0052;
},
{
glyphname = S;
lastChange = "2018-09-10 20:09:22 +0000";
layers = (
{
anchors = (
{
name = bottom;
position = "{321, 0}";
},
{
name = top;
position = "{321, 700}";
}
);
layerId = "3D0525B3-6B2A-4787-8D58-1F6DD6CCA7DC";
paths = (
{
closed = 1;
nodes = (
"50 126 LINE",
"116 30 OFFCURVE",
"206 -10 OFFCURVE",
"314 -10 CURVE SMOOTH",
"472 -10 OFFCURVE",
"569 75 OFFCURVE",
"569 208 CURVE SMOOTH",
"569 320 OFFCURVE",
"455 380 OFFCURVE",
"337 405 CURVE SMOOTH",
"250 423 OFFCURVE",
"193 449 OFFCURVE",
"193 517 CURVE",
"193 577 OFFCURVE",
"249 613 OFFCURVE",
"323 613 CURVE",
"396 613 OFFCURVE",
"451 572 OFFCURVE",
"487 512 CURVE",
"563 587 LINE",
"517 666 OFFCURVE",
"436 710 OFFCURVE",
"326 710 CURVE",
"198 710 OFFCURVE",
"85 634 OFFCURVE",
"85 514 CURVE",
"85 389 OFFCURVE",
"168 327 OFFCURVE",
"299 301 CURVE SMOOTH",
"401 281 OFFCURVE",
"461 246 OFFCURVE",
"461 180 CURVE SMOOTH",
"461 121 OFFCURVE",
"393 87 OFFCURVE",
"325 87 CURVE SMOOTH",
"230 87 OFFCURVE",
"179 132 OFFCURVE",
"124 211 CURVE"
);
}
);
width = 624;
},
{
anchors = (
{
name = bottom;
position = "{468, 0}";
},
{
name = top;
position = "{468, 700}";
}
);
layerId = "950578AD-3C55-42C9-B412-F732192F54B4";
paths = (
{
closed = 1;
nodes = (
"128 126 LINE",
"217 30 OFFCURVE",
"333 -10 OFFCURVE",
"478 -10 CURVE SMOOTH",
"678 -10 OFFCURVE",
"807 79 OFFCURVE",
"807 216 CURVE",
"807 357 OFFCURVE",
"656 384 OFFCURVE",
"495 403 CURVE SMOOTH",
"366 419 OFFCURVE",
"281 441 OFFCURVE",
"281 515 CURVE SMOOTH",
"281 577 OFFCURVE",
"363 613 OFFCURVE",
"471 613 CURVE",
"577 613 OFFCURVE",
"657 570 OFFCURVE",
"709 508 CURVE",
"781 587 LINE",
"721 666 OFFCURVE",
"616 710 OFFCURVE",
"474 710 CURVE",
"299 710 OFFCURVE",
"163 634 OFFCURVE",
"163 503 CURVE SMOOTH",
"163 379 OFFCURVE",
"277 322 OFFCURVE",
"457 299 CURVE SMOOTH",
"604 281 OFFCURVE",
"689 269 OFFCURVE",
"689 202 CURVE SMOOTH",
"689 123 OFFCURVE",
"582 87 OFFCURVE",
"479 87 CURVE SMOOTH",
"357 87 OFFCURVE",
"275 134 OFFCURVE",
"196 216 CURVE"
);
}
);
width = 935;
}
);
leftKerningGroup = S;
note = S;
rightKerningGroup = S;
unicode = 0053;
},
{
glyphname = Germandbls;
lastChange = "2018-12-03 15:53:01 +0000";
layers = (
{
layerId = "3D0525B3-6B2A-4787-8D58-1F6DD6CCA7DC";
paths = (
{
closed = 1;
nodes = (
"606 -10 OFFCURVE",
"707 77 OFFCURVE",
"707 184 CURVE SMOOTH",
"707 318 OFFCURVE",
"618 354 OFFCURVE",
"545 384 CURVE SMOOTH",
"491 407 OFFCURVE",
"445 440 OFFCURVE",
"445 486 CURVE SMOOTH",
"445 534 OFFCURVE",
"496 586 OFFCURVE",
"641 609 CURVE",
"636 682 LINE",
"570 710 OFFCURVE",
"492 726 OFFCURVE",
"407 726 CURVE SMOOTH",
"217 726 OFFCURVE",
"100 570 OFFCURVE",
"99 350 CURVE SMOOTH",
"98 1 LINE",
"206 1 LINE",
"208 343 LINE SMOOTH",
"209 525 OFFCURVE",
"291 635 OFFCURVE",
"417 632 CURVE",
"467 632 OFFCURVE",
"543 623 OFFCURVE",
"591 605 CURVE",
"541 643 LINE",
"444 635 OFFCURVE",
"338 582 OFFCURVE",
"338 460 CURVE SMOOTH",
"338 362 OFFCURVE",
"403 322 OFFCURVE",
"469 291 CURVE SMOOTH",
"535 260 OFFCURVE",
"601 239 OFFCURVE",
"602 171 CURVE SMOOTH",
"602 119 OFFCURVE",
"559 87 OFFCURVE",
"489 87 CURVE SMOOTH",
"443 87 OFFCURVE",
"393 118 OFFCURVE",
"362 155 CURVE",
"295 75 LINE",
"338 20 OFFCURVE",
"418 -10 OFFCURVE",
"490 -10 CURVE SMOOTH"
);
}
);
width = 762;
},
{
layerId = "950578AD-3C55-42C9-B412-F732192F54B4";
paths = (
{
closed = 1;
nodes = (
"867 -10 OFFCURVE",
"961 77 OFFCURVE",
"961 184 CURVE SMOOTH",
"961 318 OFFCURVE",
"851 351 OFFCURVE",
"769 373 CURVE SMOOTH",
"678 397 OFFCURVE",
"618 432 OFFCURVE",
"618 486 CURVE SMOOTH",
"618 550 OFFCURVE",
"689 592 OFFCURVE",
"885 609 CURVE",
"875 686 LINE",
"778 714 OFFCURVE",
"703 726 OFFCURVE",
"605 726 CURVE SMOOTH",
"344 726 OFFCURVE",
"184 573 OFFCURVE",
"183 257 CURVE SMOOTH",
"182 1 LINE",
"290 1 LINE",
"292 263 LINE SMOOTH",
"294 533 OFFCURVE",
"443 637 OFFCURVE",
"605 637 CURVE SMOOTH",
"685 637 OFFCURVE",
"753 622 OFFCURVE",
"785 613 CURVE",
"785 653 LINE",
"647 663 OFFCURVE",
"512 598 OFFCURVE",
"512 469 CURVE SMOOTH",
"512 371 OFFCURVE",
"592 309 OFFCURVE",
"693 283 CURVE SMOOTH",
"767 264 OFFCURVE",
"857 239 OFFCURVE",
"857 173 CURVE SMOOTH",
"857 129 OFFCURVE",
"798 87 OFFCURVE",
"721 87 CURVE SMOOTH",
"638 87 OFFCURVE",
"578 127 OFFCURVE",
"526 163 CURVE",
"459 83 LINE",
"535 24 OFFCURVE",
"614 -10 OFFCURVE",
"721 -10 CURVE SMOOTH"
);
}
);
width = 1089;
}
);
leftMetricsKey = H;
rightKerningGroup = S;
rightMetricsKey = S;
unicode = 1E9E;
},
{
glyphname = Schwa;
lastChange = "2018-09-11 16:54:09 +0000";
layers = (
{
layerId = "3D0525B3-6B2A-4787-8D58-1F6DD6CCA7DC";
paths = (
{
closed = 1;
nodes = (
"578 -10 OFFCURVE",
"732 151 OFFCURVE",
"732 350 CURVE SMOOTH",
"732 549 OFFCURVE",
"576 710 OFFCURVE",
"387 710 CURVE SMOOTH",
"275 710 OFFCURVE",
"192 681 OFFCURVE",
"116 606 CURVE",
"184 536 LINE",
"243 592 OFFCURVE",
"309 613 OFFCURVE",
"387 613 CURVE SMOOTH",
"519 613 OFFCURVE",
"629 526 OFFCURVE",
"629 351 CURVE SMOOTH",
"629 186 OFFCURVE",
"521 87 OFFCURVE",
"390 87 CURVE SMOOTH",
"273 87 OFFCURVE",
"172 177 OFFCURVE",
"152 296 CURVE",
"695 296 LINE",
"686 393 LINE",
"48 393 LINE",
"48 313 LINE",
"58 118 OFFCURVE",
"219 -10 OFFCURVE",
"390 -10 CURVE SMOOTH"
);
}
);
width = 780;
},
{
layerId = "950578AD-3C55-42C9-B412-F732192F54B4";
paths = (
{
closed = 1;
nodes = (
"680 -10 OFFCURVE",
"839 151 OFFCURVE",
"839 350 CURVE SMOOTH",
"839 549 OFFCURVE",
"678 710 OFFCURVE",
"482 710 CURVE SMOOTH",
"364 710 OFFCURVE",
"276 677 OFFCURVE",
"196 588 CURVE",
"264 528 LINE",
"327 591 OFFCURVE",
"398 613 OFFCURVE",
"482 613 CURVE SMOOTH",
"617 613 OFFCURVE",
"729 526 OFFCURVE",
"729 351 CURVE SMOOTH",
"729 189 OFFCURVE",
"619 87 OFFCURVE",
"485 87 CURVE SMOOTH",
"364 87 OFFCURVE",
"260 179 OFFCURVE",
"239 296 CURVE",
"775 296 LINE",
"766 393 LINE",
"128 393 LINE",
"128 313 LINE",
"138 118 OFFCURVE",
"307 -10 OFFCURVE",
"485 -10 CURVE SMOOTH"
);
}
);
width = 967;
}
);
leftKerningGroup = O;
leftMetricsKey = O;
rightKerningGroup = O;
rightMetricsKey = O;
unicode = 018F;
},
{
glyphname = T;
lastChange = "2018-09-10 20:09:37 +0000";
layers = (
{
anchors = (
{
name = bottom;
position = "{288, 0}";
},
{
name = center;
position = "{288, 350}";
},
{
name = top;
position = "{288, 700}";
}
);
layerId = "3D0525B3-6B2A-4787-8D58-1F6DD6CCA7DC";
paths = (
{
closed = 1;
nodes = (
"339 0 LINE",
"339 651 LINE",
"231 651 LINE",
"231 0 LINE"
);
},
{
closed = 1;
nodes = (
"541 596 LINE",
"541 700 LINE",
"35 700 LINE",
"35 596 LINE"
);
}
);
width = 576;
},
{
anchors = (
{
name = bottom;
position = "{423, 0}";
},
{
name = center;
position = "{423, 350}";
},
{
name = top;
position = "{423, 700}";
}
);
layerId = "950578AD-3C55-42C9-B412-F732192F54B4";
paths = (
{
closed = 1;
nodes = (
"474 0 LINE",
"474 651 LINE",
"366 651 LINE",
"366 0 LINE"
);
},
{
closed = 1;
nodes = (
"746 596 LINE",
"746 700 LINE",
"100 700 LINE",
"100 596 LINE"
);
}
);
width = 846;
}
);
leftKerningGroup = T;
note = T;
rightKerningGroup = T;
unicode = 0054;
},
{
glyphname = U;
lastChange = "2018-09-10 20:10:01 +0000";
layers = (
{
anchors = (
{
name = bottom;
position = "{370, 0}";
},
{
name = ogonek;
position = "{653, 10}";
},
{
name = top;
position = "{370, 700}";
},
{
name = topright;
position = "{512, 708}";
}
);
layerId = "3D0525B3-6B2A-4787-8D58-1F6DD6CCA7DC";
paths = (
{
closed = 1;
nodes = (
"549 701 LINE",
"549 278 LINE",
"549 173 OFFCURVE",
"466 98 OFFCURVE",
"370 98 CURVE",
"279 98 OFFCURVE",
"196 173 OFFCURVE",
"196 278 CURVE",
"196 701 LINE",
"88 701 LINE",
"88 269 LINE",
"88 110 OFFCURVE",
"207 -6 OFFCURVE",
"370 -6 CURVE",
"533 -6 OFFCURVE",
"652 110 OFFCURVE",
"652 269 CURVE",
"652 701 LINE"
);
}
);
width = 740;
},
{
anchors = (
{
name = bottom;
position = "{522, 0}";
},
{
name = ogonek;
position = "{940, 10}";
},
{
name = top;
position = "{522, 700}";
},
{
name = topright;
position = "{949, 700}";
}
);
layerId = "950578AD-3C55-42C9-B412-F732192F54B4";
paths = (
{
closed = 1;
nodes = (
"771 701 LINE",
"771 339 LINE",
"771 199 OFFCURVE",
"666 99 OFFCURVE",
"522 99 CURVE",
"385 99 OFFCURVE",
"278 199 OFFCURVE",
"278 339 CURVE",
"278 701 LINE",
"170 701 LINE",
"170 335 LINE",
"170 138 OFFCURVE",
"309 -6 OFFCURVE",
"522 -6 CURVE",
"735 -6 OFFCURVE",
"874 138 OFFCURVE",
"874 335 CURVE",
"874 701 LINE"
);
}
);
width = 1044;
}
);
leftKerningGroup = U;
note = U;
rightKerningGroup = U;
unicode = 0055;
},
{
glyphname = Uogonek;
lastChange = "2018-09-06 13:39:11 +0000";
layers = (
{
anchors = (
{
name = bottom;
position = "{354, 0}";
},
{
name = ogonek;
position = "{637, 10}";
},
{
name = top;
position = "{354, 700}";
},
{
name = topright;
position = "{688, 700}";
}
);
layerId = "3D0525B3-6B2A-4787-8D58-1F6DD6CCA7DC";
paths = (
{
closed = 1;
nodes = (
"82 129 OFFCURVE",
"191 -18 OFFCURVE",
"364 -18 CURVE SMOOTH",
"378 -18 OFFCURVE",
"442 -10 OFFCURVE",
"464 12 CURVE",
"451 52 LINE",
"364 25 OFFCURVE",
"312 -21 OFFCURVE",
"312 -87 CURVE SMOOTH",
"312 -157 OFFCURVE",
"366 -201 OFFCURVE",
"421 -201 CURVE SMOOTH",
"475 -201 OFFCURVE",
"519 -167 OFFCURVE",
"530 -139 CURVE",
"474 -99 LINE",
"466 -112 OFFCURVE",
"454 -124 OFFCURVE",
"437 -124 CURVE SMOOTH",
"410 -124 OFFCURVE",
"393 -109 OFFCURVE",
"393 -75 CURVE SMOOTH",
"393 -49 OFFCURVE",
"420 -14 OFFCURVE",
"475 8 CURVE SMOOTH",
"558 46 OFFCURVE",
"646 129 OFFCURVE",
"646 269 CURVE SMOOTH",
"646 701 LINE",
"543 701 LINE",
"543 278 LINE SMOOTH",
"543 167 OFFCURVE",
"460 88 OFFCURVE",
"364 88 CURVE SMOOTH",
"273 88 OFFCURVE",
"190 167 OFFCURVE",
"190 278 CURVE SMOOTH",
"190 701 LINE",
"82 701 LINE",
"82 269 LINE SMOOTH"
);
}
);
width = 728;
},
{
anchors = (
{
name = bottom;
position = "{522, 0}";
},
{
name = ogonek;
position = "{940, 10}";
},
{
name = top;
position = "{522, 700}";
},
{
name = topright;
position = "{949, 700}";
}
);
layerId = "950578AD-3C55-42C9-B412-F732192F54B4";
paths = (
{
closed = 1;
nodes = (
"170 138 OFFCURVE",
"309 -6 OFFCURVE",
"522 -6 CURVE",
"569 -6 OFFCURVE",
"612 16 OFFCURVE",
"651 38 CURVE",
"621 63 LINE",
"553 42 OFFCURVE",
"466 -8 OFFCURVE",
"466 -98 CURVE SMOOTH",
"466 -157 OFFCURVE",
"520 -201 OFFCURVE",
"575 -201 CURVE SMOOTH",
"629 -201 OFFCURVE",
"673 -167 OFFCURVE",
"684 -139 CURVE",
"628 -99 LINE",
"620 -112 OFFCURVE",
"608 -124 OFFCURVE",
"591 -124 CURVE SMOOTH",
"573 -124 OFFCURVE",
"557 -109 OFFCURVE",
"557 -88 CURVE SMOOTH",
"557 -56 OFFCURVE",
"582 -13 OFFCURVE",
"650 14 CURVE SMOOTH",
"773 63 OFFCURVE",
"874 181 OFFCURVE",
"874 335 CURVE",
"874 701 LINE",
"751 701 LINE",
"751 339 LINE",
"751 205 OFFCURVE",
"654 109 OFFCURVE",
"522 109 CURVE",
"396 109 OFFCURVE",
"298 205 OFFCURVE",
"298 339 CURVE",
"298 701 LINE",
"170 701 LINE",
"170 335 LINE"
);
}
);
width = 1044;
}
);
leftKerningGroup = U;
rightKerningGroup = U;
unicode = 0172;
},
{
glyphname = V;
lastChange = "2018-09-10 20:01:40 +0000";
layers = (
{
anchors = (
{
name = bottom;
position = "{357, 0}";
},
{
name = top;
position = "{357, 700}";
}
);
layerId = "3D0525B3-6B2A-4787-8D58-1F6DD6CCA7DC";
paths = (
{
closed = 1;
nodes = (
"565 700 LINE",
"410 275 LINE",
"388 216 OFFCURVE",
"367 157 OFFCURVE",
"351 98 CURVE",
"377 99 LINE",
"359 158 OFFCURVE",
"337 216 OFFCURVE",
"314 275 CURVE",
"147 700 LINE",
"24 700 LINE",
"304 0 LINE",
"409 0 LINE",
"691 700 LINE"
);
}
);
width = 715;
},
{
anchors = (
{
name = bottom;
position = "{476, 0}";
},
{
name = top;
position = "{476, 700}";
}
);
layerId = "950578AD-3C55-42C9-B412-F732192F54B4";
paths = (
{
closed = 1;
nodes = (
"733 700 LINE",
"560 281 LINE SMOOTH",
"533 215 OFFCURVE",
"491 125 OFFCURVE",
"467 60 CURVE",
"499 61 LINE",
"477 125 OFFCURVE",
"430 217 OFFCURVE",
"401 283 CURVE SMOOTH",
"214 700 LINE",
"92 700 LINE",
"415 0 LINE",
"545 0 LINE",
"860 700 LINE"
);
}
);
width = 952;
}
);
leftKerningGroup = V;
note = V;
rightKerningGroup = V;
unicode = 0056;
},
{
glyphname = W;
lastChange = "2018-09-10 20:11:08 +0000";
layers = (
{
anchors = (
{
name = bottom;
position = "{497, 0}";
},
{
name = top;
position = "{497, 700}";
}
);
layerId = "3D0525B3-6B2A-4787-8D58-1F6DD6CCA7DC";
paths = (
{
closed = 1;
nodes = (
"856 700 LINE",
"723 265 LINE SMOOTH",
"700 191 OFFCURVE",
"695 149 OFFCURVE",
"688 112 CURVE",
"714 119 LINE",
"705 153 OFFCURVE",
"697 194 OFFCURVE",
"670 263 CURVE SMOOTH",
"548 579 LINE",
"451 579 LINE",
"325 263 LINE SMOOTH",
"300 200 OFFCURVE",
"290 149 OFFCURVE",
"279 110 CURVE",
"308 109 LINE",
"300 149 OFFCURVE",
"293 200 OFFCURVE",
"274 262 CURVE SMOOTH",
"139 700 LINE",
"24 700 LINE",
"247 0 LINE",
"320 0 LINE",
"498 434 LINE",
"489 438 LINE",
"674 0 LINE",
"749 0 LINE",
"972 700 LINE"
);
}
);
width = 996;
},
{
anchors = (
{
name = bottom;
position = "{640, 0}";
},
{
name = top;
position = "{640, 640}";
}
);
layerId = "950578AD-3C55-42C9-B412-F732192F54B4";
paths = (
{
closed = 1;
nodes = (
"1068 700 LINE",
"904 296 LINE SMOOTH",
"879 236 OFFCURVE",
"856 157 OFFCURVE",
"840 102 CURVE",
"880 109 LINE",
"866 160 OFFCURVE",
"834 234 OFFCURVE",
"809 291 CURVE SMOOTH",
"684 579 LINE",
"580 579 LINE",
"451 289 LINE SMOOTH",
"424 229 OFFCURVE",
"394 153 OFFCURVE",
"375 100 CURVE",
"419 99 LINE",
"403 152 OFFCURVE",
"381 229 OFFCURVE",
"359 289 CURVE SMOOTH",
"211 700 LINE",
"92 700 LINE",
"350 0 LINE",
"433 0 LINE",
"637 467 LINE",
"618 471 LINE",
"821 0 LINE",
"896 0 LINE",
"1184 700 LINE"
);
}
);
width = 1276;
}
);
leftKerningGroup = W;
leftMetricsKey = V;
note = W;
rightKerningGroup = W;
rightMetricsKey = V;
unicode = 0057;
},
{
glyphname = X;
lastChange = "2018-11-15 21:42:17 +0000";
layers = (
{
anchors = (
{
name = bottom;
position = "{341, 0}";
},
{
name = top;
position = "{341, 700}";
}
);
layerId = "3D0525B3-6B2A-4787-8D58-1F6DD6CCA7DC";
paths = (
{
closed = 1;
nodes = (
"524 700 LINE",
"328 401 LINE",
"394 325 LINE",
"651 700 LINE"
);
},
{
closed = 1;
nodes = (
"29 700 LINE",
"307 314 LINE",
"524 0 LINE",
"661 0 LINE",
"378 390 LINE",
"166 700 LINE"
);
},
{
closed = 1;
nodes = (
"151 0 LINE",
"358 302 LINE",
"291 381 LINE",
"24 0 LINE"
);
}
);
width = 685;
},
{
anchors = (
{
name = bottom;
position = "{481, 0}";
},
{
name = top;
position = "{481, 700}";
}
);
layerId = "950578AD-3C55-42C9-B412-F732192F54B4";
paths = (
{
closed = 1;
nodes = (
"717 700 LINE",
"476 401 LINE",
"535 325 LINE",
"859 700 LINE"
);
},
{
closed = 1;
nodes = (
"97 700 LINE",
"444 316 LINE",
"722 0 LINE",
"870 0 LINE",
"511 397 LINE",
"244 700 LINE"
);
},
{
closed = 1;
nodes = (
"233 0 LINE",
"486 302 LINE",
"425 381 LINE",
"92 0 LINE"
);
}
);
width = 962;
}
);
leftKerningGroup = X;
note = X;
rightKerningGroup = X;
unicode = 0058;
},
{
glyphname = Y;
lastChange = "2018-09-10 20:12:06 +0000";
layers = (
{
anchors = (
{
name = bottom;
position = "{335, -1}";
},
{
name = top;
position = "{331, 700}";
},
{
name = topleft;
position = "{60, 700}";
}
);
layerId = "3D0525B3-6B2A-4787-8D58-1F6DD6CCA7DC";
paths = (
{
closed = 1;
nodes = (
"526 700 LINE",
"331 393 LINE",
"356 390 LINE",
"140 700 LINE",
"10 700 LINE",
"293 300 LINE",
"286 349 LINE",
"286 0 LINE",
"394 0 LINE",
"394 357 LINE",
"379 289 LINE",
"650 700 LINE"
);
}
);
width = 660;
},
{
anchors = (
{
name = bottom;
position = "{480, 0}";
},
{
name = top;
position = "{480, 700}";
},
{
name = topleft;
position = "{8, 700}";
}
);
layerId = "950578AD-3C55-42C9-B412-F732192F54B4";
paths = (
{
closed = 1;
nodes = (
"746 700 LINE",
"480 347 LINE",
"503 347 LINE",
"230 700 LINE",
"80 700 LINE",
"456 236 LINE",
"436 313 LINE",
"436 0 LINE",
"544 0 LINE",
"544 321 LINE",
"539 263 LINE",
"880 700 LINE"
);
}
);
width = 960;
}
);
leftKerningGroup = Y;
note = Y;
rightKerningGroup = Y;
unicode = 0059;
},
{
glyphname = Z;
lastChange = "2018-09-10 20:12:43 +0000";
layers = (
{
anchors = (
{
name = bottom;
position = "{330, 0}";
},
{
name = top;
position = "{330, 700}";
}
);
layerId = "3D0525B3-6B2A-4787-8D58-1F6DD6CCA7DC";
paths = (
{
closed = 1;
nodes = (
"86 700 LINE",
"86 596 LINE",
"474 596 LINE",
"459 613 LINE",
"60 79 LINE",
"60 0 LINE",
"604 0 LINE",
"604 104 LINE",
"180 104 LINE",
"196 87 LINE",
"593 622 LINE",
"593 700 LINE"
);
}
);
width = 659;
},
{
anchors = (
{
name = bottom;
position = "{442, 0}";
},
{
name = top;
position = "{442, 700}";
}
);
layerId = "950578AD-3C55-42C9-B412-F732192F54B4";
paths = (
{
closed = 1;
nodes = (
"126 700 LINE",
"126 594 LINE",
"654 594 LINE",
"615 613 LINE",
"100 79 LINE",
"100 0 LINE",
"784 0 LINE",
"784 106 LINE",
"220 106 LINE",
"258 87 LINE",
"773 622 LINE",
"773 700 LINE"
);
}
);
width = 884;
}
);
leftKerningGroup = Z;
note = Z;
rightKerningGroup = Z;
unicode = 005A;
},
{
glyphname = I.ss01;
lastChange = "2020-01-04 16:41:04 +0000";
layers = (
{
anchors = (
{
name = bottom;
position = "{153, 0}";
},
{
name = ogonek;
position = "{343, 10}";
},
{
name = top;
position = "{153, 700}";
},
{
name = topleft;
position = "{100, 700}";
}
);
layerId = "3D0525B3-6B2A-4787-8D58-1F6DD6CCA7DC";
paths = (
{
closed = 1;
nodes = (
"208 700 LINE",
"207 700 OFFCURVE",
"101 700 OFFCURVE",
"100 700 CURVE",
"100 0 LINE",
"208 0 LINE"
);
}
);
width = 308;
},
{
anchors = (
{
name = bottom;
position = "{246, 0}";
},
{
name = ogonek;
position = "{300, 10}";
},
{
name = top;
position = "{246, 700}";
},
{
name = topleft;
position = "{192, 700}";
}
);
layerId = "950578AD-3C55-42C9-B412-F732192F54B4";
paths = (
{
closed = 1;
nodes = (
"300 700 LINE",
"299 700 OFFCURVE",
"193 700 OFFCURVE",
"192 700 CURVE",
"192 0 LINE",
"300 0 LINE"
);
}
);
width = 492;
}
);
note = I;
},
{
glyphname = J.ss01;
lastChange = "2020-01-06 11:59:11 +0000";
layers = (
{
anchors = (
{
name = bottom;
position = "{310, 0}";
},
{
name = top;
position = "{426, 700}";
}
);
layerId = "3D0525B3-6B2A-4787-8D58-1F6DD6CCA7DC";
paths = (
{
closed = 1;
nodes = (
"402 -10 OFFCURVE",
"484 99 OFFCURVE",
"484 213 CURVE",
"484 700 LINE",
"376 700 LINE",
"376 223 LINE",
"376 152 OFFCURVE",
"331 95 OFFCURVE",
"256 95 CURVE SMOOTH",
"184 95 OFFCURVE",
"152 141 OFFCURVE",
"118 188 CURVE",
"50 117 LINE",
"66 86 OFFCURVE",
"128 -10 OFFCURVE",
"256 -10 CURVE"
);
}
);
width = 582;
},
{
anchors = (
{
name = bottom;
position = "{441, 0}";
},
{
name = top;
position = "{632, 700}";
}
);
layerId = "950578AD-3C55-42C9-B412-F732192F54B4";
paths = (
{
closed = 1;
nodes = (
"592 -10 OFFCURVE",
"699 128 OFFCURVE",
"699 273 CURVE",
"699 700 LINE",
"591 700 LINE",
"591 283 LINE",
"591 176 OFFCURVE",
"519 90 OFFCURVE",
"401 90 CURVE SMOOTH",
"295 90 OFFCURVE",
"247 156 OFFCURVE",
"197 223 CURVE",
"125 147 LINE",
"146 109 OFFCURVE",
"230 -10 OFFCURVE",
"401 -10 CURVE"
);
}
);
width = 881;
}
);
leftKerningGroup = J;
note = J;
rightKerningGroup = J;
rightMetricsKey = H;
},
{
glyphname = a;
lastChange = "2018-11-20 16:00:50 +0000";
layers = (
{
anchors = (
{
name = bottom;
position = "{311, -20}";
},
{
name = ogonek;
position = "{560, 3}";
},
{
name = top;
position = "{307, 530}";
}
);
layerId = "3D0525B3-6B2A-4787-8D58-1F6DD6CCA7DC";
paths = (
{
closed = 1;
nodes = (
"457 525 LINE",
"457 389 LINE",
"487 381 LINE",
"487 442 OFFCURVE",
"410 536 OFFCURVE",
"294 536 CURVE",
"146 536 OFFCURVE",
"38 424 OFFCURVE",
"38 264 CURVE",
"38 104 OFFCURVE",
"145 -10 OFFCURVE",
"277 -10 CURVE",
"394 -10 OFFCURVE",
"477 83 OFFCURVE",
"477 132 CURVE",
"457 125 LINE",
"457 0 LINE",
"561 0 LINE",
"561 525 LINE"
);
},
{
closed = 1;
nodes = (
"208 85 OFFCURVE",
"143 161 OFFCURVE",
"143 264 CURVE",
"143 366 OFFCURVE",
"208 441 OFFCURVE",
"301 441 CURVE",
"396 441 OFFCURVE",
"461 364 OFFCURVE",
"461 264 CURVE",
"461 161 OFFCURVE",
"396 85 OFFCURVE",
"301 85 CURVE"
);
}
);
width = 633;
},
{
anchors = (
{
name = bottom;
position = "{462, 0}";
},
{
name = ogonek;
position = "{904, 10}";
},
{
name = top;
position = "{502, 525}";
}
);
layerId = "950578AD-3C55-42C9-B412-F732192F54B4";
paths = (
{
closed = 1;
nodes = (
"681 525 LINE",
"681 389 LINE",
"711 391 LINE",
"711 454 OFFCURVE",
"593 536 OFFCURVE",
"438 536 CURVE",
"250 536 OFFCURVE",
"120 423 OFFCURVE",
"120 263 CURVE",
"120 104 OFFCURVE",
"241 -10 OFFCURVE",
"432 -10 CURVE",
"574 -10 OFFCURVE",
"701 76 OFFCURVE",
"701 137 CURVE",
"681 145 LINE",
"681 0 LINE",
"784 0 LINE",
"784 525 LINE"
);
},
{
closed = 1;
nodes = (
"320 85 OFFCURVE",
"225 161 OFFCURVE",
"225 263 CURVE",
"225 364 OFFCURVE",
"320 440 OFFCURVE",
"455 440 CURVE",
"592 440 OFFCURVE",
"685 364 OFFCURVE",
"685 263 CURVE",
"685 161 OFFCURVE",
"592 85 OFFCURVE",
"455 85 CURVE"
);
}
);
width = 984;
}
);
leftKerningGroup = c;
note = a;
rightKerningGroup = a;
unicode = 0061;
},
{
glyphname = aogonek;
lastChange = "2020-01-18 16:59:12 +0000";
layers = (
{
layerId = "3D0525B3-6B2A-4787-8D58-1F6DD6CCA7DC";
paths = (
{
closed = 1;
nodes = (
"394 -10 OFFCURVE",
"477 73 OFFCURVE",
"477 122 CURVE",
"457 125 LINE",
"457 0 LINE",
"508 0 LINE",
"508 52 LINE",
"427 10 OFFCURVE",
"333 -43 OFFCURVE",
"333 -114 CURVE SMOOTH",
"333 -178 OFFCURVE",
"386 -221 OFFCURVE",
"453 -221 CURVE SMOOTH",
"501 -221 OFFCURVE",
"543 -200 OFFCURVE",
"577 -177 CURVE",
"538 -118 LINE",
"517 -133 OFFCURVE",
"493 -144 OFFCURVE",
"473 -144 CURVE SMOOTH",
"446 -144 OFFCURVE",
"426 -123 OFFCURVE",
"426 -100 CURVE SMOOTH",
"426 -63 OFFCURVE",
"496 -26 OFFCURVE",
"561 0 CURVE",
"561 525 LINE",
"457 525 LINE",
"457 389 LINE",
"487 391 LINE",
"487 452 OFFCURVE",
"400 536 OFFCURVE",
"284 536 CURVE",
"146 536 OFFCURVE",
"38 424 OFFCURVE",
"38 264 CURVE",
"38 104 OFFCURVE",
"145 -10 OFFCURVE",
"287 -10 CURVE"
);
},
{
closed = 1;
nodes = (
"208 85 OFFCURVE",
"143 161 OFFCURVE",
"143 264 CURVE",
"143 366 OFFCURVE",
"208 441 OFFCURVE",
"301 441 CURVE",
"396 441 OFFCURVE",
"461 364 OFFCURVE",
"461 264 CURVE",
"461 161 OFFCURVE",
"396 85 OFFCURVE",
"301 85 CURVE"
);
}
);
width = 620;
},
{
background = {
paths = (
{
closed = 1;
nodes = (
"681 525 LINE",
"681 389 LINE",
"711 391 LINE",
"711 454 OFFCURVE",
"593 536 OFFCURVE",
"438 536 CURVE",
"250 536 OFFCURVE",
"120 423 OFFCURVE",
"120 263 CURVE",
"120 104 OFFCURVE",
"241 -10 OFFCURVE",
"432 -10 CURVE",
"574 -10 OFFCURVE",
"701 76 OFFCURVE",
"701 137 CURVE",
"681 145 LINE",
"681 0 LINE",
"784 0 LINE",
"784 525 LINE"
);
},
{
closed = 1;
nodes = (
"320 85 OFFCURVE",
"225 161 OFFCURVE",
"225 263 CURVE",
"225 364 OFFCURVE",
"320 440 OFFCURVE",
"455 440 CURVE",
"592 440 OFFCURVE",
"685 364 OFFCURVE",
"685 263 CURVE",
"685 161 OFFCURVE",
"592 85 OFFCURVE",
"455 85 CURVE"
);
}
);
};
layerId = "950578AD-3C55-42C9-B412-F732192F54B4";
paths = (
{
closed = 1;
nodes = (
"574 -10 OFFCURVE",
"701 83 OFFCURVE",
"701 134 CURVE",
"681 125 LINE",
"681 0 LINE",
"778 0 LINE",
"751 52 LINE",
"670 10 OFFCURVE",
"576 -43 OFFCURVE",
"576 -114 CURVE SMOOTH",
"576 -178 OFFCURVE",
"629 -221 OFFCURVE",
"696 -221 CURVE SMOOTH",
"744 -221 OFFCURVE",
"786 -200 OFFCURVE",
"820 -177 CURVE",
"781 -118 LINE",
"760 -133 OFFCURVE",
"736 -144 OFFCURVE",
"716 -144 CURVE SMOOTH",
"689 -144 OFFCURVE",
"669 -123 OFFCURVE",
"669 -100 CURVE SMOOTH",
"669 -63 OFFCURVE",
"729 -26 OFFCURVE",
"784 0 CURVE",
"784 525 LINE",
"681 525 LINE",
"681 389 LINE",
"711 411 LINE",
"711 464 OFFCURVE",
"593 536 OFFCURVE",
"438 536 CURVE",
"250 536 OFFCURVE",
"120 423 OFFCURVE",
"120 263 CURVE",
"120 104 OFFCURVE",
"241 -10 OFFCURVE",
"442 -10 CURVE"
);
},
{
closed = 1;
nodes = (
"321 85 OFFCURVE",
"225 161 OFFCURVE",
"225 263 CURVE",
"225 364 OFFCURVE",
"320 440 OFFCURVE",
"461 440 CURVE",
"592 440 OFFCURVE",
"685 364 OFFCURVE",
"685 263 CURVE",
"685 161 OFFCURVE",
"593 85 OFFCURVE",
"462 85 CURVE"
);
}
);
width = 1020;
}
);
leftKerningGroup = a;
leftMetricsKey = a;
note = aogonek;
rightKerningGroup = a;
unicode = 0105;
},
{
glyphname = ae;
lastChange = "2020-01-18 17:11:12 +0000";
layers = (
{
anchors = (
{
name = bottom;
position = "{410, 0}";
},
{
name = top;
position = "{452, 515}";
}
);
layerId = "3D0525B3-6B2A-4787-8D58-1F6DD6CCA7DC";
paths = (
{
closed = 1;
nodes = (
"162 536 OFFCURVE",
"92 482 OFFCURVE",
"51 435 CURVE",
"118 368 LINE",
"149 408 OFFCURVE",
"192 441 OFFCURVE",
"262 441 CURVE",
"307 441 OFFCURVE",
"373 415 OFFCURVE",
"373 356 CURVE",
"373 257 LINE",
"466 263 LINE",
"466 388 LINE",
"466 502 OFFCURVE",
"358 536 OFFCURVE",
"264 536 CURVE"
);
},
{
closed = 1;
nodes = (
"556 84 OFFCURVE",
"466 151 OFFCURVE",
"466 264 CURVE",
"466 399 OFFCURVE",
"540 441 OFFCURVE",
"621 441 CURVE",
"686 441 OFFCURVE",
"747 394 OFFCURVE",
"754 326 CURVE",
"754 302 LINE",
"769 319 LINE",
"274 319 LINE SMOOTH",
"108 320 OFFCURVE",
"38 253 OFFCURVE",
"38 149 CURVE",
"38 39 OFFCURVE",
"132 -10 OFFCURVE",
"216 -10 CURVE",
"324 -10 OFFCURVE",
"399 61 OFFCURVE",
"430 107 CURVE",
"386 174 LINE",
"366 135 OFFCURVE",
"309 78 OFFCURVE",
"220 78 CURVE",
"179 78 OFFCURVE",
"135 100 OFFCURVE",
"135 151 CURVE",
"135 197 OFFCURVE",
"167 237 OFFCURVE",
"261 237 CURVE SMOOTH",
"858 237 LINE",
"859 281 LINE",
"859 432 OFFCURVE",
"753 535 OFFCURVE",
"621 536 CURVE SMOOTH",
"493 536 OFFCURVE",
"373 433 OFFCURVE",
"373 257 CURVE",
"373 102 OFFCURVE",
"479 -10 OFFCURVE",
"644 -10 CURVE SMOOTH",
"725 -10 OFFCURVE",
"806 28 OFFCURVE",
"849 69 CURVE",
"849 69 OFFCURVE",
"849 69 OFFCURVE",
"850 69 CURVE",
"799 144 LINE",
"769 118 OFFCURVE",
"727 84 OFFCURVE",
"654 84 CURVE SMOOTH"
);
}
);
width = 899;
},
{
anchors = (
{
name = bottom;
position = "{748, 0}";
},
{
name = top;
position = "{748, 525}";
}
);
layerId = "950578AD-3C55-42C9-B412-F732192F54B4";
paths = (
{
closed = 1;
nodes = (
"300 536 OFFCURVE",
"216 496 OFFCURVE",
"143 445 CURVE",
"200 374 LINE",
"263 424 OFFCURVE",
"340 442 OFFCURVE",
"414 442 CURVE",
"479 442 OFFCURVE",
"575 400 OFFCURVE",
"575 336 CURVE",
"575 257 LINE",
"668 263 LINE",
"668 388 LINE",
"668 502 OFFCURVE",
"529 536 OFFCURVE",
"416 536 CURVE"
);
},
{
closed = 1;
nodes = (
"802 80 OFFCURVE",
"668 137 OFFCURVE",
"668 264 CURVE",
"668 407 OFFCURVE",
"785 446 OFFCURVE",
"913 446 CURVE",
"1012 446 OFFCURVE",
"1105 400 OFFCURVE",
"1116 326 CURVE",
"1116 302 LINE",
"1131 319 LINE",
"426 319 LINE SMOOTH",
"177 320 OFFCURVE",
"120 253 OFFCURVE",
"120 149 CURVE",
"120 39 OFFCURVE",
"221 -10 OFFCURVE",
"368 -10 CURVE",
"511 -10 OFFCURVE",
"605 70 OFFCURVE",
"646 116 CURVE",
"606 185 LINE",
"578 146 OFFCURVE",
"488 78 OFFCURVE",
"372 78 CURVE",
"287 78 OFFCURVE",
"217 100 OFFCURVE",
"217 157 CURVE",
"217 207 OFFCURVE",
"267 237 OFFCURVE",
"413 237 CURVE SMOOTH",
"1220 237 LINE",
"1221 281 LINE",
"1221 432 OFFCURVE",
"1084 535 OFFCURVE",
"913 536 CURVE SMOOTH",
"739 536 OFFCURVE",
"575 433 OFFCURVE",
"575 257 CURVE",
"575 102 OFFCURVE",
"716 -10 OFFCURVE",
"936 -10 CURVE SMOOTH",
"1045 -10 OFFCURVE",
"1167 27 OFFCURVE",
"1211 60 CURVE",
"1211 60 OFFCURVE",
"1211 60 OFFCURVE",
"1212 60 CURVE",
"1161 140 LINE",
"1122 107 OFFCURVE",
"1054 80 OFFCURVE",
"946 80 CURVE SMOOTH"
);
}
);
width = 1366;
}
);
leftKerningGroup = ae;
leftMetricsKey = a;
note = ae;
rightKerningGroup = ae;
rightMetricsKey = e;
unicode = 00E6;
},
{
glyphname = b;
lastChange = "2018-11-20 16:00:36 +0000";
layers = (
{
anchors = (
{
name = bottom;
position = "{316, 0}";
},
{
name = top;
position = "{316, 510}";
}
);
layerId = "3D0525B3-6B2A-4787-8D58-1F6DD6CCA7DC";
paths = (
{
closed = 1;
nodes = (
"251 536 OFFCURVE",
"170 466 OFFCURVE",
"159 414 CURVE",
"175 405 LINE",
"175 740 LINE",
"72 740 LINE",
"72 3 LINE",
"175 3 LINE",
"175 131 LINE",
"149 117 LINE",
"161 65 OFFCURVE",
"244 -10 OFFCURVE",
"348 -10 CURVE",
"484 -10 OFFCURVE",
"590 104 OFFCURVE",
"590 264 CURVE",
"590 424 OFFCURVE",
"485 536 OFFCURVE",
"345 536 CURVE"
);
},
{
closed = 1;
nodes = (
"425 442 OFFCURVE",
"491 366 OFFCURVE",
"491 264 CURVE",
"491 162 OFFCURVE",
"425 84 OFFCURVE",
"331 84 CURVE",
"236 84 OFFCURVE",
"170 162 OFFCURVE",
"170 264 CURVE",
"170 366 OFFCURVE",
"236 442 OFFCURVE",
"331 442 CURVE"
);
}
);
width = 630;
},
{
anchors = (
{
name = bottom;
position = "{499, 0}";
},
{
name = top;
position = "{499, 507}";
}
);
layerId = "950578AD-3C55-42C9-B412-F732192F54B4";
paths = (
{
closed = 1;
nodes = (
"414 536 OFFCURVE",
"302 456 OFFCURVE",
"287 404 CURVE",
"323 405 LINE",
"323 740 LINE",
"220 740 LINE",
"220 3 LINE",
"323 3 LINE",
"323 131 LINE",
"277 127 LINE",
"293 75 OFFCURVE",
"405 -10 OFFCURVE",
"546 -10 CURVE",
"734 -10 OFFCURVE",
"868 104 OFFCURVE",
"868 264 CURVE",
"868 424 OFFCURVE",
"729 536 OFFCURVE",
"553 536 CURVE"
);
},
{
closed = 1;
nodes = (
"673 441 OFFCURVE",
"768 366 OFFCURVE",
"768 264 CURVE",
"768 163 OFFCURVE",
"673 86 OFFCURVE",
"539 86 CURVE",
"403 86 OFFCURVE",
"308 163 OFFCURVE",
"308 264 CURVE",
"308 366 OFFCURVE",
"403 441 OFFCURVE",
"539 441 CURVE"
);
}
);
width = 998;
}
);
leftKerningGroup = b;
leftMetricsKey = n;
note = b;
rightKerningGroup = b;
rightMetricsKey = o;
unicode = 0062;
},
{
glyphname = c;
lastChange = "2018-10-02 22:59:43 +0000";
layers = (
{
anchors = (
{
name = bottom;
position = "{259, 0}";
},
{
name = top;
position = "{299, 530}";
}
);
layerId = "3D0525B3-6B2A-4787-8D58-1F6DD6CCA7DC";
paths = (
{
closed = 1;
nodes = (
"138 367 OFFCURVE",
"210 443 OFFCURVE",
"305 443 CURVE SMOOTH",
"358 443 OFFCURVE",
"422 405 OFFCURVE",
"453 360 CURVE",
"510 430 LINE",
"472 493 OFFCURVE",
"392 536 OFFCURVE",
"295 536 CURVE",
"150 536 OFFCURVE",
"40 418 OFFCURVE",
"40 263 CURVE SMOOTH",
"40 108 OFFCURVE",
"150 -10 OFFCURVE",
"295 -10 CURVE",
"387 -10 OFFCURVE",
"471 38 OFFCURVE",
"510 93 CURVE",
"453 163 LINE",
"422 125 OFFCURVE",
"373 83 OFFCURVE",
"306 83 CURVE",
"217 83 OFFCURVE",
"138 159 OFFCURVE",
"138 263 CURVE SMOOTH"
);
}
);
width = 535;
},
{
anchors = (
{
name = bottom;
position = "{435, 0}";
},
{
name = top;
position = "{455, 525}";
}
);
layerId = "950578AD-3C55-42C9-B412-F732192F54B4";
paths = (
{
closed = 1;
nodes = (
"238 367 OFFCURVE",
"325 443 OFFCURVE",
"455 443 CURVE SMOOTH",
"541 443 OFFCURVE",
"637 402 OFFCURVE",
"692 350 CURVE",
"750 434 LINE",
"690 498 OFFCURVE",
"578 536 OFFCURVE",
"455 536 CURVE",
"270 536 OFFCURVE",
"130 418 OFFCURVE",
"130 263 CURVE SMOOTH",
"130 108 OFFCURVE",
"270 -10 OFFCURVE",
"455 -10 CURVE",
"581 -10 OFFCURVE",
"675 30 OFFCURVE",
"750 76 CURVE",
"694 156 LINE",
"638 123 OFFCURVE",
"564 83 OFFCURVE",
"456 83 CURVE",
"334 83 OFFCURVE",
"238 159 OFFCURVE",
"238 263 CURVE SMOOTH"
);
}
);
width = 880;
}
);
leftKerningGroup = c;
leftMetricsKey = o;
note = c;
rightKerningGroup = c;
unicode = 0063;
},
{
glyphname = d;
lastChange = "2018-11-20 16:01:53 +0000";
layers = (
{
anchors = (
{
name = bottom;
position = "{321, -20}";
},
{
name = center;
position = "{486, 614}";
},
{
name = top;
position = "{321, 530}";
},
{
name = topright;
position = "{608, 510}";
}
);
layerId = "3D0525B3-6B2A-4787-8D58-1F6DD6CCA7DC";
paths = (
{
closed = 1;
nodes = (
"461 740 LINE",
"461 389 LINE",
"491 391 LINE",
"491 452 OFFCURVE",
"403 536 OFFCURVE",
"288 536 CURVE",
"149 536 OFFCURVE",
"40 423 OFFCURVE",
"40 263 CURVE",
"40 104 OFFCURVE",
"149 -10 OFFCURVE",
"291 -10 CURVE",
"398 -10 OFFCURVE",
"481 74 OFFCURVE",
"481 125 CURVE",
"461 125 LINE",
"461 0 LINE",
"564 0 LINE",
"564 740 LINE"
);
},
{
closed = 1;
nodes = (
"211 79 OFFCURVE",
"145 158 OFFCURVE",
"145 263 CURVE",
"145 368 OFFCURVE",
"211 447 OFFCURVE",
"305 447 CURVE",
"400 447 OFFCURVE",
"465 368 OFFCURVE",
"465 263 CURVE",
"465 158 OFFCURVE",
"400 79 OFFCURVE",
"305 79 CURVE"
);
}
);
width = 634;
},
{
anchors = (
{
name = bottom;
position = "{492, 0}";
},
{
name = center;
position = "{721, 616}";
},
{
name = top;
position = "{492, 740}";
},
{
name = topright;
position = "{964, 525}";
}
);
layerId = "950578AD-3C55-42C9-B412-F732192F54B4";
paths = (
{
closed = 1;
nodes = (
"681 740 LINE",
"681 389 LINE",
"711 391 LINE",
"711 454 OFFCURVE",
"593 536 OFFCURVE",
"438 536 CURVE",
"250 536 OFFCURVE",
"120 423 OFFCURVE",
"120 263 CURVE",
"120 104 OFFCURVE",
"241 -10 OFFCURVE",
"432 -10 CURVE",
"574 -10 OFFCURVE",
"701 76 OFFCURVE",
"701 137 CURVE",
"681 145 LINE",
"681 0 LINE",
"784 0 LINE",
"784 740 LINE"
);
},
{
closed = 1;
nodes = (
"320 85 OFFCURVE",
"225 161 OFFCURVE",
"225 263 CURVE",
"225 364 OFFCURVE",
"320 440 OFFCURVE",
"455 440 CURVE",
"592 440 OFFCURVE",
"685 364 OFFCURVE",
"685 263 CURVE",
"685 161 OFFCURVE",
"592 85 OFFCURVE",
"455 85 CURVE"
);
}
);
width = 964;
}
);
leftKerningGroup = c;
note = d;
rightKerningGroup = d;
unicode = 0064;
},
{
glyphname = eth;
lastChange = "2018-09-11 01:51:43 +0000";
layers = (
{
layerId = "3D0525B3-6B2A-4787-8D58-1F6DD6CCA7DC";
paths = (
{
closed = 1;
nodes = (
"424 -7 OFFCURVE",
"534 102 OFFCURVE",
"534 281 CURVE",
"534 598 OFFCURVE",
"333 710 OFFCURVE",
"211 740 CURVE",
"169 662 LINE",
"346 609 OFFCURVE",
"410 530 OFFCURVE",
"418 379 CURVE",
"468 348 LINE",
"449 447 OFFCURVE",
"384 528 OFFCURVE",
"275 528 CURVE",
"156 528 OFFCURVE",
"40 411 OFFCURVE",
"40 262 CURVE",
"40 112 OFFCURVE",
"149 -7 OFFCURVE",
"287 -7 CURVE"
);
},
{
closed = 1;
nodes = (
"203 89 OFFCURVE",
"137 165 OFFCURVE",
"137 262 CURVE",
"137 358 OFFCURVE",
"203 432 OFFCURVE",
"287 432 CURVE",
"372 432 OFFCURVE",
"437 355 OFFCURVE",
"437 262 CURVE",
"437 165 OFFCURVE",
"371 89 OFFCURVE",
"287 89 CURVE"
);
},
{
closed = 1;
nodes = (
"353 574 LINE",
"394 591 LINE",
"507 617 LINE",
"489 683 LINE",
"343 650 LINE",
"288 630 LINE",
"143 593 LINE",
"156 528 LINE"
);
}
);
width = 574;
},
{
layerId = "950578AD-3C55-42C9-B412-F732192F54B4";
paths = (
{
closed = 1;
nodes = (
"629 -7 OFFCURVE",
"774 102 OFFCURVE",
"774 283 CURVE SMOOTH",
"774 481 OFFCURVE",
"585 680 OFFCURVE",
"471 740 CURVE",
"419 672 LINE",
"550 582 OFFCURVE",
"664 457 OFFCURVE",
"664 335 CURVE",
"698 348 LINE",
"672 447 OFFCURVE",
"584 528 OFFCURVE",
"435 528 CURVE",
"264 528 OFFCURVE",
"130 411 OFFCURVE",
"130 262 CURVE",
"130 112 OFFCURVE",
"250 -7 OFFCURVE",
"447 -7 CURVE"
);
},
{
closed = 1;
nodes = (
"329 79 OFFCURVE",
"235 159 OFFCURVE",
"235 262 CURVE",
"235 364 OFFCURVE",
"325 442 OFFCURVE",
"437 442 CURVE",
"568 442 OFFCURVE",
"667 360 OFFCURVE",
"667 262 CURVE",
"667 159 OFFCURVE",
"570 79 OFFCURVE",
"447 79 CURVE"
);
},
{
closed = 1;
nodes = (
"583 574 LINE",
"624 591 LINE",
"737 597 LINE",
"719 663 LINE",
"573 650 LINE",
"518 630 LINE",
"373 613 LINE",
"386 548 LINE"
);
}
);
width = 904;
}
);
leftKerningGroup = c;
leftMetricsKey = o;
note = eth;
rightMetricsKey = o;
unicode = 00F0;
},
{
glyphname = e;
lastChange = "2018-09-11 01:44:51 +0000";
layers = (
{
anchors = (
{
name = bottom;
position = "{292, -20}";
},
{
name = ogonek;
position = "{521, 10}";
},
{
name = top;
position = "{293, 530}";
}
);
layerId = "3D0525B3-6B2A-4787-8D58-1F6DD6CCA7DC";
paths = (
{
closed = 1;
nodes = (
"472 144 LINE",
"442 118 OFFCURVE",
"400 84 OFFCURVE",
"327 84 CURVE",
"217 84 OFFCURVE",
"142 154 OFFCURVE",
"142 264 CURVE",
"142 395 OFFCURVE",
"215 442 OFFCURVE",
"308 442 CURVE",
"373 442 OFFCURVE",
"434 395 OFFCURVE",
"441 327 CURVE",
"441 303 LINE",
"456 320 LINE",
"93 320 LINE",
"116 238 LINE",
"545 238 LINE",
"546 282 LINE",
"546 433 OFFCURVE",
"440 536 OFFCURVE",
"308 537 CURVE",
"163 536 OFFCURVE",
"40 433 OFFCURVE",
"40 257 CURVE",
"40 102 OFFCURVE",
"153 -10 OFFCURVE",
"317 -10 CURVE",
"398 -10 OFFCURVE",
"479 28 OFFCURVE",
"522 69 CURVE",
"522 69 OFFCURVE",
"522 69 OFFCURVE",
"523 69 CURVE"
);
}
);
width = 586;
},
{
anchors = (
{
name = bottom;
position = "{466, 0}";
},
{
name = ogonek;
position = "{838, 10}";
},
{
name = top;
position = "{466, 525}";
}
);
layerId = "950578AD-3C55-42C9-B412-F732192F54B4";
paths = (
{
closed = 1;
nodes = (
"717 147 LINE",
"673 122 OFFCURVE",
"605 86 OFFCURVE",
"497 86 CURVE",
"333 86 OFFCURVE",
"222 155 OFFCURVE",
"222 264 CURVE",
"222 395 OFFCURVE",
"330 442 OFFCURVE",
"468 442 CURVE",
"572 442 OFFCURVE",
"670 395 OFFCURVE",
"681 327 CURVE",
"681 303 LINE",
"696 310 LINE",
"193 310 LINE",
"216 228 LINE",
"785 228 LINE",
"786 282 LINE",
"786 433 OFFCURVE",
"644 536 OFFCURVE",
"468 537 CURVE",
"280 536 OFFCURVE",
"120 433 OFFCURVE",
"120 257 CURVE",
"120 102 OFFCURVE",
"266 -10 OFFCURVE",
"477 -10 CURVE",
"590 -10 OFFCURVE",
"702 28 OFFCURVE",
"762 69 CURVE",
"762 69 OFFCURVE",
"762 69 OFFCURVE",
"763 69 CURVE"
);
}
);
width = 931;
}
);
leftKerningGroup = c;
note = e;
rightKerningGroup = e;
unicode = 0065;
},
{
glyphname = eogonek;
lastChange = "2018-09-11 01:50:52 +0000";
layers = (
{
layerId = "3D0525B3-6B2A-4787-8D58-1F6DD6CCA7DC";
paths = (
{
closed = 1;
nodes = (
"373 -10 OFFCURVE",
"471 56 OFFCURVE",
"493 95 CURVE",
"453 70 LINE",
"376 23 OFFCURVE",
"283 -33 OFFCURVE",
"283 -108 CURVE SMOOTH",
"283 -184 OFFCURVE",
"336 -221 OFFCURVE",
"403 -221 CURVE SMOOTH",
"451 -221 OFFCURVE",
"493 -200 OFFCURVE",
"527 -177 CURVE",
"488 -118 LINE",
"467 -133 OFFCURVE",
"443 -144 OFFCURVE",
"425 -144 CURVE SMOOTH",
"396 -144 OFFCURVE",
"376 -118 OFFCURVE",
"376 -90 CURVE SMOOTH",
"376 -29 OFFCURVE",
"446 11 OFFCURVE",
"523 69 CURVE",
"472 144 LINE",
"442 118 OFFCURVE",
"400 84 OFFCURVE",
"327 84 CURVE",
"217 84 OFFCURVE",
"142 154 OFFCURVE",
"142 264 CURVE",
"142 395 OFFCURVE",
"215 442 OFFCURVE",
"308 442 CURVE",
"373 442 OFFCURVE",
"434 395 OFFCURVE",
"441 327 CURVE",
"441 303 LINE",
"456 320 LINE",
"93 320 LINE",
"116 238 LINE",
"545 238 LINE",
"546 282 LINE",
"546 433 OFFCURVE",
"440 536 OFFCURVE",
"308 537 CURVE",
"163 536 OFFCURVE",
"40 433 OFFCURVE",
"40 257 CURVE",
"40 102 OFFCURVE",
"153 -10 OFFCURVE",
"317 -10 CURVE"
);
}
);
width = 586;
},
{
layerId = "950578AD-3C55-42C9-B412-F732192F54B4";
paths = (
{
closed = 1;
nodes = (
"585 -10 OFFCURVE",
"648 24 OFFCURVE",
"692 50 CURVE",
"670 71 LINE",
"593 8 OFFCURVE",
"523 -38 OFFCURVE",
"523 -108 CURVE SMOOTH",
"523 -184 OFFCURVE",
"576 -221 OFFCURVE",
"643 -221 CURVE SMOOTH",
"691 -221 OFFCURVE",
"733 -200 OFFCURVE",
"767 -177 CURVE",
"728 -118 LINE",
"707 -133 OFFCURVE",
"683 -144 OFFCURVE",
"665 -144 CURVE SMOOTH",
"636 -144 OFFCURVE",
"616 -118 OFFCURVE",
"616 -90 CURVE SMOOTH",
"616 -28 OFFCURVE",
"686 13 OFFCURVE",
"763 69 CURVE",
"712 149 LINE",
"668 123 OFFCURVE",
"605 84 OFFCURVE",
"497 84 CURVE",
"333 84 OFFCURVE",
"222 154 OFFCURVE",
"222 264 CURVE",
"222 395 OFFCURVE",
"330 442 OFFCURVE",
"468 442 CURVE",
"572 442 OFFCURVE",
"670 395 OFFCURVE",
"681 327 CURVE",
"681 303 LINE",
"696 310 LINE",
"193 310 LINE",
"216 228 LINE",
"785 228 LINE",
"786 282 LINE",
"786 433 OFFCURVE",
"644 536 OFFCURVE",
"468 537 CURVE",
"280 536 OFFCURVE",
"120 433 OFFCURVE",
"120 257 CURVE",
"120 102 OFFCURVE",
"266 -10 OFFCURVE",
"477 -10 CURVE SMOOTH"
);
}
);
width = 931;
}
);
leftKerningGroup = c;
leftMetricsKey = e;
note = eogonek;
rightKerningGroup = e;
rightMetricsKey = e;
unicode = 0119;
},
{
glyphname = f;
lastChange = "2018-09-11 01:53:19 +0000";
layers = (
{
anchors = (
{
name = bottom;
position = "{197, 0}";
},
{
name = top;
position = "{197, 510}";
}
);
layerId = "3D0525B3-6B2A-4787-8D58-1F6DD6CCA7DC";
paths = (
{
closed = 1;
nodes = (
"357 516 LINE",
"45 516 LINE",
"45 421 LINE",
"357 421 LINE"
);
},
{
closed = 1;
nodes = (
"390 695 LINE",
"374 714 OFFCURVE",
"338 739 OFFCURVE",
"285 739 CURVE SMOOTH",
"193 739 OFFCURVE",
"129 675 OFFCURVE",
"129 584 CURVE SMOOTH",
"129 0 LINE SMOOTH",
"129 0 OFFCURVE",
"233 0 OFFCURVE",
"233 0 CURVE SMOOTH",
"233 584 LINE SMOOTH",
"233 617 OFFCURVE",
"249 643 OFFCURVE",
"297 643 CURVE SMOOTH",
"318 643 OFFCURVE",
"341 629 OFFCURVE",
"355 616 CURVE"
);
}
);
width = 393;
},
{
anchors = (
{
name = bottom;
position = "{365, 0}";
},
{
name = top;
position = "{941, 506}";
}
);
layerId = "950578AD-3C55-42C9-B412-F732192F54B4";
paths = (
{
closed = 1;
nodes = (
"597 506 LINE",
"145 506 LINE",
"145 411 LINE",
"597 411 LINE"
);
},
{
closed = 1;
nodes = (
"630 695 LINE",
"608 714 OFFCURVE",
"558 739 OFFCURVE",
"485 739 CURVE SMOOTH",
"358 739 OFFCURVE",
"269 650 OFFCURVE",
"269 524 CURVE SMOOTH",
"269 0 LINE SMOOTH",
"269 0 OFFCURVE",
"363 0 OFFCURVE",
"363 0 CURVE SMOOTH",
"363 524 LINE SMOOTH",
"363 586 OFFCURVE",
"397 643 OFFCURVE",
"497 643 CURVE SMOOTH",
"532 643 OFFCURVE",
"571 624 OFFCURVE",
"595 606 CURVE"
);
}
);
width = 730;
}
);
leftKerningGroup = f;
note = f;
rightKerningGroup = f;
unicode = 0066;
},
{
glyphname = g;
lastChange = "2018-09-11 01:44:02 +0000";
layers = (
{
anchors = (
{
name = bottom;
position = "{327, 0}";
},
{
name = top;
position = "{327, 535}";
}
);
layerId = "3D0525B3-6B2A-4787-8D58-1F6DD6CCA7DC";
paths = (
{
closed = 1;
nodes = (
"106 -167 LINE",
"151 -204 OFFCURVE",
"232 -230 OFFCURVE",
"307 -230 CURVE",
"451 -230 OFFCURVE",
"577 -156 OFFCURVE",
"577 32 CURVE",
"577 525 LINE",
"474 525 LINE",
"474 402 LINE",
"496 400 LINE",
"496 449 OFFCURVE",
"411 536 OFFCURVE",
"297 536 CURVE",
"153 536 OFFCURVE",
"40 423 OFFCURVE",
"40 263 CURVE",
"40 104 OFFCURVE",
"153 -10 OFFCURVE",
"300 -10 CURVE",
"393 -10 OFFCURVE",
"476 57 OFFCURVE",
"485 114 CURVE",
"474 121 LINE",
"474 20 LINE",
"474 -86 OFFCURVE",
"415 -138 OFFCURVE",
"307 -138 CURVE",
"249 -138 OFFCURVE",
"184 -118 OFFCURVE",
"144 -87 CURVE"
);
},
{
closed = 1;
nodes = (
"410 442 OFFCURVE",
"478 366 OFFCURVE",
"478 263 CURVE",
"478 160 OFFCURVE",
"410 85 OFFCURVE",
"311 85 CURVE",
"214 85 OFFCURVE",
"145 161 OFFCURVE",
"145 263 CURVE",
"145 365 OFFCURVE",
"214 442 OFFCURVE",
"311 442 CURVE"
);
}
);
width = 649;
},
{
anchors = (
{
name = bottom;
position = "{511, -230}";
},
{
name = top;
position = "{511, 525}";
}
);
layerId = "950578AD-3C55-42C9-B412-F732192F54B4";
paths = (
{
closed = 1;
nodes = (
"240 -167 LINE",
"292 -200 OFFCURVE",
"377 -230 OFFCURVE",
"499 -230 CURVE",
"653 -230 OFFCURVE",
"801 -135 OFFCURVE",
"801 72 CURVE",
"801 525 LINE",
"698 525 LINE",
"698 402 LINE",
"720 410 LINE",
"720 455 OFFCURVE",
"605 536 OFFCURVE",
"451 536 CURVE",
"261 536 OFFCURVE",
"130 423 OFFCURVE",
"130 263 CURVE SMOOTH",
"130 104 OFFCURVE",
"252 -10 OFFCURVE",
"434 -10 CURVE",
"572 -10 OFFCURVE",
"696 57 OFFCURVE",
"709 114 CURVE",
"698 121 LINE",
"698 60 LINE",
"698 -67 OFFCURVE",
"615 -138 OFFCURVE",
"499 -138 CURVE",
"394 -138 OFFCURVE",
"320 -103 OFFCURVE",
"276 -81 CURVE"
);
},
{
closed = 1;
nodes = (
"610 442 OFFCURVE",
"702 366 OFFCURVE",
"702 263 CURVE",
"702 160 OFFCURVE",
"610 85 OFFCURVE",
"475 85 CURVE",
"335 85 OFFCURVE",
"235 161 OFFCURVE",
"235 263 CURVE",
"235 365 OFFCURVE",
"335 442 OFFCURVE",
"475 442 CURVE"
);
}
);
width = 1001;
}
);
leftKerningGroup = g;
leftMetricsKey = o;
note = g;
rightKerningGroup = g;
unicode = 0067;
},
{
glyphname = h;
lastChange = "2018-10-02 22:32:20 +0000";
layers = (
{
anchors = (
{
name = bottom;
position = "{292, 0}";
},
{
name = center;
position = "{122, 593}";
},
{
name = top;
position = "{121, 729}";
}
);
layerId = "3D0525B3-6B2A-4787-8D58-1F6DD6CCA7DC";
paths = (
{
closed = 1;
nodes = (
"254 536 OFFCURVE",
"175 466 OFFCURVE",
"157 405 CURVE",
"175 417 LINE",
"175 740 LINE",
"72 740 LINE",
"72 0 LINE",
"72 0 OFFCURVE",
"175 0 OFFCURVE",
"175 0 CURVE",
"175 318 LINE",
"175 386 OFFCURVE",
"233 442 OFFCURVE",
"313 442 CURVE",
"398 447 OFFCURVE",
"424 389 OFFCURVE",
"424 313 CURVE",
"424 0 LINE",
"527 0 LINE",
"527 320 LINE",
"527 439 OFFCURVE",
"488 536 OFFCURVE",
"347 536 CURVE"
);
}
);
width = 595;
},
{
anchors = (
{
name = bottom;
position = "{508, 0}";
},
{
name = center;
position = "{276, 608}";
},
{
name = top;
position = "{265, 740}";
}
);
layerId = "950578AD-3C55-42C9-B412-F732192F54B4";
paths = (
{
closed = 1;
nodes = (
"423 536 OFFCURVE",
"311 450 OFFCURVE",
"285 375 CURVE",
"323 377 LINE",
"323 740 LINE",
"220 740 LINE",
"220 0 LINE",
"220 0 OFFCURVE",
"323 0 OFFCURVE",
"323 0 CURVE",
"323 278 LINE",
"323 346 OFFCURVE",
"406 443 OFFCURVE",
"521 443 CURVE SMOOTH",
"615 443 OFFCURVE",
"692 381 OFFCURVE",
"692 293 CURVE",
"692 0 LINE",
"795 0 LINE",
"795 310 LINE",
"795 434 OFFCURVE",
"715 536 OFFCURVE",
"555 536 CURVE"
);
}
);
width = 1015;
}
);
leftKerningGroup = b;
leftMetricsKey = n;
note = h;
rightKerningGroup = h;
rightMetricsKey = n;
unicode = 0068;
},
{
glyphname = idotless;
lastChange = "2018-09-11 01:38:07 +0000";
layers = (
{
anchors = (
{
name = bottom;
position = "{124, 0}";
},
{
name = ogonek;
position = "{208, 10}";
},
{
name = top;
position = "{124, 525}";
}
);
layerId = "3D0525B3-6B2A-4787-8D58-1F6DD6CCA7DC";
paths = (
{
closed = 1;
nodes = (
"175 525 LINE",
"72 525 LINE",
"72 0 LINE",
"121 0 LINE",
"175 0 LINE"
);
}
);
width = 243;
},
{
anchors = (
{
name = bottom;
position = "{252, 0}";
},
{
name = ogonek;
position = "{303, 0}";
},
{
name = top;
position = "{251, 525}";
}
);
layerId = "950578AD-3C55-42C9-B412-F732192F54B4";
paths = (
{
closed = 1;
nodes = (
"303 525 LINE",
"200 525 LINE",
"200 0 LINE",
"239 0 LINE",
"303 0 LINE"
);
}
);
width = 503;
}
);
leftKerningGroup = i;
note = dotlessi;
rightKerningGroup = i;
unicode = 0131;
},
{
glyphname = iogonek;
lastChange = "2018-09-06 13:41:45 +0000";
layers = (
{
components = (
{
name = dotaccentcomb;
transform = "{1, 0, 0, 1, 45, 0}";
}
);
layerId = "3D0525B3-6B2A-4787-8D58-1F6DD6CCA7DC";
paths = (
{
closed = 1;
nodes = (
"145 52 LINE",
"68 10 OFFCURVE",
"0 -43 OFFCURVE",
"0 -114 CURVE SMOOTH",
"0 -178 OFFCURVE",
"53 -221 OFFCURVE",
"120 -221 CURVE SMOOTH",
"164 -221 OFFCURVE",
"203 -200 OFFCURVE",
"234 -177 CURVE",
"195 -118 LINE",
"177 -133 OFFCURVE",
"157 -144 OFFCURVE",
"140 -144 CURVE SMOOTH",
"113 -144 OFFCURVE",
"93 -125 OFFCURVE",
"93 -102 CURVE SMOOTH",
"93 -63 OFFCURVE",
"137 -26 OFFCURVE",
"198 0 CURVE",
"198 525 LINE",
"95 525 LINE",
"95 7 LINE"
);
}
);
width = 289;
},
{
components = (
{
name = dotaccentcomb;
transform = "{1, 0, 0, 1, 133, 14}";
}
);
layerId = "950578AD-3C55-42C9-B412-F732192F54B4";
paths = (
{
closed = 1;
nodes = (
"233 35 LINE",
"158 -8 OFFCURVE",
"124 -45 OFFCURVE",
"124 -97 CURVE SMOOTH",
"124 -156 OFFCURVE",
"178 -200 OFFCURVE",
"233 -200 CURVE SMOOTH",
"287 -200 OFFCURVE",
"331 -166 OFFCURVE",
"342 -138 CURVE",
"286 -98 LINE",
"278 -111 OFFCURVE",
"266 -123 OFFCURVE",
"249 -123 CURVE SMOOTH",
"228 -123 OFFCURVE",
"215 -108 OFFCURVE",
"215 -87 CURVE SMOOTH",
"215 -48 OFFCURVE",
"269 -12 OFFCURVE",
"323 0 CURVE",
"323 525 LINE",
"200 525 LINE",
"200 -35 LINE"
);
}
);
width = 523;
}
);
leftKerningGroup = i;
note = iogonek;
rightKerningGroup = i;
unicode = 012F;
},
{
glyphname = jdotless;
lastChange = "2018-09-11 01:53:54 +0000";
layers = (
{
anchors = (
{
name = bottom;
position = "{151, 0}";
},
{
name = top;
position = "{138, 531}";
}
);
layerId = "3D0525B3-6B2A-4787-8D58-1F6DD6CCA7DC";
paths = (
{
closed = 1;
nodes = (
"188 -131 OFFCURVE",
"188 -24 CURVE SMOOTH",
"188 525 LINE",
"85 525 LINE",
"85 1 LINE SMOOTH",
"85 -73 OFFCURVE",
"50 -118 OFFCURVE",
"-31 -118 CURVE",
"8 -197 LINE",
"110 -197 OFFCURVE"
);
}
);
width = 263;
},
{
anchors = (
{
name = bottom;
position = "{255, -230}";
},
{
name = top;
position = "{340, 525}";
}
);
layerId = "950578AD-3C55-42C9-B412-F732192F54B4";
paths = (
{
closed = 1;
nodes = (
"389 -81 OFFCURVE",
"389 106 CURVE SMOOTH",
"389 525 LINE",
"286 525 LINE",
"286 131 LINE SMOOTH",
"286 -16 OFFCURVE",
"227 -105 OFFCURVE",
"90 -105 CURVE",
"129 -197 LINE",
"276 -197 OFFCURVE"
);
}
);
width = 599;
}
);
leftKerningGroup = j;
note = dotlessj;
rightKerningGroup = j;
unicode = 0237;
},
{
glyphname = k;
lastChange = "2020-01-04 17:57:58 +0000";
layers = (
{
anchors = (
{
name = bottom;
position = "{279, 0}";
},
{
name = top;
position = "{279, 510}";
}
);
layerId = "3D0525B3-6B2A-4787-8D58-1F6DD6CCA7DC";
paths = (
{
closed = 1;
nodes = (
"177 0 LINE",
"177 740 LINE",
"74 740 LINE",
"74 0 LINE"
);
},
{
closed = 1;
nodes = (
"414 525 LINE",
"163 276 LINE",
"168 164 LINE",
"553 525 LINE"
);
},
{
closed = 1;
nodes = (
"560 0 LINE",
"303 298 LINE",
"230 231 LINE",
"428 0 LINE"
);
}
);
width = 570;
},
{
anchors = (
{
name = bottom;
position = "{466, 0}";
},
{
name = top;
position = "{466, 740}";
}
);
layerId = "950578AD-3C55-42C9-B412-F732192F54B4";
paths = (
{
closed = 1;
nodes = (
"303 0 LINE",
"303 740 LINE",
"210 740 LINE",
"210 0 LINE"
);
},
{
closed = 1;
nodes = (
"668 525 LINE",
"299 246 LINE",
"287 134 LINE",
"812 525 LINE"
);
},
{
closed = 1;
nodes = (
"816 0 LINE",
"479 358 LINE",
"411 291 LINE",
"684 0 LINE"
);
}
);
width = 941;
}
);
leftKerningGroup = b;
leftMetricsKey = l;
note = k;
rightKerningGroup = k;
unicode = 006B;
},
{
glyphname = kgreenlandic;
lastChange = "2020-01-04 17:57:58 +0000";
layers = (
{
anchors = (
{
name = bottom;
position = "{295, 0}";
},
{
name = top;
position = "{295, 510}";
}
);
layerId = "3D0525B3-6B2A-4787-8D58-1F6DD6CCA7DC";
paths = (
{
closed = 1;
nodes = (
"171 0 LINE",
"171 525 LINE",
"74 525 LINE",
"74 0 LINE"
);
},
{
closed = 1;
nodes = (
"408 525 LINE",
"157 256 LINE",
"162 154 LINE",
"276 269 LINE",
"529 525 LINE"
);
},
{
closed = 1;
nodes = (
"534 -1 LINE",
"287 319 LINE",
"218 272 LINE",
"411 0 LINE"
);
}
);
width = 556;
},
{
anchors = (
{
name = bottom;
position = "{438, 0}";
},
{
name = top;
position = "{438, 525}";
}
);
layerId = "950578AD-3C55-42C9-B412-F732192F54B4";
paths = (
{
closed = 1;
nodes = (
"313 0 LINE",
"313 525 LINE",
"210 525 LINE",
"210 0 LINE"
);
},
{
closed = 1;
nodes = (
"660 525 LINE",
"299 240 LINE",
"299 143 LINE",
"461 275 LINE",
"811 525 LINE"
);
},
{
closed = 1;
nodes = (
"812 -1 LINE",
"495 329 LINE",
"420 282 LINE",
"683 0 LINE"
);
}
);
width = 897;
}
);
leftKerningGroup = b;
leftMetricsKey = l;
rightKerningGroup = k;
rightMetricsKey = v;
unicode = 0138;
},
{
glyphname = l;
lastChange = "2020-01-04 17:57:47 +0000";
layers = (
{
anchors = (
{
name = bottom;
position = "{122, 0}";
},
{
name = center;
position = "{122, 289}";
},
{
name = top;
position = "{123, 740}";
},
{
name = topright;
position = "{229, 580}";
}
);
layerId = "3D0525B3-6B2A-4787-8D58-1F6DD6CCA7DC";
paths = (
{
closed = 1;
nodes = (
"177 0 LINE",
"177 740 LINE",
"74 740 LINE",
"74 0 LINE"
);
}
);
width = 251;
},
{
anchors = (
{
name = bottom;
position = "{262, 0}";
},
{
name = center;
position = "{262, 370}";
},
{
name = top;
position = "{262, 740}";
},
{
name = topright;
position = "{503, 740}";
}
);
layerId = "950578AD-3C55-42C9-B412-F732192F54B4";
paths = (
{
closed = 1;
nodes = (
"313 0 LINE",
"313 740 LINE",
"210 740 LINE",
"210 0 LINE"
);
}
);
width = 523;
}
);
leftKerningGroup = b;
note = l;
rightKerningGroup = l;
unicode = 006C;
},
{
glyphname = lslash;
lastChange = "2018-06-06 11:39:19 +0000";
layers = (
{
components = (
{
name = l;
transform = "{1, 0, 0, 1, -2, 0}";
}
);
layerId = "3D0525B3-6B2A-4787-8D58-1F6DD6CCA7DC";
paths = (
{
closed = 1;
nodes = (
"31 292 LINE",
"256 394 LINE",
"220 468 LINE",
"-3 369 LINE"
);
}
);
width = 253;
},
{
components = (
{
name = l;
transform = "{1, 0, 0, 1, 106, 0}";
}
);
layerId = "950578AD-3C55-42C9-B412-F732192F54B4";
paths = (
{
closed = 1;
nodes = (
"201 294 LINE",
"575 389 LINE",
"546 478 LINE",
"175 386 LINE"
);
}
);
width = 750;
}
);
note = lslash;
unicode = 0142;
},
{
glyphname = m;
lastChange = "2018-09-11 01:48:46 +0000";
layers = (
{
anchors = (
{
name = bottom;
position = "{466, 0}";
},
{
name = top;
position = "{466, 510}";
}
);
layerId = "3D0525B3-6B2A-4787-8D58-1F6DD6CCA7DC";
paths = (
{
closed = 1;
nodes = (
"246 534 OFFCURVE",
"172 460 OFFCURVE",
"155 401 CURVE",
"174 413 LINE",
"174 525 LINE",
"70 525 LINE",
"70 0 LINE",
"174 0 LINE",
"174 316 LINE",
"174 383 OFFCURVE",
"229 439 OFFCURVE",
"306 439 CURVE",
"379 439 OFFCURVE",
"409 386 OFFCURVE",
"409 311 CURVE",
"409 0 LINE",
"513 0 LINE",
"513 314 LINE",
"513 383 OFFCURVE",
"568 439 OFFCURVE",
"646 439 CURVE",
"727 439 OFFCURVE",
"751 386 OFFCURVE",
"751 309 CURVE",
"751 0 LINE",
"855 0 LINE",
"855 315 LINE",
"855 436 OFFCURVE",
"816 534 OFFCURVE",
"680 534 CURVE",
"596 534 OFFCURVE",
"522 471 OFFCURVE",
"497 420 CURVE",
"490 403 LINE",
"506 399 LINE",
"488 481 OFFCURVE",
"436 534 OFFCURVE",
"339 534 CURVE"
);
}
);
width = 921;
},
{
anchors = (
{
name = bottom;
position = "{723, 0}";
},
{
name = top;
position = "{723, 525}";
}
);
layerId = "950578AD-3C55-42C9-B412-F732192F54B4";
paths = (
{
closed = 1;
nodes = (
"391 534 OFFCURVE",
"288 440 OFFCURVE",
"265 381 CURVE",
"304 373 LINE",
"304 525 LINE",
"200 525 LINE",
"200 0 LINE",
"304 0 LINE",
"304 276 LINE",
"304 343 OFFCURVE",
"384 439 OFFCURVE",
"496 439 CURVE",
"612 439 OFFCURVE",
"659 378 OFFCURVE",
"659 291 CURVE",
"659 0 LINE",
"763 0 LINE",
"763 254 LINE",
"763 356 OFFCURVE",
"858 439 OFFCURVE",
"981 439 CURVE",
"1081 439 OFFCURVE",
"1121 378 OFFCURVE",
"1121 289 CURVE",
"1121 0 LINE",
"1225 0 LINE",
"1225 305 LINE",
"1225 431 OFFCURVE",
"1171 534 OFFCURVE",
"997 534 CURVE",
"864 534 OFFCURVE",
"762 442 OFFCURVE",
"727 394 CURVE",
"720 377 LINE",
"756 369 LINE",
"748 482 OFFCURVE",
"657 534 OFFCURVE",
"547 534 CURVE"
);
}
);
width = 1425;
}
);
leftKerningGroup = m;
note = m;
rightKerningGroup = h;
unicode = 006D;
},
{
glyphname = n;
lastChange = "2018-09-25 00:55:18 +0000";
layers = (
{
anchors = (
{
name = bottom;
position = "{303, 0}";
},
{
name = top;
position = "{303, 510}";
}
);
layerId = "3D0525B3-6B2A-4787-8D58-1F6DD6CCA7DC";
paths = (
{
closed = 1;
nodes = (
"254 536 OFFCURVE",
"175 466 OFFCURVE",
"157 405 CURVE",
"175 417 LINE",
"175 525 LINE",
"72 525 LINE",
"72 0 LINE",
"72 0 OFFCURVE",
"175 0 OFFCURVE",
"175 0 CURVE",
"175 318 LINE",
"175 386 OFFCURVE",
"233 442 OFFCURVE",
"313 442 CURVE",
"398 447 OFFCURVE",
"424 389 OFFCURVE",
"424 313 CURVE",
"424 0 LINE",
"527 0 LINE",
"527 320 LINE",
"527 439 OFFCURVE",
"488 536 OFFCURVE",
"347 536 CURVE"
);
}
);
width = 595;
},
{
anchors = (
{
name = bottom;
position = "{508, 0}";
},
{
name = top;
position = "{528, 525}";
}
);
layerId = "950578AD-3C55-42C9-B412-F732192F54B4";
paths = (
{
closed = 1;
nodes = (
"418 536 OFFCURVE",
"330 450 OFFCURVE",
"285 375 CURVE",
"323 377 LINE",
"323 525 LINE",
"220 525 LINE",
"220 0 LINE",
"220 0 OFFCURVE",
"323 0 OFFCURVE",
"323 0 CURVE",
"323 278 LINE",
"323 346 OFFCURVE",
"406 440 OFFCURVE",
"521 440 CURVE SMOOTH",
"615 440 OFFCURVE",
"692 380 OFFCURVE",
"692 293 CURVE",
"692 0 LINE",
"795 0 LINE",
"795 310 LINE",
"795 434 OFFCURVE",
"711 536 OFFCURVE",
"545 536 CURVE"
);
}
);
width = 1015;
}
);
leftKerningGroup = m;
note = n;
rightKerningGroup = h;
unicode = 006E;
},
{
glyphname = eng;
lastChange = "2018-10-22 16:53:50 +0000";
layers = (
{
anchors = (
{
name = bottom;
position = "{286, 0}";
},
{
name = top;
position = "{295, 510}";
}
);
components = (
{
name = n;
}
);
layerId = "3D0525B3-6B2A-4787-8D58-1F6DD6CCA7DC";
paths = (
{
closed = 1;
nodes = (
"424 -73 OFFCURVE",
"389 -118 OFFCURVE",
"308 -118 CURVE",
"347 -197 LINE",
"449 -197 OFFCURVE",
"527 -131 OFFCURVE",
"527 -24 CURVE SMOOTH",
"527 25 LINE",
"424 1 LINE"
);
}
);
width = 595;
},
{
anchors = (
{
name = bottom;
position = "{497, 0}";
},
{
name = top;
position = "{506, 510}";
}
);
components = (
{
name = n;
}
);
layerId = "950578AD-3C55-42C9-B412-F732192F54B4";
paths = (
{
closed = 1;
nodes = (
"692 -65 OFFCURVE",
"636 -105 OFFCURVE",
"506 -105 CURVE",
"545 -197 LINE",
"687 -197 OFFCURVE",
"795 -131 OFFCURVE",
"795 -25 CURVE",
"795 14 LINE",
"692 0 LINE"
);
}
);
width = 1015;
}
);
leftKerningGroup = m;
leftMetricsKey = n;
note = eng;
rightKerningGroup = h;
rightMetricsKey = n;
unicode = 014B;
},
{
glyphname = nhookleft;
lastChange = "2018-10-02 22:32:20 +0000";
layers = (
{
components = (
{
name = n;
transform = "{1, 0, 0, 1, 15, 0}";
}
);
layerId = "3D0525B3-6B2A-4787-8D58-1F6DD6CCA7DC";
paths = (
{
closed = 1;
nodes = (
"85 -73 OFFCURVE",
"50 -118 OFFCURVE",
"-31 -118 CURVE",
"8 -197 LINE",
"110 -197 OFFCURVE",
"188 -131 OFFCURVE",
"188 -24 CURVE SMOOTH",
"188 25 LINE",
"85 1 LINE"
);
}
);
width = 610;
},
{
components = (
{
name = n;
transform = "{1, 0, 0, 1, 76, 0}";
}
);
layerId = "950578AD-3C55-42C9-B412-F732192F54B4";
paths = (
{
closed = 1;
nodes = (
"296 -65 OFFCURVE",
"234 -105 OFFCURVE",
"90 -105 CURVE",
"129 -197 LINE",
"282 -197 OFFCURVE",
"399 -131 OFFCURVE",
"399 -25 CURVE",
"399 14 LINE",
"296 0 LINE"
);
}
);
width = 1091;
}
);
leftMetricsKey = j;
rightKerningGroup = h;
rightMetricsKey = n;
unicode = 0272;
},
{
glyphname = o;
lastChange = "2018-09-11 01:37:09 +0000";
layers = (
{
anchors = (
{
name = bottom;
position = "{305, 0}";
},
{
name = center;
position = "{305, 256}";
},
{
name = ogonek;
position = "{547, 10}";
},
{
name = top;
position = "{305, 513}";
},
{
name = topright;
position = "{319, 531}";
}
);
layerId = "3D0525B3-6B2A-4787-8D58-1F6DD6CCA7DC";
paths = (
{
closed = 1;
nodes = (
"575 423 OFFCURVE",
"458 536 OFFCURVE",
"308 536 CURVE",
"157 536 OFFCURVE",
"40 423 OFFCURVE",
"40 263 CURVE",
"40 103 OFFCURVE",
"157 -10 OFFCURVE",
"308 -10 CURVE",
"458 -10 OFFCURVE",
"575 103 OFFCURVE",
"575 263 CURVE"
);
},
{
closed = 1;
nodes = (
"472 158 OFFCURVE",
"400 84 OFFCURVE",
"308 84 CURVE",
"216 84 OFFCURVE",
"143 158 OFFCURVE",
"145 263 CURVE",
"143 369 OFFCURVE",
"216 442 OFFCURVE",
"308 442 CURVE",
"400 442 OFFCURVE",
"472 369 OFFCURVE",
"470 263 CURVE"
);
}
);
width = 615;
},
{
anchors = (
{
name = bottom;
position = "{478, 0}";
},
{
name = center;
position = "{478, 263}";
},
{
name = ogonek;
position = "{860, 10}";
},
{
name = top;
position = "{478, 525}";
},
{
name = topright;
position = "{596, 475}";
}
);
layerId = "950578AD-3C55-42C9-B412-F732192F54B4";
paths = (
{
closed = 1;
nodes = (
"825 423 OFFCURVE",
"683 536 OFFCURVE",
"478 536 CURVE",
"272 536 OFFCURVE",
"130 423 OFFCURVE",
"130 263 CURVE",
"130 103 OFFCURVE",
"272 -10 OFFCURVE",
"478 -10 CURVE",
"683 -10 OFFCURVE",
"825 103 OFFCURVE",
"825 263 CURVE"
);
},
{
closed = 1;
nodes = (
"723 158 OFFCURVE",
"615 84 OFFCURVE",
"478 84 CURVE",
"341 84 OFFCURVE",
"232 158 OFFCURVE",
"235 263 CURVE",
"232 369 OFFCURVE",
"341 442 OFFCURVE",
"478 442 CURVE",
"615 442 OFFCURVE",
"723 369 OFFCURVE",
"720 263 CURVE"
);
}
);
width = 955;
}
);
leftKerningGroup = c;
note = o;
rightKerningGroup = b;
unicode = 006F;
},
{
glyphname = oogonek;
lastChange = "2018-09-11 01:56:06 +0000";
layers = (
{
layerId = "3D0525B3-6B2A-4787-8D58-1F6DD6CCA7DC";
paths = (
{
closed = 1;
nodes = (
"210 79 OFFCURVE",
"136 155 OFFCURVE",
"136 263 CURVE",
"136 372 OFFCURVE",
"210 447 OFFCURVE",
"304 447 CURVE",
"398 447 OFFCURVE",
"471 372 OFFCURVE",
"471 263 CURVE",
"471 155 OFFCURVE",
"398 79 OFFCURVE",
"304 79 CURVE"
);
},
{
closed = 1;
nodes = (
"326 -10 OFFCURVE",
"388 19 OFFCURVE",
"403 31 CURVE",
"408 78 LINE",
"338 57 OFFCURVE",
"250 14 OFFCURVE",
"250 -91 CURVE",
"250 -165 OFFCURVE",
"303 -201 OFFCURVE",
"356 -201 CURVE",
"410 -201 OFFCURVE",
"450 -164 OFFCURVE",
"467 -133 CURVE",
"422 -89 LINE",
"410 -107 OFFCURVE",
"392 -124 OFFCURVE",
"370 -124 CURVE",
"352 -124 OFFCURVE",
"331 -106 OFFCURVE",
"331 -73 CURVE",
"331 -34 OFFCURVE",
"370 -6 OFFCURVE",
"421 19 CURVE",
"510 58 OFFCURVE",
"568 149 OFFCURVE",
"568 263 CURVE",
"568 423 OFFCURVE",
"452 536 OFFCURVE",
"304 536 CURVE",
"155 536 OFFCURVE",
"39 423 OFFCURVE",
"39 263 CURVE",
"39 103 OFFCURVE",
"155 -10 OFFCURVE",
"304 -10 CURVE"
);
}
);
width = 607;
},
{
layerId = "950578AD-3C55-42C9-B412-F732192F54B4";
paths = (
{
closed = 1;
nodes = (
"341 84 OFFCURVE",
"232 158 OFFCURVE",
"235 263 CURVE",
"232 369 OFFCURVE",
"341 442 OFFCURVE",
"478 442 CURVE",
"615 442 OFFCURVE",
"723 369 OFFCURVE",
"720 263 CURVE",
"723 158 OFFCURVE",
"615 84 OFFCURVE",
"478 84 CURVE"
);
},
{
closed = 1;
nodes = (
"540 -10 OFFCURVE",
"586 4 OFFCURVE",
"634 23 CURVE",
"629 78 LINE",
"559 57 OFFCURVE",
"467 14 OFFCURVE",
"467 -91 CURVE",
"467 -165 OFFCURVE",
"524 -201 OFFCURVE",
"577 -201 CURVE",
"631 -201 OFFCURVE",
"671 -164 OFFCURVE",
"688 -133 CURVE",
"643 -89 LINE",
"631 -107 OFFCURVE",
"613 -124 OFFCURVE",
"591 -124 CURVE",
"573 -124 OFFCURVE",
"548 -106 OFFCURVE",
"548 -73 CURVE",
"548 -34 OFFCURVE",
"593 -6 OFFCURVE",
"646 19 CURVE SMOOTH",
"754 70 OFFCURVE",
"825 152 OFFCURVE",
"825 263 CURVE",
"825 423 OFFCURVE",
"683 536 OFFCURVE",
"478 536 CURVE",
"272 536 OFFCURVE",
"130 423 OFFCURVE",
"130 263 CURVE",
"130 103 OFFCURVE",
"272 -10 OFFCURVE",
"478 -10 CURVE"
);
}
);
width = 955;
}
);
leftKerningGroup = c;
rightKerningGroup = b;
unicode = 01EB;
},
{
glyphname = oslash;
lastChange = "2018-10-22 16:53:04 +0000";
layers = (
{
anchors = (
{
name = top;
position = "{305, 530}";
}
);
components = (
{
name = o;
}
);
layerId = "3D0525B3-6B2A-4787-8D58-1F6DD6CCA7DC";
paths = (
{
closed = 1;
nodes = (
"107 -35 LINE",
"561 496 LINE",
"494 545 LINE",
"41 13 LINE"
);
}
);
width = 615;
},
{
anchors = (
{
name = top;
position = "{465, 530}";
}
);
components = (
{
name = o;
}
);
layerId = "950578AD-3C55-42C9-B412-F732192F54B4";
paths = (
{
closed = 1;
nodes = (
"198 -15 LINE",
"800 476 LINE",
"743 536 LINE",
"141 43 LINE"
);
}
);
width = 955;
}
);
leftKerningGroup = o;
leftMetricsKey = o;
note = oslash;
rightKerningGroup = b;
rightMetricsKey = o;
unicode = 00F8;
},
{
glyphname = p;
lastChange = "2018-10-02 22:32:20 +0000";
layers = (
{
anchors = (
{
name = bottom;
position = "{317, 0}";
},
{
name = top;
position = "{317, 510}";
}
);
layerId = "3D0525B3-6B2A-4787-8D58-1F6DD6CCA7DC";
paths = (
{
closed = 1;
nodes = (
"252 534 OFFCURVE",
"171 467 OFFCURVE",
"160 414 CURVE",
"176 405 LINE",
"176 526 LINE",
"72 526 LINE",
"72 -220 LINE",
"176 -220 LINE",
"176 131 LINE",
"150 117 LINE",
"162 65 OFFCURVE",
"245 -9 OFFCURVE",
"349 -9 CURVE",
"485 -9 OFFCURVE",
"591 104 OFFCURVE",
"591 263 CURVE",
"591 422 OFFCURVE",
"486 534 OFFCURVE",
"346 534 CURVE"
);
},
{
closed = 1;
nodes = (
"426 439 OFFCURVE",
"492 364 OFFCURVE",
"492 263 CURVE",
"492 163 OFFCURVE",
"426 86 OFFCURVE",
"332 86 CURVE",
"237 86 OFFCURVE",
"171 163 OFFCURVE",
"171 263 CURVE",
"171 364 OFFCURVE",
"237 439 OFFCURVE",
"332 439 CURVE"
);
}
);
width = 631;
},
{
anchors = (
{
name = bottom;
position = "{505, 0}";
},
{
name = top;
position = "{505, 525}";
}
);
layerId = "950578AD-3C55-42C9-B412-F732192F54B4";
paths = (
{
closed = 1;
nodes = (
"435 534 OFFCURVE",
"323 467 OFFCURVE",
"308 414 CURVE",
"324 405 LINE",
"324 526 LINE",
"220 526 LINE",
"220 -220 LINE",
"324 -220 LINE",
"324 131 LINE",
"298 117 LINE",
"314 65 OFFCURVE",
"426 -9 OFFCURVE",
"567 -9 CURVE",
"752 -9 OFFCURVE",
"879 104 OFFCURVE",
"879 263 CURVE",
"879 422 OFFCURVE",
"754 534 OFFCURVE",
"564 534 CURVE"
);
},
{
closed = 1;
nodes = (
"685 439 OFFCURVE",
"780 364 OFFCURVE",
"780 263 CURVE",
"780 163 OFFCURVE",
"685 86 OFFCURVE",
"550 86 CURVE",
"414 86 OFFCURVE",
"319 163 OFFCURVE",
"319 263 CURVE",
"319 364 OFFCURVE",
"414 439 OFFCURVE",
"550 439 CURVE"
);
}
);
width = 1009;
}
);
leftKerningGroup = p;
leftMetricsKey = n;
note = p;
rightKerningGroup = b;
rightMetricsKey = o;
unicode = 0070;
},
{
glyphname = thorn;
lastChange = "2018-10-02 22:32:20 +0000";
layers = (
{
anchors = (
{
name = bottom;
position = "{284, 0}";
},
{
name = top;
position = "{284, 499}";
}
);
layerId = "3D0525B3-6B2A-4787-8D58-1F6DD6CCA7DC";
paths = (
{
closed = 1;
nodes = (
"252 534 OFFCURVE",
"171 467 OFFCURVE",
"160 414 CURVE",
"176 405 LINE",
"176 740 LINE",
"72 740 LINE",
"72 -220 LINE",
"176 -220 LINE",
"176 131 LINE",
"150 117 LINE",
"162 65 OFFCURVE",
"245 -9 OFFCURVE",
"349 -9 CURVE",
"485 -9 OFFCURVE",
"591 104 OFFCURVE",
"591 263 CURVE",
"591 422 OFFCURVE",
"486 534 OFFCURVE",
"346 534 CURVE"
);
},
{
closed = 1;
nodes = (
"426 439 OFFCURVE",
"492 364 OFFCURVE",
"492 263 CURVE",
"492 163 OFFCURVE",
"426 86 OFFCURVE",
"332 86 CURVE",
"237 86 OFFCURVE",
"171 163 OFFCURVE",
"171 263 CURVE",
"171 364 OFFCURVE",
"237 439 OFFCURVE",
"332 439 CURVE"
);
}
);
width = 631;
},
{
anchors = (
{
name = bottom;
position = "{505, 0}";
},
{
name = top;
position = "{505, 525}";
}
);
layerId = "950578AD-3C55-42C9-B412-F732192F54B4";
paths = (
{
closed = 1;
nodes = (
"435 534 OFFCURVE",
"323 467 OFFCURVE",
"308 414 CURVE",
"324 405 LINE",
"324 740 LINE",
"220 740 LINE",
"220 -220 LINE",
"324 -220 LINE",
"324 131 LINE",
"298 117 LINE",
"314 65 OFFCURVE",
"426 -9 OFFCURVE",
"567 -9 CURVE",
"742 -9 OFFCURVE",
"879 104 OFFCURVE",
"879 263 CURVE",
"879 422 OFFCURVE",
"744 534 OFFCURVE",
"564 534 CURVE"
);
},
{
closed = 1;
nodes = (
"685 439 OFFCURVE",
"780 364 OFFCURVE",
"780 263 CURVE",
"780 163 OFFCURVE",
"685 86 OFFCURVE",
"550 86 CURVE",
"414 86 OFFCURVE",
"319 163 OFFCURVE",
"319 263 CURVE",
"319 364 OFFCURVE",
"414 439 OFFCURVE",
"550 439 CURVE"
);
}
);
width = 1009;
}
);
leftMetricsKey = p;
note = thorn;
rightKerningGroup = b;
rightMetricsKey = p;
unicode = 00FE;
},
{
glyphname = q;
lastChange = "2018-11-20 16:02:17 +0000";
layers = (
{
anchors = (
{
name = bottom;
position = "{315, 0}";
},
{
name = top;
position = "{315, 510}";
}
);
layerId = "3D0525B3-6B2A-4787-8D58-1F6DD6CCA7DC";
paths = (
{
closed = 1;
nodes = (
"455 526 LINE",
"455 389 LINE",
"485 391 LINE",
"485 452 OFFCURVE",
"398 536 OFFCURVE",
"285 536 CURVE",
"148 536 OFFCURVE",
"40 423 OFFCURVE",
"40 263 CURVE",
"40 104 OFFCURVE",
"148 -10 OFFCURVE",
"288 -10 CURVE",
"393 -10 OFFCURVE",
"475 74 OFFCURVE",
"475 125 CURVE",
"455 125 LINE",
"455 -220 LINE",
"558 -220 LINE",
"558 526 LINE"
);
},
{
closed = 1;
nodes = (
"205 85 OFFCURVE",
"139 161 OFFCURVE",
"139 263 CURVE",
"139 365 OFFCURVE",
"205 442 OFFCURVE",
"299 442 CURVE",
"394 442 OFFCURVE",
"459 365 OFFCURVE",
"459 263 CURVE",
"459 161 OFFCURVE",
"394 85 OFFCURVE",
"299 85 CURVE"
);
}
);
width = 630;
},
{
anchors = (
{
name = bottom;
position = "{499, 0}";
},
{
name = top;
position = "{499, 525}";
}
);
layerId = "950578AD-3C55-42C9-B412-F732192F54B4";
paths = (
{
closed = 1;
nodes = (
"681 525 LINE",
"681 389 LINE",
"711 391 LINE",
"711 454 OFFCURVE",
"593 536 OFFCURVE",
"438 536 CURVE",
"250 536 OFFCURVE",
"120 423 OFFCURVE",
"120 263 CURVE",
"120 104 OFFCURVE",
"241 -10 OFFCURVE",
"432 -10 CURVE",
"574 -10 OFFCURVE",
"701 76 OFFCURVE",
"701 137 CURVE",
"681 145 LINE",
"681 -230 LINE",
"784 -230 LINE",
"784 525 LINE"
);
},
{
closed = 1;
nodes = (
"320 85 OFFCURVE",
"225 161 OFFCURVE",
"225 263 CURVE",
"225 364 OFFCURVE",
"320 440 OFFCURVE",
"455 440 CURVE",
"592 440 OFFCURVE",
"685 364 OFFCURVE",
"685 263 CURVE",
"685 161 OFFCURVE",
"592 85 OFFCURVE",
"455 85 CURVE"
);
}
);
width = 978;
}
);
leftKerningGroup = c;
note = q;
rightKerningGroup = q;
unicode = 0071;
},
{
glyphname = r;
lastChange = "2018-10-02 22:32:20 +0000";
layers = (
{
anchors = (
{
name = bottom;
position = "{126, 0}";
},
{
name = top;
position = "{217, 510}";
}
);
layerId = "3D0525B3-6B2A-4787-8D58-1F6DD6CCA7DC";
paths = (
{
closed = 1;
nodes = (
"393 526 LINE",
"381 532 OFFCURVE",
"358 536 OFFCURVE",
"336 536 CURVE",
"262 536 OFFCURVE",
"188 476 OFFCURVE",
"166 400 CURVE",
"176 360 LINE",
"176 525 LINE",
"72 525 LINE",
"72 0 LINE",
"176 0 LINE",
"176 290 LINE",
"176 373 OFFCURVE",
"247 426 OFFCURVE",
"311 426 CURVE SMOOTH",
"332 426 OFFCURVE",
"353 420 OFFCURVE",
"366 414 CURVE"
);
}
);
width = 403;
},
{
anchors = (
{
name = bottom;
position = "{267, 0}";
},
{
name = top;
position = "{391, 525}";
}
);
layerId = "950578AD-3C55-42C9-B412-F732192F54B4";
paths = (
{
closed = 1;
nodes = (
"661 506 LINE",
"634 525 OFFCURVE",
"583 536 OFFCURVE",
"534 536 CURVE",
"430 536 OFFCURVE",
"325 449 OFFCURVE",
"294 340 CURVE",
"324 334 LINE",
"324 525 LINE",
"220 525 LINE",
"220 0 LINE",
"324 0 LINE",
"324 260 LINE",
"324 339 OFFCURVE",
"399 428 OFFCURVE",
"519 428 CURVE SMOOTH",
"557 428 OFFCURVE",
"604 417 OFFCURVE",
"634 400 CURVE"
);
}
);
width = 781;
}
);
leftKerningGroup = m;
leftMetricsKey = n;
note = r;
rightKerningGroup = r;
unicode = 0072;
},
{
glyphname = s;
lastChange = "2018-09-11 01:46:06 +0000";
layers = (
{
anchors = (
{
name = bottom;
position = "{238, 0}";
},
{
name = top;
position = "{238, 530}";
}
);
layerId = "3D0525B3-6B2A-4787-8D58-1F6DD6CCA7DC";
paths = (
{
closed = 1;
nodes = (
"434 452 LINE",
"386 511 OFFCURVE",
"304 536 OFFCURVE",
"241 536 CURVE",
"142 536 OFFCURVE",
"53 478 OFFCURVE",
"53 385 CURVE",
"53 273 OFFCURVE",
"148 240 OFFCURVE",
"234 217 CURVE",
"292 202 OFFCURVE",
"340 190 OFFCURVE",
"340 142 CURVE",
"340 92 OFFCURVE",
"293 75 OFFCURVE",
"256 75 CURVE",
"189 75 OFFCURVE",
"146 100 OFFCURVE",
"110 141 CURVE",
"40 81 LINE",
"92 14 OFFCURVE",
"171 -10 OFFCURVE",
"247 -10 CURVE",
"342 -10 OFFCURVE",
"437 48 OFFCURVE",
"437 146 CURVE",
"437 259 OFFCURVE",
"349 288 OFFCURVE",
"267 310 CURVE",
"204 326 OFFCURVE",
"157 340 OFFCURVE",
"156 388 CURVE",
"156 439 OFFCURVE",
"204 451 OFFCURVE",
"246 451 CURVE",
"286 451 OFFCURVE",
"338 424 OFFCURVE",
"375 387 CURVE"
);
}
);
width = 479;
},
{
anchors = (
{
name = bottom;
position = "{391, 0}";
},
{
name = top;
position = "{411, 525}";
}
);
layerId = "950578AD-3C55-42C9-B412-F732192F54B4";
paths = (
{
closed = 1;
nodes = (
"674 452 LINE",
"609 511 OFFCURVE",
"492 536 OFFCURVE",
"399 536 CURVE",
"248 536 OFFCURVE",
"132 478 OFFCURVE",
"132 384 CURVE SMOOTH",
"132 263 OFFCURVE",
"244 241 OFFCURVE",
"384 217 CURVE SMOOTH",
"483 202 OFFCURVE",
"573 187 OFFCURVE",
"573 142 CURVE",
"573 87 OFFCURVE",
"475 76 OFFCURVE",
"406 76 CURVE SMOOTH",
"317 76 OFFCURVE",
"243 106 OFFCURVE",
"190 156 CURVE",
"120 91 LINE",
"190 17 OFFCURVE",
"295 -10 OFFCURVE",
"418 -10 CURVE",
"562 -10 OFFCURVE",
"677 48 OFFCURVE",
"677 161 CURVE SMOOTH",
"677 257 OFFCURVE",
"544 288 OFFCURVE",
"417 307 CURVE SMOOTH",
"319 323 OFFCURVE",
"236 342 OFFCURVE",
"235 388 CURVE",
"235 439 OFFCURVE",
"332 451 OFFCURVE",
"399 451 CURVE",
"473 451 OFFCURVE",
"563 421 OFFCURVE",
"620 381 CURVE"
);
}
);
width = 797;
}
);
leftKerningGroup = s;
note = s;
rightKerningGroup = s;
unicode = 0073;
},
{
glyphname = germandbls;
lastChange = "2018-11-29 15:55:56 +0000";
layers = (
{
layerId = "3D0525B3-6B2A-4787-8D58-1F6DD6CCA7DC";
paths = (
{
closed = 1;
nodes = (
"180 404 LINE",
"180 497 LINE",
"45 497 LINE",
"45 404 LINE"
);
},
{
closed = 1;
nodes = (
"226 0 LINE",
"226 502 LINE",
"226 582 OFFCURVE",
"269 644 OFFCURVE",
"350 644 CURVE",
"416 644 OFFCURVE",
"457 614 OFFCURVE",
"457 565 CURVE",
"457 523 OFFCURVE",
"424 485 OFFCURVE",
"344 450 CURVE",
"344 385 LINE",
"459 357 OFFCURVE",
"525 302 OFFCURVE",
"525 189 CURVE SMOOTH",
"525 128 OFFCURVE",
"493 68 OFFCURVE",
"424 68 CURVE",
"386 68 OFFCURVE",
"356 87 OFFCURVE",
"327 112 CURVE",
"275 57 LINE",
"305 19 OFFCURVE",
"348 -10 OFFCURVE",
"422 -10 CURVE SMOOTH",
"540 -10 OFFCURVE",
"622 84 OFFCURVE",
"622 203 CURVE SMOOTH",
"622 333 OFFCURVE",
"535 415 OFFCURVE",
"447 443 CURVE",
"449 439 LINE",
"506 464 OFFCURVE",
"553 514 OFFCURVE",
"553 574 CURVE",
"553 662 OFFCURVE",
"483 734 OFFCURVE",
"354 734 CURVE",
"208 734 OFFCURVE",
"129 630 OFFCURVE",
"129 499 CURVE",
"129 0 LINE"
);
}
);
width = 664;
},
{
layerId = "950578AD-3C55-42C9-B412-F732192F54B4";
paths = (
{
closed = 1;
nodes = (
"325 404 LINE",
"325 497 LINE",
"145 497 LINE",
"145 404 LINE"
);
},
{
closed = 1;
nodes = (
"351 0 LINE",
"351 502 LINE",
"351 580 OFFCURVE",
"425 639 OFFCURVE",
"565 639 CURVE",
"661 639 OFFCURVE",
"722 603 OFFCURVE",
"722 545 CURVE",
"722 503 OFFCURVE",
"675 465 OFFCURVE",
"559 430 CURVE",
"559 365 LINE",
"706 339 OFFCURVE",
"790 295 OFFCURVE",
"790 196 CURVE SMOOTH",
"790 132 OFFCURVE",
"736 84 OFFCURVE",
"659 84 CURVE",
"600 84 OFFCURVE",
"541 104 OFFCURVE",
"486 136 CURVE",
"444 57 LINE",
"491 19 OFFCURVE",
"558 -10 OFFCURVE",
"655 -10 CURVE SMOOTH",
"798 -10 OFFCURVE",
"907 80 OFFCURVE",
"907 208 CURVE SMOOTH",
"907 332 OFFCURVE",
"785 413 OFFCURVE",
"662 443 CURVE",
"664 399 LINE",
"759 428 OFFCURVE",
"838 485 OFFCURVE",
"838 554 CURVE",
"838 653 OFFCURVE",
"743 734 OFFCURVE",
"569 734 CURVE",
"361 734 OFFCURVE",
"248 630 OFFCURVE",
"248 499 CURVE",
"248 0 LINE"
);
}
);
width = 1027;
}
);
leftKerningGroup = f;
leftMetricsKey = f;
note = germandbls;
rightKerningGroup = b;
rightMetricsKey = s;
unicode = 00DF;
},
{
glyphname = t;
lastChange = "2018-11-20 15:57:24 +0000";
layers = (
{
anchors = (
{
name = bottom;
position = "{182, 0}";
},
{
name = center;
position = "{182, 256}";
},
{
name = top;
position = "{183, 646}";
},
{
name = topright;
position = "{308, 548}";
}
);
layerId = "3D0525B3-6B2A-4787-8D58-1F6DD6CCA7DC";
paths = (
{
closed = 1;
nodes = (
"240 659 LINE",
"137 659 LINE",
"137 0 LINE",
"240 0 LINE"
);
},
{
closed = 1;
nodes = (
"362 525 LINE",
"28 525 LINE",
"28 425 LINE",
"362 425 LINE"
);
}
);
width = 384;
},
{
anchors = (
{
name = bottom;
position = "{345, 0}";
},
{
name = center;
position = "{355, 233}";
},
{
name = top;
position = "{355, 646}";
},
{
name = topright;
position = "{729, 525}";
}
);
layerId = "950578AD-3C55-42C9-B412-F732192F54B4";
paths = (
{
closed = 1;
nodes = (
"397 689 LINE",
"294 689 LINE",
"294 0 LINE",
"397 0 LINE"
);
},
{
closed = 1;
nodes = (
"599 525 LINE",
"125 525 LINE",
"125 425 LINE",
"599 425 LINE"
);
}
);
width = 749;
}
);
leftKerningGroup = t;
note = t;
rightKerningGroup = t;
unicode = 0074;
},
{
glyphname = u;
lastChange = "2018-10-02 22:27:57 +0000";
layers = (
{
anchors = (
{
name = bottom;
position = "{299, 0}";
},
{
name = ogonek;
position = "{530, 0}";
},
{
name = top;
position = "{299, 510}";
},
{
name = topright;
position = "{386, 532}";
}
);
layerId = "3D0525B3-6B2A-4787-8D58-1F6DD6CCA7DC";
paths = (
{
closed = 1;
nodes = (
"430 128 OFFCURVE",
"370 80 OFFCURVE",
"298 80 CURVE SMOOTH",
"211 80 OFFCURVE",
"175 149 OFFCURVE",
"175 229 CURVE",
"175 525 LINE",
"72 525 LINE",
"72 201 LINE",
"72 69 OFFCURVE",
"146 -10 OFFCURVE",
"256 -10 CURVE SMOOTH",
"360 -10 OFFCURVE",
"428 61 OFFCURVE",
"448 122 CURVE",
"430 110 LINE",
"430 0 LINE",
"533 0 LINE",
"533 525 LINE",
"533 525 OFFCURVE",
"430 525 OFFCURVE",
"430 525 CURVE",
"430 209 LINE SMOOTH"
);
}
);
width = 605;
},
{
anchors = (
{
name = bottom;
position = "{496, 0}";
},
{
name = ogonek;
position = "{800, 11}";
},
{
name = top;
position = "{496, 525}";
},
{
name = topright;
position = "{770, 481}";
}
);
layerId = "950578AD-3C55-42C9-B412-F732192F54B4";
paths = (
{
closed = 1;
nodes = (
"678 163 OFFCURVE",
"586 93 OFFCURVE",
"476 93 CURVE SMOOTH",
"354 93 OFFCURVE",
"303 162 OFFCURVE",
"303 299 CURVE",
"303 525 LINE",
"200 525 LINE",
"200 261 LINE",
"200 91 OFFCURVE",
"294 -10 OFFCURVE",
"434 -10 CURVE SMOOTH",
"576 -10 OFFCURVE",
"669 61 OFFCURVE",
"696 122 CURVE",
"678 110 LINE",
"678 0 LINE",
"781 0 LINE",
"781 525 LINE",
"781 525 OFFCURVE",
"678 525 OFFCURVE",
"678 525 CURVE",
"678 279 LINE SMOOTH"
);
}
);
width = 981;
}
);
leftKerningGroup = u;
note = u;
rightKerningGroup = u;
unicode = 0075;
},
{
glyphname = v;
lastChange = "2018-09-11 01:47:10 +0000";
layers = (
{
anchors = (
{
name = bottom;
position = "{287, 0}";
},
{
name = top;
position = "{287, 510}";
}
);
layerId = "3D0525B3-6B2A-4787-8D58-1F6DD6CCA7DC";
paths = (
{
closed = 1;
nodes = (
"22 525 LINE",
"244 0 LINE",
"318 0 LINE",
"551 525 LINE",
"445 525 LINE",
"274 123 LINE",
"293 132 LINE",
"133 525 LINE"
);
}
);
width = 573;
},
{
anchors = (
{
name = bottom;
position = "{435, 0}";
},
{
name = top;
position = "{435, 525}";
}
);
layerId = "950578AD-3C55-42C9-B412-F732192F54B4";
paths = (
{
closed = 1;
nodes = (
"85 525 LINE",
"383 0 LINE",
"477 0 LINE",
"784 525 LINE",
"668 525 LINE",
"417 71 LINE",
"446 80 LINE",
"206 525 LINE"
);
}
);
width = 869;
}
);
leftKerningGroup = v;
note = v;
rightKerningGroup = v;
unicode = 0076;
},
{
glyphname = w;
lastChange = "2018-09-11 02:00:37 +0000";
layers = (
{
anchors = (
{
name = bottom;
position = "{410, 0}";
},
{
name = top;
position = "{410, 505}";
}
);
layerId = "3D0525B3-6B2A-4787-8D58-1F6DD6CCA7DC";
paths = (
{
closed = 1;
nodes = (
"674 525 LINE",
"545 132 LINE",
"572 134 LINE",
"432 442 LINE",
"370 442 LINE",
"231 135 LINE",
"254 133 LINE",
"126 526 LINE",
"22 525 LINE",
"201 0 LINE",
"271 0 LINE",
"407 331 LINE",
"384 334 LINE",
"530 0 LINE",
"601 0 LINE",
"778 525 LINE"
);
}
);
width = 800;
},
{
anchors = (
{
name = bottom;
position = "{523, 0}";
},
{
name = top;
position = "{523, 505}";
}
);
layerId = "950578AD-3C55-42C9-B412-F732192F54B4";
paths = (
{
closed = 1;
nodes = (
"857 525 LINE",
"700 112 LINE",
"717 114 LINE",
"554 442 LINE",
"466 442 LINE",
"306 115 LINE",
"329 113 LINE",
"199 526 LINE",
"85 525 LINE",
"278 0 LINE",
"348 0 LINE",
"552 413 LINE",
"478 401 LINE",
"677 0 LINE",
"748 0 LINE",
"961 525 LINE"
);
}
);
width = 1046;
}
);
leftKerningGroup = w;
leftMetricsKey = v;
note = w;
rightKerningGroup = w;
rightMetricsKey = v;
unicode = 0077;
},
{
glyphname = x;
lastChange = "2018-09-11 02:00:57 +0000";
layers = (
{
anchors = (
{
name = bottom;
position = "{277, 0}";
},
{
name = top;
position = "{277, 510}";
}
);
layerId = "3D0525B3-6B2A-4787-8D58-1F6DD6CCA7DC";
paths = (
{
closed = 1;
nodes = (
"15 525 LINE",
"236 240 LINE",
"421 0 LINE",
"547 0 LINE",
"312 307 LINE",
"145 525 LINE"
);
},
{
closed = 1;
nodes = (
"137 -1 LINE",
"279 190 LINE",
"223 270 LINE",
"16 0 LINE"
);
},
{
closed = 1;
nodes = (
"407 525 LINE",
"278 326 LINE",
"335 254 LINE",
"529 525 LINE"
);
}
);
width = 562;
},
{
anchors = (
{
name = bottom;
position = "{496, 0}";
},
{
name = top;
position = "{496, 525}";
}
);
layerId = "950578AD-3C55-42C9-B412-F732192F54B4";
paths = (
{
closed = 1;
nodes = (
"170 525 LINE",
"458 233 LINE",
"691 0 LINE",
"842 0 LINE",
"526 302 LINE",
"325 525 LINE"
);
},
{
closed = 1;
nodes = (
"297 -1 LINE",
"489 218 LINE",
"418 280 LINE",
"151 0 LINE"
);
},
{
closed = 1;
nodes = (
"687 525 LINE",
"488 320 LINE",
"550 248 LINE",
"834 525 LINE"
);
}
);
width = 992;
}
);
leftKerningGroup = x;
note = x;
rightKerningGroup = x;
unicode = 0078;
},
{
glyphname = y;
lastChange = "2018-09-11 02:01:58 +0000";
layers = (
{
anchors = (
{
name = bottom;
position = "{490, 0}";
},
{
name = top;
position = "{285, 510}";
}
);
layerId = "3D0525B3-6B2A-4787-8D58-1F6DD6CCA7DC";
paths = (
{
closed = 1;
nodes = (
"320 45 LINE",
"315 64 OFFCURVE",
"298 119 OFFCURVE",
"289 139 CURVE SMOOTH",
"125 525 LINE",
"5 525 LINE",
"265 -63 LINE"
);
},
{
closed = 1;
nodes = (
"271 -230 LINE",
"360 0 LINE",
"576 525 LINE",
"454 525 LINE",
"317 146 LINE SMOOTH",
"307 118 OFFCURVE",
"296 87 OFFCURVE",
"285 58 CURVE",
"246 -33 LINE",
"160 -230 LINE"
);
}
);
width = 581;
},
{
anchors = (
{
name = bottom;
position = "{733, 0}";
},
{
name = top;
position = "{472, 525}";
}
);
layerId = "950578AD-3C55-42C9-B412-F732192F54B4";
paths = (
{
closed = 1;
nodes = (
"478 39 LINE",
"465 90 OFFCURVE",
"432 153 OFFCURVE",
"386 238 CURVE SMOOTH",
"231 525 LINE",
"110 525 LINE",
"437 -52 LINE"
);
},
{
closed = 1;
nodes = (
"412 -230 LINE",
"541 1 LINE",
"833 525 LINE",
"713 525 LINE",
"563 238 LINE SMOOTH",
"522 160 OFFCURVE",
"496 98 OFFCURVE",
"476 48 CURVE",
"428 -14 LINE",
"302 -230 LINE"
);
}
);
width = 943;
}
);
leftKerningGroup = y;
note = y;
rightKerningGroup = y;
unicode = 0079;
},
{
glyphname = z;
lastChange = "2018-09-11 02:02:18 +0000";
layers = (
{
anchors = (
{
name = bottom;
position = "{240, 0}";
},
{
name = top;
position = "{248, 510}";
}
);
layerId = "3D0525B3-6B2A-4787-8D58-1F6DD6CCA7DC";
paths = (
{
closed = 1;
nodes = (
"162 89 LINE",
"166 84 LINE",
"433 441 LINE",
"433 525 LINE",
"50 525 LINE",
"50 436 LINE",
"321 436 LINE",
"321 448 LINE",
"50 86 LINE",
"50 0 LINE",
"439 0 LINE",
"439 89 LINE"
);
}
);
width = 484;
},
{
anchors = (
{
name = bottom;
position = "{365, 0}";
},
{
name = top;
position = "{365, 525}";
}
);
layerId = "950578AD-3C55-42C9-B412-F732192F54B4";
paths = (
{
closed = 1;
nodes = (
"202 86 LINE",
"222 84 LINE",
"623 441 LINE",
"623 525 LINE",
"100 525 LINE",
"100 439 LINE",
"521 439 LINE",
"504 448 LINE",
"100 86 LINE",
"100 0 LINE",
"629 0 LINE",
"629 86 LINE"
);
}
);
width = 729;
}
);
leftKerningGroup = z;
note = z;
rightKerningGroup = z;
unicode = 007A;
},
{
glyphname = a.ss01;
lastChange = "2020-01-18 17:22:53 +0000";
layers = (
{
anchors = (
{
name = bottom;
position = "{277, -13}";
},
{
name = ogonek;
position = "{466, 10}";
},
{
name = top;
position = "{279, 530}";
}
);
layerId = "3D0525B3-6B2A-4787-8D58-1F6DD6CCA7DC";
paths = (
{
closed = 1;
nodes = (
"173 536 OFFCURVE",
"104 482 OFFCURVE",
"61 435 CURVE",
"128 368 LINE",
"159 408 OFFCURVE",
"202 441 OFFCURVE",
"272 441 CURVE",
"330 441 OFFCURVE",
"383 406 OFFCURVE",
"383 342 CURVE",
"383 0 LINE",
"476 0 LINE",
"476 364 LINE",
"476 490 OFFCURVE",
"379 536 OFFCURVE",
"280 536 CURVE"
);
},
{
closed = 1;
nodes = (
"284 319 LINE SMOOTH",
"118 319 OFFCURVE",
"48 253 OFFCURVE",
"48 149 CURVE",
"48 39 OFFCURVE",
"142 -10 OFFCURVE",
"226 -10 CURVE",
"324 -10 OFFCURVE",
"392 61 OFFCURVE",
"420 107 CURVE",
"396 174 LINE",
"376 135 OFFCURVE",
"319 78 OFFCURVE",
"230 78 CURVE",
"189 78 OFFCURVE",
"145 100 OFFCURVE",
"145 151 CURVE",
"145 197 OFFCURVE",
"177 237 OFFCURVE",
"271 237 CURVE SMOOTH",
"421 237 LINE",
"430 319 LINE"
);
}
);
width = 534;
},
{
anchors = (
{
name = bottom;
position = "{460, 0}";
},
{
name = ogonek;
position = "{748, 10}";
},
{
name = top;
position = "{454, 525}";
}
);
layerId = "950578AD-3C55-42C9-B412-F732192F54B4";
paths = (
{
closed = 1;
nodes = (
"316 536 OFFCURVE",
"222 496 OFFCURVE",
"149 445 CURVE",
"206 374 LINE",
"269 424 OFFCURVE",
"356 442 OFFCURVE",
"430 442 CURVE SMOOTH",
"580 442 OFFCURVE",
"665 394 OFFCURVE",
"665 282 CURVE",
"665 0 LINE",
"758 0 LINE",
"758 304 LINE",
"758 474 OFFCURVE",
"629 536 OFFCURVE",
"432 536 CURVE SMOOTH"
);
},
{
closed = 1;
nodes = (
"466 319 LINE SMOOTH",
"230 319 OFFCURVE",
"130 253 OFFCURVE",
"130 149 CURVE",
"130 39 OFFCURVE",
"256 -10 OFFCURVE",
"388 -10 CURVE",
"518 -10 OFFCURVE",
"648 51 OFFCURVE",
"702 107 CURVE",
"678 174 LINE",
"630 125 OFFCURVE",
"510 78 OFFCURVE",
"392 78 CURVE",
"302 78 OFFCURVE",
"227 100 OFFCURVE",
"227 151 CURVE",
"227 197 OFFCURVE",
"291 237 OFFCURVE",
"453 237 CURVE SMOOTH",
"703 237 LINE",
"712 319 LINE"
);
}
);
width = 968;
}
);
leftKerningGroup = c;
note = a;
rightKerningGroup = a;
},
{
glyphname = aogonek.ss01;
lastChange = "2020-01-18 17:25:40 +0000";
layers = (
{
layerId = "3D0525B3-6B2A-4787-8D58-1F6DD6CCA7DC";
paths = (
{
closed = 1;
nodes = (
"406 -221 OFFCURVE",
"448 -200 OFFCURVE",
"482 -177 CURVE",
"443 -118 LINE",
"422 -133 OFFCURVE",
"398 -144 OFFCURVE",
"378 -144 CURVE SMOOTH",
"351 -144 OFFCURVE",
"331 -127 OFFCURVE",
"331 -106 CURVE SMOOTH",
"331 -71 OFFCURVE",
"390 -33 OFFCURVE",
"466 0 CURVE",
"466 364 LINE",
"466 490 OFFCURVE",
"369 536 OFFCURVE",
"270 536 CURVE",
"163 536 OFFCURVE",
"94 482 OFFCURVE",
"51 435 CURVE",
"118 368 LINE",
"149 408 OFFCURVE",
"192 441 OFFCURVE",
"262 441 CURVE",
"320 441 OFFCURVE",
"373 406 OFFCURVE",
"373 342 CURVE",
"373 0 LINE",
"413 0 LINE",
"413 32 LINE",
"332 6 OFFCURVE",
"238 -52 OFFCURVE",
"238 -122 CURVE SMOOTH",
"238 -178 OFFCURVE",
"291 -221 OFFCURVE",
"358 -221 CURVE SMOOTH"
);
},
{
closed = 1;
nodes = (
"314 -10 OFFCURVE",
"382 61 OFFCURVE",
"410 107 CURVE",
"386 174 LINE",
"366 135 OFFCURVE",
"309 78 OFFCURVE",
"220 78 CURVE",
"179 78 OFFCURVE",
"135 100 OFFCURVE",
"135 151 CURVE",
"135 197 OFFCURVE",
"167 237 OFFCURVE",
"261 237 CURVE SMOOTH",
"411 237 LINE",
"420 319 LINE",
"274 319 LINE SMOOTH",
"108 319 OFFCURVE",
"38 253 OFFCURVE",
"38 149 CURVE",
"38 39 OFFCURVE",
"132 -10 OFFCURVE",
"216 -10 CURVE"
);
}
);
width = 554;
},
{
background = {
paths = (
{
closed = 1;
nodes = (
"671 525 LINE",
"671 389 LINE",
"701 391 LINE",
"701 454 OFFCURVE",
"583 536 OFFCURVE",
"428 536 CURVE",
"240 536 OFFCURVE",
"110 423 OFFCURVE",
"110 263 CURVE",
"110 104 OFFCURVE",
"231 -10 OFFCURVE",
"422 -10 CURVE",
"564 -10 OFFCURVE",
"691 76 OFFCURVE",
"691 137 CURVE",
"671 145 LINE",
"671 0 LINE",
"774 0 LINE",
"774 525 LINE"
);
},
{
closed = 1;
nodes = (
"310 85 OFFCURVE",
"215 161 OFFCURVE",
"215 263 CURVE",
"215 364 OFFCURVE",
"310 440 OFFCURVE",
"445 440 CURVE",
"582 440 OFFCURVE",
"675 364 OFFCURVE",
"675 263 CURVE",
"675 161 OFFCURVE",
"582 85 OFFCURVE",
"445 85 CURVE"
);
}
);
};
layerId = "950578AD-3C55-42C9-B412-F732192F54B4";
paths = (
{
closed = 1;
nodes = (
"708 -221 OFFCURVE",
"750 -200 OFFCURVE",
"784 -177 CURVE",
"745 -118 LINE",
"724 -133 OFFCURVE",
"700 -144 OFFCURVE",
"680 -144 CURVE SMOOTH",
"653 -144 OFFCURVE",
"633 -123 OFFCURVE",
"633 -100 CURVE SMOOTH",
"633 -63 OFFCURVE",
"693 -26 OFFCURVE",
"748 0 CURVE",
"748 304 LINE",
"748 474 OFFCURVE",
"619 536 OFFCURVE",
"422 536 CURVE SMOOTH",
"306 536 OFFCURVE",
"212 496 OFFCURVE",
"139 445 CURVE",
"196 374 LINE",
"259 424 OFFCURVE",
"346 442 OFFCURVE",
"420 442 CURVE SMOOTH",
"570 442 OFFCURVE",
"655 394 OFFCURVE",
"655 282 CURVE",
"655 0 LINE",
"742 0 LINE",
"715 52 LINE",
"634 10 OFFCURVE",
"540 -43 OFFCURVE",
"540 -114 CURVE SMOOTH",
"540 -178 OFFCURVE",
"593 -221 OFFCURVE",
"660 -221 CURVE SMOOTH"
);
},
{
closed = 1;
nodes = (
"508 -10 OFFCURVE",
"638 51 OFFCURVE",
"692 107 CURVE",
"668 174 LINE",
"620 125 OFFCURVE",
"500 78 OFFCURVE",
"382 78 CURVE",
"292 78 OFFCURVE",
"217 100 OFFCURVE",
"217 151 CURVE",
"217 197 OFFCURVE",
"281 237 OFFCURVE",
"443 237 CURVE SMOOTH",
"693 237 LINE",
"702 319 LINE",
"456 319 LINE SMOOTH",
"220 319 OFFCURVE",
"120 253 OFFCURVE",
"120 149 CURVE",
"120 39 OFFCURVE",
"246 -10 OFFCURVE",
"378 -10 CURVE"
);
}
);
width = 984;
}
);
leftKerningGroup = a;
leftMetricsKey = a;
note = aogonek;
rightKerningGroup = a;
rightMetricsKey = a;
},
{
glyphname = ordfeminine;
lastChange = "2018-06-06 12:33:34 +0000";
layers = (
{
layerId = "3D0525B3-6B2A-4787-8D58-1F6DD6CCA7DC";
paths = (
{
closed = 1;
nodes = (
"213 391 OFFCURVE",
"257 462 OFFCURVE",
"257 512 CURVE",
"242 474 LINE",
"242 401 LINE",
"335 401 LINE",
"335 715 LINE",
"242 715 LINE",
"242 648 LINE",
"257 592 LINE",
"257 679 OFFCURVE",
"217 721 OFFCURVE",
"155 721 CURVE",
"69 721 OFFCURVE",
"15 650 OFFCURVE",
"15 562 CURVE",
"15 469 OFFCURVE",
"57 391 OFFCURVE",
"143 391 CURVE"
);
},
{
closed = 1;
nodes = (
"128 458 OFFCURVE",
"108 505 OFFCURVE",
"108 562 CURVE",
"108 613 OFFCURVE",
"136 654 OFFCURVE",
"171 654 CURVE",
"218 654 OFFCURVE",
"246 616 OFFCURVE",
"246 555 CURVE",
"246 493 OFFCURVE",
"213 458 OFFCURVE",
"172 458 CURVE"
);
}
);
width = 365;
},
{
layerId = "950578AD-3C55-42C9-B412-F732192F54B4";
paths = (
{
closed = 1;
nodes = (
"298 391 OFFCURVE",
"342 462 OFFCURVE",
"342 512 CURVE",
"327 474 LINE",
"327 401 LINE",
"420 401 LINE",
"420 715 LINE",
"327 715 LINE",
"327 648 LINE",
"342 592 LINE",
"342 679 OFFCURVE",
"302 721 OFFCURVE",
"240 721 CURVE",
"154 721 OFFCURVE",
"100 650 OFFCURVE",
"100 562 CURVE",
"100 469 OFFCURVE",
"142 391 OFFCURVE",
"228 391 CURVE"
);
},
{
closed = 1;
nodes = (
"213 458 OFFCURVE",
"193 505 OFFCURVE",
"193 562 CURVE",
"193 613 OFFCURVE",
"221 654 OFFCURVE",
"256 654 CURVE",
"303 654 OFFCURVE",
"331 616 OFFCURVE",
"331 555 CURVE",
"331 493 OFFCURVE",
"298 458 OFFCURVE",
"257 458 CURVE"
);
}
);
width = 520;
}
);
note = ordfeminine;
unicode = 00AA;
},
{
glyphname = ordmasculine;
lastChange = "2018-06-06 12:34:21 +0000";
layers = (
{
layerId = "3D0525B3-6B2A-4787-8D58-1F6DD6CCA7DC";
paths = (
{
closed = 1;
nodes = (
"334 640 OFFCURVE",
"266 710 OFFCURVE",
"176 710 CURVE",
"86 710 OFFCURVE",
"20 640 OFFCURVE",
"20 549 CURVE",
"20 459 OFFCURVE",
"86 392 OFFCURVE",
"176 392 CURVE",
"266 392 OFFCURVE",
"334 459 OFFCURVE",
"334 549 CURVE"
);
},
{
closed = 1;
nodes = (
"245 500 OFFCURVE",
"218 463 OFFCURVE",
"176 463 CURVE",
"134 463 OFFCURVE",
"108 500 OFFCURVE",
"108 549 CURVE",
"108 601 OFFCURVE",
"134 639 OFFCURVE",
"176 639 CURVE",
"218 639 OFFCURVE",
"245 601 OFFCURVE",
"245 549 CURVE"
);
}
);
width = 354;
},
{
layerId = "950578AD-3C55-42C9-B412-F732192F54B4";
paths = (
{
closed = 1;
nodes = (
"434 640 OFFCURVE",
"366 710 OFFCURVE",
"276 710 CURVE",
"186 710 OFFCURVE",
"120 640 OFFCURVE",
"120 549 CURVE",
"120 459 OFFCURVE",
"186 392 OFFCURVE",
"276 392 CURVE",
"366 392 OFFCURVE",
"434 459 OFFCURVE",
"434 549 CURVE"
);
},
{
closed = 1;
nodes = (
"345 500 OFFCURVE",
"318 463 OFFCURVE",
"276 463 CURVE",
"234 463 OFFCURVE",
"208 500 OFFCURVE",
"208 549 CURVE",
"208 601 OFFCURVE",
"234 639 OFFCURVE",
"276 639 CURVE",
"318 639 OFFCURVE",
"345 601 OFFCURVE",
"345 549 CURVE"
);
}
);
width = 554;
}
);
note = ordmasculine;
unicode = 00BA;
},
{
glyphname = pi;
lastChange = "2018-05-26 19:14:24 +0000";
layers = (
{
layerId = "3D0525B3-6B2A-4787-8D58-1F6DD6CCA7DC";
paths = (
{
closed = 1;
nodes = (
"205 0 LINE",
"205 438 LINE",
"192 425 LINE",
"419 425 LINE",
"409 460 LINE",
"409 0 LINE",
"500 0 LINE",
"500 438 LINE",
"491 425 LINE",
"574 425 LINE",
"574 526 LINE",
"40 526 LINE",
"40 425 LINE",
"131 425 LINE",
"114 476 LINE",
"114 0 LINE"
);
}
);
width = 614;
},
{
layerId = "950578AD-3C55-42C9-B412-F732192F54B4";
paths = (
{
closed = 1;
nodes = (
"355 0 LINE",
"355 438 LINE",
"342 425 LINE",
"649 425 LINE",
"639 460 LINE",
"639 0 LINE",
"730 0 LINE",
"730 438 LINE",
"721 425 LINE",
"874 425 LINE",
"874 526 LINE",
"120 526 LINE",
"120 425 LINE",
"281 425 LINE",
"264 476 LINE",
"264 0 LINE"
);
}
);
width = 994;
}
);
note = pi;
unicode = 03C0;
},
{
color = 6;
glyphname = "hamza-ar";
layers = (
{
anchors = (
{
name = bottom;
position = "{182, 0}";
},
{
name = top;
position = "{210, 295}";
}
);
layerId = "3D0525B3-6B2A-4787-8D58-1F6DD6CCA7DC";
paths = (
{
closed = 1;
nodes = (
"319 0 LINE",
"333 0 LINE",
"333 88 LINE",
"254 88 LINE",
"173 88 OFFCURVE",
"149 122 OFFCURVE",
"149 152 CURVE SMOOTH",
"149 184 OFFCURVE",
"172 207 OFFCURVE",
"216 207 CURVE SMOOTH",
"243 207 OFFCURVE",
"270 200 OFFCURVE",
"300 182 CURVE",
"263 158 LINE",
"327 299 LINE",
"340 254 LINE",
"308 279 OFFCURVE",
"259 295 OFFCURVE",
"210 295 CURVE SMOOTH",
"122 295 OFFCURVE",
"59 238 OFFCURVE",
"59 157 CURVE SMOOTH",
"59 67 OFFCURVE",
"155 0 OFFCURVE",
"319 0 CURVE",
"319 88 LINE",
"30 88 LINE",
"30 0 LINE"
);
}
);
width = 383;
},
{
anchors = (
{
name = bottom;
position = "{304, 0}";
},
{
name = top;
position = "{343, 295}";
}
);
layerId = "950578AD-3C55-42C9-B412-F732192F54B4";
paths = (
{
closed = 1;
nodes = (
"484 0 LINE",
"498 0 LINE",
"498 88 LINE",
"345 88 LINE SMOOTH",
"248 88 OFFCURVE",
"226 122 OFFCURVE",
"226 152 CURVE SMOOTH",
"226 183 OFFCURVE",
"250 207 OFFCURVE",
"347 207 CURVE SMOOTH",
"390 207 OFFCURVE",
"435 200 OFFCURVE",
"467 186 CURVE",
"437 158 LINE",
"483 299 LINE",
"505 254 LINE",
"480 279 OFFCURVE",
"408 295 OFFCURVE",
"343 295 CURVE SMOOTH",
"220 295 OFFCURVE",
"136 242 OFFCURVE",
"136 152 CURVE SMOOTH",
"136 38 OFFCURVE",
"264 0 OFFCURVE",
"484 0 CURVE",
"484 88 LINE",
"93 88 LINE",
"93 0 LINE"
);
}
);
width = 591;
}
);
unicode = 0621;
},
{
color = 6;
glyphname = "alef-ar";
layers = (
{
anchors = (
{
name = bottom;
position = "{132, 0}";
},
{
name = top;
position = "{132, 700}";
}
);
layerId = "3D0525B3-6B2A-4787-8D58-1F6DD6CCA7DC";
paths = (
{
closed = 1;
nodes = (
"80 0 LINE",
"184 0 LINE",
"184 740 LINE",
"80 740 LINE"
);
}
);
width = 264;
},
{
anchors = (
{
name = bottom;
position = "{264, 0}";
},
{
name = top;
position = "{264, 700}";
}
);
layerId = "950578AD-3C55-42C9-B412-F732192F54B4";
paths = (
{
closed = 1;
nodes = (
"212 0 LINE",
"316 0 LINE",
"316 740 LINE",
"212 740 LINE"
);
}
);
width = 528;
}
);
rightMetricsKey = "=|";
unicode = 0627;
},
{
color = 6;
glyphname = "alef-ar.fina";
lastChange = "2020-01-05 00:40:18 +0000";
layers = (
{
anchors = (
{
name = bottom;
position = "{132, 0}";
},
{
name = top;
position = "{132, 700}";
}
);
layerId = "3D0525B3-6B2A-4787-8D58-1F6DD6CCA7DC";
paths = (
{
closed = 1;
nodes = (
"80 164 LINE SMOOTH",
"80 75 OFFCURVE",
"114 0 OFFCURVE",
"252 0 CURVE SMOOTH",
"310 0 LINE",
"310 102 LINE",
"272 102 LINE SMOOTH",
"197 102 OFFCURVE",
"184 128 OFFCURVE",
"184 190 CURVE SMOOTH",
"184 740 LINE",
"80 740 LINE"
);
}
);
width = 310;
},
{
anchors = (
{
name = bottom;
position = "{264, 0}";
},
{
name = top;
position = "{264, 700}";
}
);
layerId = "950578AD-3C55-42C9-B412-F732192F54B4";
paths = (
{
closed = 1;
nodes = (
"212 224 LINE SMOOTH",
"212 95 OFFCURVE",
"266 0 OFFCURVE",
"494 0 CURVE SMOOTH",
"593 0 LINE",
"593 102 LINE",
"514 102 LINE SMOOTH",
"349 102 OFFCURVE",
"316 148 OFFCURVE",
"316 250 CURVE SMOOTH",
"316 740 LINE",
"212 740 LINE"
);
}
);
width = 593;
}
);
leftMetricsKey = "alef-ar";
unicode = FE8E;
},
{
color = 6;
glyphname = "behDotless-ar";
lastChange = "2020-01-04 23:45:02 +0000";
layers = (
{
anchors = (
{
name = bottom;
position = "{439, 0}";
},
{
name = top;
position = "{439, 371}";
}
);
components = (
{
name = "behDotless-ar.init";
transform = "{1, 0, 0, 1, 561, 0}";
}
);
layerId = "3D0525B3-6B2A-4787-8D58-1F6DD6CCA7DC";
paths = (
{
closed = 1;
nodes = (
"694 102 LINE",
"324 102 LINE SMOOTH",
"213 102 OFFCURVE",
"134 128 OFFCURVE",
"134 226 CURVE SMOOTH",
"134 265 OFFCURVE",
"142 307 OFFCURVE",
"174 377 CURVE",
"94 413 LINE",
"46 331 OFFCURVE",
"30 260 OFFCURVE",
"30 202 CURVE SMOOTH",
"30 76 OFFCURVE",
"128 0 OFFCURVE",
"292 0 CURVE SMOOTH",
"771 0 LINE"
);
}
);
width = 902;
},
{
anchors = (
{
name = bottom;
position = "{781, 0}";
},
{
name = top;
position = "{781, 371}";
}
);
components = (
{
name = "behDotless-ar.init";
transform = "{0.99342, 0, 0, 0.99342, 1024, 1}";
}
);
layerId = "950578AD-3C55-42C9-B412-F732192F54B4";
paths = (
{
closed = 1;
nodes = (
"1038 102 LINE",
"434 102 LINE SMOOTH",
"277 102 OFFCURVE",
"194 128 OFFCURVE",
"194 226 CURVE SMOOTH",
"194 265 OFFCURVE",
"202 307 OFFCURVE",
"234 377 CURVE",
"154 413 LINE",
"106 331 OFFCURVE",
"90 260 OFFCURVE",
"90 202 CURVE SMOOTH",
"90 76 OFFCURVE",
"192 0 OFFCURVE",
"385 0 CURVE SMOOTH",
"1115 0 LINE"
);
}
);
width = 1614;
}
);
rightMetricsKey = _spacingBehDotless;
unicode = 066E;
},
{
color = 6;
glyphname = "behDotless-ar.fina";
lastChange = "2020-01-05 00:30:16 +0000";
layers = (
{
anchors = (
{
name = bottom;
position = "{418, 0}";
},
{
name = top;
position = "{418, 371}";
}
);
components = (
{
name = "behDotless-ar.medi";
transform = "{1, 0, 0, 1, 580, 0}";
}
);
layerId = "3D0525B3-6B2A-4787-8D58-1F6DD6CCA7DC";
paths = (
{
closed = 1;
nodes = (
"609 102 LINE",
"324 102 LINE SMOOTH",
"213 102 OFFCURVE",
"134 128 OFFCURVE",
"134 226 CURVE SMOOTH",
"134 265 OFFCURVE",
"142 307 OFFCURVE",
"174 377 CURVE",
"94 413 LINE",
"46 331 OFFCURVE",
"30 260 OFFCURVE",
"30 202 CURVE SMOOTH",
"30 76 OFFCURVE",
"128 0 OFFCURVE",
"292 0 CURVE SMOOTH",
"628 0 LINE"
);
}
);
width = 936;
},
{
anchors = (
{
name = bottom;
position = "{781, 0}";
},
{
name = top;
position = "{781, 371}";
}
);
components = (
{
name = "behDotless-ar.medi";
transform = "{0.99342, 0, 0, 0.99342, 1024, 1}";
}
);
layerId = "950578AD-3C55-42C9-B412-F732192F54B4";
paths = (
{
closed = 1;
nodes = (
"1038 102 LINE",
"434 102 LINE SMOOTH",
"277 102 OFFCURVE",
"194 128 OFFCURVE",
"194 226 CURVE SMOOTH",
"194 265 OFFCURVE",
"202 307 OFFCURVE",
"234 377 CURVE",
"154 413 LINE",
"106 331 OFFCURVE",
"90 260 OFFCURVE",
"90 202 CURVE SMOOTH",
"90 76 OFFCURVE",
"192 0 OFFCURVE",
"385 0 CURVE SMOOTH",
"1115 0 LINE"
);
}
);
width = 1739;
}
);
},
{
color = 6;
glyphname = "behDotless-ar.medi";
lastChange = "2020-01-04 23:45:02 +0000";
layers = (
{
anchors = (
{
name = bottom;
position = "{179, 0}";
},
{
name = top;
position = "{226, 350}";
}
);
layerId = "3D0525B3-6B2A-4787-8D58-1F6DD6CCA7DC";
paths = (
{
closed = 1;
nodes = (
"131 68 LINE",
"182 34 OFFCURVE",
"249 0 OFFCURVE",
"357 0 CURVE SMOOTH",
"366 0 LINE",
"366 102 LINE",
"334 102 LINE SMOOTH",
"275 102 OFFCURVE",
"225 114 OFFCURVE",
"186 136 CURVE"
);
},
{
closed = 1;
nodes = (
"0 0 LINE",
"157 0 LINE",
"226 102 OFFCURVE",
"256 192 OFFCURVE",
"285 331 CURVE",
"164 289 LINE",
"159 227 OFFCURVE",
"145 140 OFFCURVE",
"122 102 CURVE",
"0 102 LINE"
);
}
);
width = 366;
},
{
anchors = (
{
name = bottom;
position = "{397, 0}";
},
{
name = top;
position = "{426, 350}";
}
);
layerId = "950578AD-3C55-42C9-B412-F732192F54B4";
paths = (
{
closed = 1;
nodes = (
"331 68 LINE",
"382 34 OFFCURVE",
"498 0 OFFCURVE",
"627 0 CURVE SMOOTH",
"720 0 LINE",
"720 102 LINE",
"604 102 LINE SMOOTH",
"524 102 OFFCURVE",
"425 114 OFFCURVE",
"386 136 CURVE"
);
},
{
closed = 1;
nodes = (
"0 0 LINE",
"357 0 LINE",
"426 102 OFFCURVE",
"456 192 OFFCURVE",
"485 331 CURVE",
"364 289 LINE",
"359 227 OFFCURVE",
"345 140 OFFCURVE",
"322 102 CURVE",
"0 102 LINE"
);
}
);
width = 720;
}
);
},
{
color = 6;
glyphname = "behDotless-ar.medi.wide";
lastChange = "2020-01-04 23:45:02 +0000";
layers = (
{
anchors = (
{
name = bottom;
position = "{199, 0}";
},
{
name = top;
position = "{246, 350}";
}
);
layerId = "3D0525B3-6B2A-4787-8D58-1F6DD6CCA7DC";
paths = (
{
closed = 1;
nodes = (
"151 68 LINE",
"202 34 OFFCURVE",
"269 0 OFFCURVE",
"377 0 CURVE SMOOTH",
"406 0 LINE",
"406 102 LINE",
"354 102 LINE SMOOTH",
"295 102 OFFCURVE",
"245 114 OFFCURVE",
"206 136 CURVE"
);
},
{
closed = 1;
nodes = (
"0 0 LINE",
"177 0 LINE",
"246 102 OFFCURVE",
"276 192 OFFCURVE",
"305 331 CURVE",
"184 289 LINE",
"179 227 OFFCURVE",
"165 140 OFFCURVE",
"142 102 CURVE",
"0 102 LINE"
);
}
);
width = 406;
},
{
anchors = (
{
name = bottom;
position = "{397, 0}";
},
{
name = top;
position = "{426, 350}";
}
);
layerId = "950578AD-3C55-42C9-B412-F732192F54B4";
paths = (
{
closed = 1;
nodes = (
"331 68 LINE",
"382 34 OFFCURVE",
"498 0 OFFCURVE",
"627 0 CURVE SMOOTH",
"720 0 LINE",
"720 102 LINE",
"604 102 LINE SMOOTH",
"524 102 OFFCURVE",
"425 114 OFFCURVE",
"386 136 CURVE"
);
},
{
closed = 1;
nodes = (
"0 0 LINE",
"357 0 LINE",
"426 102 OFFCURVE",
"456 192 OFFCURVE",
"485 331 CURVE",
"364 289 LINE",
"359 227 OFFCURVE",
"345 140 OFFCURVE",
"322 102 CURVE",
"0 102 LINE"
);
}
);
width = 720;
}
);
},
{
color = 6;
glyphname = "behDotless-ar.init";
lastChange = "2020-01-04 23:45:02 +0000";
layers = (
{
anchors = (
{
name = bottom;
position = "{158, 0}";
},
{
name = top;
position = "{151, 438}";
}
);
layerId = "3D0525B3-6B2A-4787-8D58-1F6DD6CCA7DC";
paths = (
{
closed = 1;
nodes = (
"0 0 LINE",
"243 0 LINE",
"306 176 OFFCURVE",
"253 311 OFFCURVE",
"195 438 CURVE",
"104 346 LINE",
"149 263 OFFCURVE",
"179 192 OFFCURVE",
"179 102 CURVE",
"0 102 LINE"
);
}
);
width = 341;
},
{
anchors = (
{
name = bottom;
position = "{277, 0}";
},
{
name = top;
position = "{270, 438}";
}
);
layerId = "950578AD-3C55-42C9-B412-F732192F54B4";
paths = (
{
closed = 1;
nodes = (
"0 0 LINE",
"362 0 LINE",
"425 176 OFFCURVE",
"372 311 OFFCURVE",
"294 438 CURVE",
"203 346 LINE",
"268 263 OFFCURVE",
"298 192 OFFCURVE",
"298 102 CURVE",
"0 102 LINE"
);
}
);
width = 593;
}
);
rightMetricsKey = "behDotless-ar";
},
{
color = 6;
glyphname = "behDotless-ar.init.wide";
lastChange = "2020-01-04 23:45:02 +0000";
layers = (
{
anchors = (
{
name = bottom;
position = "{178, 0}";
},
{
name = top;
position = "{171, 438}";
}
);
layerId = "3D0525B3-6B2A-4787-8D58-1F6DD6CCA7DC";
paths = (
{
closed = 1;
nodes = (
"0 0 LINE",
"263 0 LINE",
"326 176 OFFCURVE",
"273 311 OFFCURVE",
"215 438 CURVE",
"124 346 LINE",
"169 263 OFFCURVE",
"199 192 OFFCURVE",
"199 102 CURVE",
"0 102 LINE"
);
}
);
width = 361;
},
{
anchors = (
{
name = bottom;
position = "{277, 0}";
},
{
name = top;
position = "{270, 438}";
}
);
layerId = "950578AD-3C55-42C9-B412-F732192F54B4";
paths = (
{
closed = 1;
nodes = (
"0 0 LINE",
"362 0 LINE",
"425 176 OFFCURVE",
"372 311 OFFCURVE",
"294 438 CURVE",
"203 346 LINE",
"268 263 OFFCURVE",
"298 192 OFFCURVE",
"298 102 CURVE",
"0 102 LINE"
);
}
);
width = 593;
}
);
rightMetricsKey = "behDotless-ar";
},
{
color = 6;
glyphname = "hah-ar";
layers = (
{
anchors = (
{
name = bottom;
position = "{419, -456}";
},
{
name = center;
position = "{420, -124}";
},
{
name = top;
position = "{305, 421}";
}
);
layerId = "3D0525B3-6B2A-4787-8D58-1F6DD6CCA7DC";
paths = (
{
closed = 1;
nodes = (
"636 -338 OFFCURVE",
"563 -354 OFFCURVE",
"452 -354 CURVE SMOOTH",
"258 -354 OFFCURVE",
"164 -285 OFFCURVE",
"164 -166 CURVE SMOOTH",
"164 17 OFFCURVE",
"349 102 OFFCURVE",
"677 195 CURVE",
"677 280 LINE",
"588 280 OFFCURVE",
"445 421 OFFCURVE",
"305 421 CURVE SMOOTH",
"199 421 OFFCURVE",
"107 344 OFFCURVE",
"66 255 CURVE",
"126 211 LINE",
"168 280 OFFCURVE",
"221 319 OFFCURVE",
"288 319 CURVE SMOOTH",
"399 319 OFFCURVE",
"559 195 OFFCURVE",
"614 195 CURVE",
"537 251 LINE",
"210 148 OFFCURVE",
"60 24 OFFCURVE",
"60 -181 CURVE SMOOTH",
"60 -362 OFFCURVE",
"213 -456 OFFCURVE",
"419 -456 CURVE SMOOTH",
"546 -456 OFFCURVE",
"636 -434 OFFCURVE",
"753 -385 CURVE",
"732 -442 LINE",
"679 -270 LINE",
"726 -304 LINE"
);
}
);
width = 739;
},
{
anchors = (
{
name = bottom;
position = "{654, -456}";
},
{
name = center;
position = "{655, -124}";
},
{
name = top;
position = "{458, 421}";
}
);
layerId = "950578AD-3C55-42C9-B412-F732192F54B4";
paths = (
{
closed = 1;
nodes = (
"991 -338 OFFCURVE",
"848 -354 OFFCURVE",
"687 -354 CURVE SMOOTH",
"442 -354 OFFCURVE",
"278 -295 OFFCURVE",
"278 -166 CURVE SMOOTH",
"278 29 OFFCURVE",
"553 102 OFFCURVE",
"1041 195 CURVE",
"1041 280 LINE",
"952 280 OFFCURVE",
"643 421 OFFCURVE",
"458 421 CURVE SMOOTH",
"309 421 OFFCURVE",
"221 344 OFFCURVE",
"180 255 CURVE",
"240 211 LINE",
"282 280 OFFCURVE",
"331 319 OFFCURVE",
"425 319 CURVE SMOOTH",
"598 319 OFFCURVE",
"923 195 OFFCURVE",
"978 195 CURVE",
"901 251 LINE",
"403 178 OFFCURVE",
"174 36 OFFCURVE",
"174 -181 CURVE SMOOTH",
"174 -372 OFFCURVE",
"397 -456 OFFCURVE",
"654 -456 CURVE SMOOTH",
"825 -456 OFFCURVE",
"991 -434 OFFCURVE",
"1117 -385 CURVE",
"1096 -442 LINE",
"1043 -270 LINE",
"1090 -304 LINE"
);
}
);
width = 1220;
}
);
unicode = 062D;
},
{
color = 6;
glyphname = "hah-ar.fina";
lastChange = "2020-01-05 00:30:40 +0000";
layers = (
{
components = (
{
name = "hah-ar";
}
);
layerId = "3D0525B3-6B2A-4787-8D58-1F6DD6CCA7DC";
paths = (
{
closed = 1;
nodes = (
"504 41 OFFCURVE",
"566 0 OFFCURVE",
"689 0 CURVE SMOOTH",
"725 0 LINE",
"725 102 LINE",
"692 102 LINE SMOOTH",
"607 102 OFFCURVE",
"568 120 OFFCURVE",
"547 167 CURVE",
"477 133 LINE"
);
}
);
width = 725;
},
{
components = (
{
name = "hah-ar";
}
);
layerId = "950578AD-3C55-42C9-B412-F732192F54B4";
paths = (
{
closed = 1;
nodes = (
"769 41 OFFCURVE",
"831 0 OFFCURVE",
"1045 0 CURVE SMOOTH",
"1181 0 LINE",
"1181 102 LINE",
"1048 102 LINE SMOOTH",
"872 102 OFFCURVE",
"833 120 OFFCURVE",
"812 167 CURVE",
"742 133 LINE"
);
}
);
width = 1181;
}
);
unicode = FEA2;
},
{
color = 6;
glyphname = "hah-ar.medi";
layers = (
{
components = (
{
name = "hah-ar.init";
}
);
layerId = "3D0525B3-6B2A-4787-8D58-1F6DD6CCA7DC";
paths = (
{
closed = 1;
nodes = (
"544 41 OFFCURVE",
"606 0 OFFCURVE",
"729 0 CURVE SMOOTH",
"765 0 LINE",
"765 102 LINE",
"732 102 LINE SMOOTH",
"647 102 OFFCURVE",
"608 120 OFFCURVE",
"587 167 CURVE",
"517 133 LINE"
);
}
);
width = 765;
},
{
components = (
{
name = "hah-ar.init";
}
);
layerId = "950578AD-3C55-42C9-B412-F732192F54B4";
paths = (
{
closed = 1;
nodes = (
"804 41 OFFCURVE",
"866 0 OFFCURVE",
"1080 0 CURVE SMOOTH",
"1185 0 LINE",
"1185 102 LINE",
"1083 102 LINE SMOOTH",
"907 102 OFFCURVE",
"868 120 OFFCURVE",
"847 167 CURVE",
"777 133 LINE"
);
}
);
width = 1185;
}
);
unicode = FEA4;
},
{
color = 6;
glyphname = "hah-ar.init";
layers = (
{
anchors = (
{
name = bottom;
position = "{320, 0}";
},
{
name = top;
position = "{250, 438}";
}
);
layerId = "3D0525B3-6B2A-4787-8D58-1F6DD6CCA7DC";
paths = (
{
closed = 1;
nodes = (
"129 313 OFFCURVE",
"188 334 OFFCURVE",
"236 334 CURVE SMOOTH",
"371 334 OFFCURVE",
"531 177 OFFCURVE",
"687 177 CURVE",
"687 267 LINE",
"611 267 OFFCURVE",
"535 230 OFFCURVE",
"462 191 CURVE SMOOTH",
"371 142 OFFCURVE",
"279 102 OFFCURVE",
"29 102 CURVE SMOOTH",
"0 102 LINE",
"0 0 LINE",
"23 0 LINE SMOOTH",
"306 0 OFFCURVE",
"418 60 OFFCURVE",
"509 108 CURVE SMOOTH",
"582 147 OFFCURVE",
"639 177 OFFCURVE",
"687 177 CURVE",
"687 267 LINE",
"539 267 OFFCURVE",
"410 438 OFFCURVE",
"250 438 CURVE SMOOTH",
"159 438 OFFCURVE",
"73 387 OFFCURVE",
"21 243 CURVE",
"-13 313 LINE",
"153 229 LINE",
"87 198 LINE"
);
}
);
width = 727;
},
{
anchors = (
{
name = bottom;
position = "{442, 0}";
},
{
name = top;
position = "{372, 438}";
}
);
layerId = "950578AD-3C55-42C9-B412-F732192F54B4";
paths = (
{
closed = 1;
nodes = (
"201 313 OFFCURVE",
"250 334 OFFCURVE",
"358 334 CURVE SMOOTH",
"518 334 OFFCURVE",
"746 177 OFFCURVE",
"963 177 CURVE",
"963 267 LINE",
"887 267 OFFCURVE",
"811 230 OFFCURVE",
"738 191 CURVE SMOOTH",
"615 125 OFFCURVE",
"409 102 OFFCURVE",
"101 102 CURVE SMOOTH",
"0 102 LINE",
"0 0 LINE",
"95 0 LINE SMOOTH",
"437 0 OFFCURVE",
"665 45 OFFCURVE",
"785 108 CURVE SMOOTH",
"858 147 OFFCURVE",
"915 177 OFFCURVE",
"963 177 CURVE",
"963 267 LINE",
"754 267 OFFCURVE",
"557 438 OFFCURVE",
"372 438 CURVE SMOOTH",
"241 438 OFFCURVE",
"145 387 OFFCURVE",
"93 243 CURVE",
"59 313 LINE",
"225 229 LINE",
"159 198 LINE"
);
}
);
width = 1105;
}
);
unicode = FEA3;
},
{
color = 6;
glyphname = "dal-ar";
layers = (
{
anchors = (
{
name = "#entry";
position = "{427, 0}";
},
{
name = bottom;
position = "{242, 0}";
},
{
name = top;
position = "{253, 487}";
}
);
layerId = "3D0525B3-6B2A-4787-8D58-1F6DD6CCA7DC";
paths = (
{
closed = 1;
nodes = (
"427 0 LINE",
"455 200 OFFCURVE",
"399 331 OFFCURVE",
"253 487 CURVE",
"175 388 LINE",
"279 295 OFFCURVE",
"319 212 OFFCURVE",
"339 102 CURVE",
"40 102 LINE",
"59 0 LINE"
);
}
);
width = 494;
},
{
anchors = (
{
name = "#entry";
position = "{758, 0}";
},
{
name = bottom;
position = "{478, 0}";
},
{
name = top;
position = "{464, 487}";
}
);
layerId = "950578AD-3C55-42C9-B412-F732192F54B4";
paths = (
{
closed = 1;
nodes = (
"758 0 LINE",
"786 200 OFFCURVE",
"680 342 OFFCURVE",
"464 487 CURVE",
"390 386 LINE",
"564 277 OFFCURVE",
"646 200 OFFCURVE",
"670 102 CURVE",
"116 102 LINE",
"135 0 LINE"
);
}
);
width = 936;
}
);
rightMetricsKey = _spacingDal;
unicode = 062F;
},
{
color = 6;
glyphname = "dal-ar.fina";
lastChange = "2020-01-05 00:31:19 +0000";
layers = (
{
anchors = (
{
name = bottom;
position = "{242, 0}";
},
{
name = top;
position = "{283, 487}";
}
);
layerId = "3D0525B3-6B2A-4787-8D58-1F6DD6CCA7DC";
paths = (
{
closed = 1;
nodes = (
"319 0 LINE",
"383 0 OFFCURVE",
"440 14 OFFCURVE",
"459 56 CURVE",
"423 138 LINE",
"408 115 OFFCURVE",
"383 102 OFFCURVE",
"319 102 CURVE SMOOTH",
"40 102 LINE",
"59 0 LINE"
);
},
{
closed = 1;
nodes = (
"370 131 LINE SMOOTH",
"430 38 OFFCURVE",
"481 0 OFFCURVE",
"562 0 CURVE SMOOTH",
"572 0 LINE",
"572 102 LINE",
"562 102 LINE SMOOTH",
"516 102 OFFCURVE",
"494 122 OFFCURVE",
"458 185 CURVE SMOOTH",
"283 487 LINE",
"205 388 LINE"
);
}
);
width = 572;
},
{
anchors = (
{
name = bottom;
position = "{445, 0}";
},
{
name = top;
position = "{472, 487}";
}
);
layerId = "950578AD-3C55-42C9-B412-F732192F54B4";
paths = (
{
closed = 1;
nodes = (
"608 0 LINE",
"672 0 OFFCURVE",
"729 14 OFFCURVE",
"748 56 CURVE",
"712 138 LINE",
"697 115 OFFCURVE",
"672 102 OFFCURVE",
"608 102 CURVE SMOOTH",
"116 102 LINE",
"135 0 LINE"
);
},
{
closed = 1;
nodes = (
"659 131 LINE SMOOTH",
"750 42 OFFCURVE",
"811 0 OFFCURVE",
"932 0 CURVE SMOOTH",
"1078 0 LINE",
"1078 102 LINE",
"964 102 LINE SMOOTH",
"867 102 OFFCURVE",
"811 124 OFFCURVE",
"747 192 CURVE SMOOTH",
"472 487 LINE",
"394 388 LINE"
);
}
);
width = 1078;
}
);
leftMetricsKey = "dal-ar";
unicode = FEAA;
},
{
color = 6;
glyphname = "reh-ar";
layers = (
{
anchors = (
{
name = bottom;
position = "{103, -230}";
},
{
name = top;
position = "{196, 378}";
}
);
layerId = "3D0525B3-6B2A-4787-8D58-1F6DD6CCA7DC";
paths = (
{
closed = 1;
nodes = (
"261 197 OFFCURVE",
"288 134 OFFCURVE",
"288 81 CURVE SMOOTH",
"288 -41 OFFCURVE",
"207 -128 OFFCURVE",
"87 -128 CURVE SMOOTH",
"41 -128 OFFCURVE",
"-26 -105 OFFCURVE",
"-71 -83 CURVE",
"-21 -51 LINE",
"-111 -221 LINE",
"-101 -148 LINE",
"-40 -205 OFFCURVE",
"41 -230 OFFCURVE",
"103 -230 CURVE SMOOTH",
"294 -230 OFFCURVE",
"382 -60 OFFCURVE",
"382 81 CURVE SMOOTH",
"382 186 OFFCURVE",
"340 271 OFFCURVE",
"235 413 CURVE",
"161 320 LINE"
);
}
);
width = 442;
},
{
anchors = (
{
name = bottom;
position = "{297, -230}";
},
{
name = top;
position = "{480, 378}";
}
);
layerId = "950578AD-3C55-42C9-B412-F732192F54B4";
paths = (
{
closed = 1;
nodes = (
"535 197 OFFCURVE",
"562 134 OFFCURVE",
"562 81 CURVE SMOOTH",
"562 -41 OFFCURVE",
"459 -128 OFFCURVE",
"281 -128 CURVE SMOOTH",
"155 -128 OFFCURVE",
"88 -105 OFFCURVE",
"43 -83 CURVE",
"93 -51 LINE",
"3 -221 LINE",
"13 -148 LINE",
"74 -205 OFFCURVE",
"183 -230 OFFCURVE",
"297 -230 CURVE SMOOTH",
"546 -230 OFFCURVE",
"656 -60 OFFCURVE",
"656 81 CURVE SMOOTH",
"656 186 OFFCURVE",
"614 271 OFFCURVE",
"509 413 CURVE",
"435 320 LINE"
);
}
);
width = 830;
}
);
rightMetricsKey = _spacingDal;
unicode = 0631;
},
{
color = 6;
glyphname = "reh-ar.yeh";
lastChange = "2020-01-05 00:19:22 +0000";
layers = (
{
anchors = (
{
name = bottom;
position = "{33, -230}";
},
{
name = top;
position = "{126, 378}";
}
);
layerId = "3D0525B3-6B2A-4787-8D58-1F6DD6CCA7DC";
paths = (
{
closed = 1;
nodes = (
"224 -230 OFFCURVE",
"312 -60 OFFCURVE",
"312 81 CURVE SMOOTH",
"312 186 OFFCURVE",
"270 271 OFFCURVE",
"165 413 CURVE",
"91 320 LINE",
"191 197 OFFCURVE",
"218 134 OFFCURVE",
"218 81 CURVE SMOOTH",
"218 -41 OFFCURVE",
"137 -128 OFFCURVE",
"17 -128 CURVE SMOOTH",
"-3 -128 OFFCURVE",
"-26 -124 OFFCURVE",
"-50 -117 CURVE",
"-81 -206 LINE",
"-41 -222 OFFCURVE",
"-1 -230 OFFCURVE",
"33 -230 CURVE SMOOTH"
);
}
);
width = 372;
},
{
anchors = (
{
name = bottom;
position = "{297, -230}";
},
{
name = top;
position = "{480, 378}";
}
);
layerId = "950578AD-3C55-42C9-B412-F732192F54B4";
paths = (
{
closed = 1;
nodes = (
"546 -230 OFFCURVE",
"656 -60 OFFCURVE",
"656 81 CURVE SMOOTH",
"656 186 OFFCURVE",
"614 271 OFFCURVE",
"509 413 CURVE",
"435 320 LINE",
"535 197 OFFCURVE",
"562 134 OFFCURVE",
"562 81 CURVE SMOOTH",
"562 -41 OFFCURVE",
"459 -128 OFFCURVE",
"281 -128 CURVE SMOOTH",
"178 -128 OFFCURVE",
"114 -113 OFFCURVE",
"70 -95 CURVE",
"33 -164 LINE",
"96 -210 OFFCURVE",
"195 -230 OFFCURVE",
"297 -230 CURVE SMOOTH"
);
}
);
width = 830;
}
);
leftMetricsKey = "reh-ar";
rightMetricsKey = _spacingDal;
},
{
color = 6;
glyphname = "reh-ar.fina";
lastChange = "2020-01-05 00:31:34 +0000";
layers = (
{
anchors = (
{
name = "#entry";
position = "{373, 0}";
},
{
name = bottom;
position = "{103, -230}";
},
{
name = top;
position = "{196, 378}";
}
);
layerId = "3D0525B3-6B2A-4787-8D58-1F6DD6CCA7DC";
paths = (
{
closed = 1;
nodes = (
"243 192 LINE",
"269 151 OFFCURVE",
"288 126 OFFCURVE",
"288 81 CURVE",
"288 -41 OFFCURVE",
"207 -128 OFFCURVE",
"87 -128 CURVE SMOOTH",
"41 -128 OFFCURVE",
"-26 -105 OFFCURVE",
"-71 -83 CURVE",
"-21 -51 LINE",
"-111 -221 LINE",
"-101 -148 LINE",
"-40 -205 OFFCURVE",
"41 -230 OFFCURVE",
"103 -230 CURVE SMOOTH",
"294 -230 OFFCURVE",
"382 -60 OFFCURVE",
"382 81 CURVE"
);
},
{
closed = 1;
nodes = (
"282 131 LINE SMOOTH",
"341 38 OFFCURVE",
"393 0 OFFCURVE",
"484 0 CURVE SMOOTH",
"494 0 LINE",
"494 102 LINE",
"484 102 LINE SMOOTH",
"428 102 OFFCURVE",
"407 122 OFFCURVE",
"370 185 CURVE SMOOTH",
"235 413 LINE",
"161 320 LINE"
);
}
);
width = 494;
},
{
anchors = (
{
name = "#entry";
position = "{631, 0}";
},
{
name = bottom;
position = "{284, -230}";
},
{
name = top;
position = "{408, 378}";
}
);
layerId = "950578AD-3C55-42C9-B412-F732192F54B4";
paths = (
{
closed = 1;
nodes = (
"483 178 LINE",
"515 137 OFFCURVE",
"549 113 OFFCURVE",
"549 68 CURVE SMOOTH",
"549 -32 OFFCURVE",
"436 -128 OFFCURVE",
"268 -128 CURVE SMOOTH",
"165 -128 OFFCURVE",
"75 -103 OFFCURVE",
"30 -83 CURVE",
"80 -51 LINE",
"16 -230 LINE",
"-4 -166 LINE",
"70 -205 OFFCURVE",
"161 -230 OFFCURVE",
"284 -230 CURVE SMOOTH",
"535 -230 OFFCURVE",
"631 -60 OFFCURVE",
"643 81 CURVE"
);
},
{
closed = 1;
nodes = (
"523 131 LINE SMOOTH",
"595 46 OFFCURVE",
"661 0 OFFCURVE",
"802 0 CURVE SMOOTH",
"963 0 LINE",
"963 102 LINE",
"820 102 LINE SMOOTH",
"711 102 OFFCURVE",
"657 132 OFFCURVE",
"611 191 CURVE SMOOTH",
"436 413 LINE",
"362 320 LINE"
);
}
);
width = 963;
}
);
leftMetricsKey = "reh-ar";
unicode = FEAE;
},
{
color = 6;
glyphname = "reh-ar.fina.yeh";
lastChange = "2020-01-05 00:45:34 +0000";
layers = (
{
anchors = (
{
name = "#entry";
position = "{303, 0}";
},
{
name = bottom;
position = "{33, -230}";
},
{
name = top;
position = "{126, 378}";
}
);
layerId = "3D0525B3-6B2A-4787-8D58-1F6DD6CCA7DC";
paths = (
{
closed = 1;
nodes = (
"173 192 LINE",
"199 151 OFFCURVE",
"218 126 OFFCURVE",
"218 81 CURVE",
"218 -41 OFFCURVE",
"137 -128 OFFCURVE",
"17 -128 CURVE SMOOTH",
"-29 -128 OFFCURVE",
"-96 -105 OFFCURVE",
"-141 -83 CURVE",
"-36 -79 LINE",
"-96 -249 LINE",
"-171 -148 LINE",
"-110 -205 OFFCURVE",
"-29 -230 OFFCURVE",
"33 -230 CURVE SMOOTH",
"224 -230 OFFCURVE",
"312 -60 OFFCURVE",
"312 81 CURVE"
);
},
{
closed = 1;
nodes = (
"212 131 LINE SMOOTH",
"271 38 OFFCURVE",
"323 0 OFFCURVE",
"414 0 CURVE SMOOTH",
"424 0 LINE",
"424 102 LINE",
"414 102 LINE SMOOTH",
"358 102 OFFCURVE",
"337 122 OFFCURVE",
"300 185 CURVE SMOOTH",
"165 413 LINE",
"91 320 LINE"
);
}
);
width = 424;
},
{
anchors = (
{
name = "#entry";
position = "{631, 0}";
},
{
name = bottom;
position = "{284, -230}";
},
{
name = top;
position = "{408, 378}";
}
);
layerId = "950578AD-3C55-42C9-B412-F732192F54B4";
paths = (
{
closed = 1;
nodes = (
"483 178 LINE",
"515 137 OFFCURVE",
"549 113 OFFCURVE",
"549 68 CURVE SMOOTH",
"549 -32 OFFCURVE",
"436 -128 OFFCURVE",
"268 -128 CURVE SMOOTH",
"165 -128 OFFCURVE",
"75 -103 OFFCURVE",
"30 -83 CURVE",
"80 -51 LINE",
"16 -230 LINE",
"-4 -166 LINE",
"70 -205 OFFCURVE",
"161 -230 OFFCURVE",
"284 -230 CURVE SMOOTH",
"535 -230 OFFCURVE",
"631 -60 OFFCURVE",
"643 81 CURVE"
);
},
{
closed = 1;
nodes = (
"523 131 LINE SMOOTH",
"595 46 OFFCURVE",
"661 0 OFFCURVE",
"802 0 CURVE SMOOTH",
"963 0 LINE",
"963 102 LINE",
"820 102 LINE SMOOTH",
"711 102 OFFCURVE",
"657 132 OFFCURVE",
"611 191 CURVE SMOOTH",
"436 413 LINE",
"362 320 LINE"
);
}
);
width = 963;
}
);
leftMetricsKey = "reh-ar";
},
{
color = 6;
glyphname = "seen-ar";
layers = (
{
anchors = (
{
name = bottom;
position = "{848, 0}";
},
{
name = top;
position = "{874, 333}";
}
);
components = (
{
name = "noonghunna-ar";
}
);
layerId = "3D0525B3-6B2A-4787-8D58-1F6DD6CCA7DC";
paths = (
{
closed = 1;
nodes = (
"793 68 LINE",
"844 34 OFFCURVE",
"911 0 OFFCURVE",
"1019 0 CURVE SMOOTH",
"1188 0 LINE",
"1251 176 OFFCURVE",
"1198 311 OFFCURVE",
"1140 438 CURVE",
"1049 346 LINE",
"1094 263 OFFCURVE",
"1124 192 OFFCURVE",
"1124 102 CURVE",
"996 102 LINE SMOOTH",
"937 102 OFFCURVE",
"887 114 OFFCURVE",
"848 136 CURVE"
);
},
{
closed = 1;
nodes = (
"621 0 LINE",
"789 0 LINE",
"858 102 OFFCURVE",
"898 192 OFFCURVE",
"927 331 CURVE",
"806 289 LINE",
"801 227 OFFCURVE",
"777 140 OFFCURVE",
"754 102 CURVE",
"621 102 LINE"
);
}
);
width = 1286;
},
{
anchors = (
{
name = bottom;
position = "{1181, 0}";
},
{
name = top;
position = "{1207, 333}";
}
);
components = (
{
name = "noonghunna-ar";
}
);
layerId = "950578AD-3C55-42C9-B412-F732192F54B4";
paths = (
{
closed = 1;
nodes = (
"1133 68 LINE",
"1184 34 OFFCURVE",
"1251 0 OFFCURVE",
"1359 0 CURVE SMOOTH",
"1653 0 LINE",
"1716 176 OFFCURVE",
"1663 311 OFFCURVE",
"1585 438 CURVE",
"1494 346 LINE",
"1559 263 OFFCURVE",
"1589 192 OFFCURVE",
"1589 102 CURVE",
"1336 102 LINE SMOOTH",
"1277 102 OFFCURVE",
"1227 114 OFFCURVE",
"1188 136 CURVE"
);
},
{
closed = 1;
nodes = (
"872 0 LINE",
"1129 0 LINE",
"1198 102 OFFCURVE",
"1238 192 OFFCURVE",
"1267 331 CURVE",
"1146 289 LINE",
"1141 227 OFFCURVE",
"1117 140 OFFCURVE",
"1094 102 CURVE",
"872 102 LINE"
);
}
);
width = 1884;
}
);
leftMetricsKey = "noon-ar";
rightMetricsKey = "behDotless-ar";
unicode = 0633;
},
{
color = 6;
glyphname = "seen-ar.fina";
lastChange = "2020-01-05 00:31:59 +0000";
layers = (
{
anchors = (
{
name = bottom;
position = "{848, 0}";
},
{
name = top;
position = "{864, 333}";
}
);
components = (
{
name = "noonghunna-ar";
}
);
layerId = "3D0525B3-6B2A-4787-8D58-1F6DD6CCA7DC";
paths = (
{
closed = 1;
nodes = (
"621 0 LINE",
"789 0 LINE",
"858 102 OFFCURVE",
"888 192 OFFCURVE",
"917 331 CURVE",
"796 289 LINE",
"791 227 OFFCURVE",
"777 140 OFFCURVE",
"754 102 CURVE",
"621 102 LINE"
);
},
{
closed = 1;
nodes = (
"795 68 LINE",
"846 34 OFFCURVE",
"913 0 OFFCURVE",
"1021 0 CURVE SMOOTH",
"1190 0 LINE",
"1225 136 OFFCURVE",
"1208 265 OFFCURVE",
"1190 392 CURVE",
"1075 315 LINE",
"1104 232 OFFCURVE",
"1116 192 OFFCURVE",
"1126 102 CURVE",
"998 102 LINE SMOOTH",
"939 102 OFFCURVE",
"889 114 OFFCURVE",
"850 136 CURVE"
);
},
{
closed = 1;
nodes = (
"1124 46 LINE",
"1170 21 OFFCURVE",
"1229 0 OFFCURVE",
"1314 0 CURVE SMOOTH",
"1323 0 LINE",
"1323 102 LINE",
"1291 102 LINE SMOOTH",
"1242 102 OFFCURVE",
"1200 110 OFFCURVE",
"1165 125 CURVE"
);
}
);
width = 1323;
},
{
anchors = (
{
name = bottom;
position = "{1159, 0}";
},
{
name = top;
position = "{1175, 333}";
}
);
components = (
{
name = "noonghunna-ar";
}
);
layerId = "950578AD-3C55-42C9-B412-F732192F54B4";
paths = (
{
closed = 1;
nodes = (
"866 0 LINE",
"1118 0 LINE",
"1187 102 OFFCURVE",
"1217 192 OFFCURVE",
"1246 331 CURVE",
"1125 289 LINE",
"1120 227 OFFCURVE",
"1106 140 OFFCURVE",
"1083 102 CURVE",
"866 102 LINE"
);
},
{
closed = 1;
nodes = (
"1124 68 LINE",
"1175 34 OFFCURVE",
"1242 0 OFFCURVE",
"1350 0 CURVE SMOOTH",
"1651 0 LINE",
"1686 136 OFFCURVE",
"1669 265 OFFCURVE",
"1651 392 CURVE",
"1536 315 LINE",
"1565 232 OFFCURVE",
"1577 192 OFFCURVE",
"1587 102 CURVE",
"1327 102 LINE SMOOTH",
"1268 102 OFFCURVE",
"1218 114 OFFCURVE",
"1179 136 CURVE"
);
},
{
closed = 1;
nodes = (
"1577 68 LINE",
"1628 34 OFFCURVE",
"1744 0 OFFCURVE",
"1873 0 CURVE SMOOTH",
"1966 0 LINE",
"1966 102 LINE",
"1850 102 LINE SMOOTH",
"1770 102 OFFCURVE",
"1671 114 OFFCURVE",
"1632 136 CURVE"
);
}
);
width = 1966;
}
);
unicode = FEB2;
},
{
color = 6;
glyphname = "seen-ar.medi";
layers = (
{
anchors = (
{
name = bottom;
position = "{479, 0}";
},
{
name = top;
position = "{493, 333}";
}
);
layerId = "3D0525B3-6B2A-4787-8D58-1F6DD6CCA7DC";
paths = (
{
closed = 1;
nodes = (
"432 68 LINE",
"483 34 OFFCURVE",
"550 0 OFFCURVE",
"658 0 CURVE SMOOTH",
"827 0 LINE",
"862 136 OFFCURVE",
"845 265 OFFCURVE",
"827 392 CURVE",
"712 315 LINE",
"741 232 OFFCURVE",
"753 192 OFFCURVE",
"763 102 CURVE",
"635 102 LINE SMOOTH",
"576 102 OFFCURVE",
"526 114 OFFCURVE",
"487 136 CURVE"
);
},
{
closed = 1;
nodes = (
"254 102 OFFCURVE",
"204 114 OFFCURVE",
"165 136 CURVE",
"110 68 LINE",
"161 34 OFFCURVE",
"228 0 OFFCURVE",
"336 0 CURVE SMOOTH",
"428 0 LINE",
"497 102 OFFCURVE",
"527 192 OFFCURVE",
"556 331 CURVE",
"435 289 LINE",
"430 227 OFFCURVE",
"416 140 OFFCURVE",
"393 102 CURVE",
"313 102 LINE SMOOTH"
);
},
{
closed = 1;
nodes = (
"0 0 LINE",
"168 0 LINE",
"237 102 OFFCURVE",
"267 192 OFFCURVE",
"296 331 CURVE",
"175 289 LINE",
"170 227 OFFCURVE",
"156 140 OFFCURVE",
"133 102 CURVE",
"0 102 LINE"
);
},
{
closed = 1;
nodes = (
"761 46 LINE",
"807 21 OFFCURVE",
"866 0 OFFCURVE",
"951 0 CURVE SMOOTH",
"960 0 LINE",
"960 102 LINE",
"928 102 LINE SMOOTH",
"879 102 OFFCURVE",
"837 110 OFFCURVE",
"802 125 CURVE"
);
}
);
width = 960;
},
{
anchors = (
{
name = bottom;
position = "{661, 0}";
},
{
name = top;
position = "{675, 333}";
}
);
layerId = "950578AD-3C55-42C9-B412-F732192F54B4";
paths = (
{
closed = 1;
nodes = (
"614 68 LINE",
"665 34 OFFCURVE",
"732 0 OFFCURVE",
"840 0 CURVE SMOOTH",
"1137 0 LINE",
"1172 136 OFFCURVE",
"1155 265 OFFCURVE",
"1137 392 CURVE",
"1022 315 LINE",
"1051 232 OFFCURVE",
"1063 192 OFFCURVE",
"1073 102 CURVE",
"817 102 LINE SMOOTH",
"758 102 OFFCURVE",
"708 114 OFFCURVE",
"669 136 CURVE"
);
},
{
closed = 1;
nodes = (
"338 102 OFFCURVE",
"288 114 OFFCURVE",
"249 136 CURVE",
"194 68 LINE",
"245 34 OFFCURVE",
"312 0 OFFCURVE",
"420 0 CURVE SMOOTH",
"610 0 LINE",
"679 102 OFFCURVE",
"709 192 OFFCURVE",
"738 331 CURVE",
"617 289 LINE",
"612 227 OFFCURVE",
"598 140 OFFCURVE",
"575 102 CURVE",
"397 102 LINE SMOOTH"
);
},
{
closed = 1;
nodes = (
"0 0 LINE",
"252 0 LINE",
"321 102 OFFCURVE",
"351 192 OFFCURVE",
"380 331 CURVE",
"259 289 LINE",
"254 227 OFFCURVE",
"240 140 OFFCURVE",
"217 102 CURVE",
"0 102 LINE"
);
},
{
closed = 1;
nodes = (
"1062 68 LINE",
"1113 34 OFFCURVE",
"1229 0 OFFCURVE",
"1358 0 CURVE SMOOTH",
"1451 0 LINE",
"1451 102 LINE",
"1335 102 LINE SMOOTH",
"1255 102 OFFCURVE",
"1156 114 OFFCURVE",
"1117 136 CURVE"
);
}
);
width = 1451;
}
);
unicode = FEB4;
},
{
color = 6;
glyphname = "seen-ar.init";
layers = (
{
anchors = (
{
name = bottom;
position = "{479, 0}";
},
{
name = top;
position = "{513, 333}";
}
);
layerId = "3D0525B3-6B2A-4787-8D58-1F6DD6CCA7DC";
paths = (
{
closed = 1;
nodes = (
"432 68 LINE",
"483 34 OFFCURVE",
"550 0 OFFCURVE",
"658 0 CURVE SMOOTH",
"827 0 LINE",
"890 176 OFFCURVE",
"837 311 OFFCURVE",
"779 438 CURVE",
"688 346 LINE",
"733 263 OFFCURVE",
"763 192 OFFCURVE",
"763 102 CURVE",
"635 102 LINE SMOOTH",
"576 102 OFFCURVE",
"526 114 OFFCURVE",
"487 136 CURVE"
);
},
{
closed = 1;
nodes = (
"254 102 OFFCURVE",
"204 114 OFFCURVE",
"165 136 CURVE",
"110 68 LINE",
"161 34 OFFCURVE",
"228 0 OFFCURVE",
"336 0 CURVE SMOOTH",
"428 0 LINE",
"497 102 OFFCURVE",
"537 192 OFFCURVE",
"566 331 CURVE",
"445 289 LINE",
"440 227 OFFCURVE",
"416 140 OFFCURVE",
"393 102 CURVE",
"313 102 LINE SMOOTH"
);
},
{
closed = 1;
nodes = (
"0 0 LINE",
"168 0 LINE",
"237 102 OFFCURVE",
"277 192 OFFCURVE",
"306 331 CURVE",
"185 289 LINE",
"180 227 OFFCURVE",
"156 140 OFFCURVE",
"133 102 CURVE",
"0 102 LINE"
);
}
);
width = 925;
},
{
anchors = (
{
name = bottom;
position = "{666, 0}";
},
{
name = top;
position = "{700, 333}";
}
);
layerId = "950578AD-3C55-42C9-B412-F732192F54B4";
paths = (
{
closed = 1;
nodes = (
"623 68 LINE",
"674 34 OFFCURVE",
"741 0 OFFCURVE",
"849 0 CURVE SMOOTH",
"1143 0 LINE",
"1206 176 OFFCURVE",
"1153 311 OFFCURVE",
"1095 438 CURVE",
"1004 346 LINE",
"1049 263 OFFCURVE",
"1079 192 OFFCURVE",
"1079 102 CURVE",
"826 102 LINE SMOOTH",
"767 102 OFFCURVE",
"717 114 OFFCURVE",
"678 136 CURVE"
);
},
{
closed = 1;
nodes = (
"343 102 OFFCURVE",
"293 114 OFFCURVE",
"254 136 CURVE",
"199 68 LINE",
"250 34 OFFCURVE",
"317 0 OFFCURVE",
"425 0 CURVE SMOOTH",
"619 0 LINE",
"688 102 OFFCURVE",
"728 192 OFFCURVE",
"757 331 CURVE",
"636 289 LINE",
"631 227 OFFCURVE",
"607 140 OFFCURVE",
"584 102 CURVE",
"402 102 LINE SMOOTH"
);
},
{
closed = 1;
nodes = (
"0 0 LINE",
"257 0 LINE",
"326 102 OFFCURVE",
"366 192 OFFCURVE",
"395 331 CURVE",
"274 289 LINE",
"269 227 OFFCURVE",
"245 140 OFFCURVE",
"222 102 CURVE",
"0 102 LINE"
);
}
);
width = 1374;
}
);
rightMetricsKey = "behDotless-ar";
unicode = FEB3;
},
{
color = 6;
glyphname = "sad-ar";
layers = (
{
anchors = (
{
name = "#entry";
position = "{1345, 0}";
},
{
name = bottom;
position = "{1000, 0}";
},
{
name = top;
position = "{1100, 438}";
}
);
components = (
{
name = "noonghunna-ar.fina";
}
);
layerId = "3D0525B3-6B2A-4787-8D58-1F6DD6CCA7DC";
paths = (
{
closed = 1;
nodes = (
"1345 0 LINE",
"1399 244 OFFCURVE",
"1326 438 OFFCURVE",
"1130 438 CURVE SMOOTH",
"985 438 OFFCURVE",
"848 326 OFFCURVE",
"707 94 CURVE",
"777 12 LINE",
"887 222 OFFCURVE",
"1007 334 OFFCURVE",
"1118 334 CURVE SMOOTH",
"1225 334 OFFCURVE",
"1264 247 OFFCURVE",
"1262 102 CURVE",
"743 102 LINE",
"743 0 LINE"
);
}
);
width = 1432;
},
{
anchors = (
{
name = "#entry";
position = "{1903, 0}";
},
{
name = bottom;
position = "{1469, 0}";
},
{
name = top;
position = "{1610, 438}";
}
);
components = (
{
name = "noonghunna-ar.fina";
}
);
layerId = "950578AD-3C55-42C9-B412-F732192F54B4";
paths = (
{
closed = 1;
nodes = (
"1903 0 LINE",
"1957 244 OFFCURVE",
"1844 438 OFFCURVE",
"1610 438 CURVE SMOOTH",
"1415 438 OFFCURVE",
"1218 326 OFFCURVE",
"1057 94 CURVE",
"1127 12 LINE",
"1257 222 OFFCURVE",
"1437 334 OFFCURVE",
"1598 334 CURVE SMOOTH",
"1743 334 OFFCURVE",
"1822 247 OFFCURVE",
"1820 102 CURVE",
"1093 102 LINE",
"1093 0 LINE"
);
}
);
width = 2119;
}
);
leftMetricsKey = "noon-ar";
rightMetricsKey = "behDotless-ar";
unicode = 0635;
},
{
color = 6;
glyphname = "sad-ar.init";
layers = (
{
anchors = (
{
name = "#entry";
position = "{916, 0}";
},
{
name = bottom;
position = "{641, 0}";
},
{
name = top;
position = "{671, 438}";
}
);
components = (
{
name = "behDotless-ar.medi";
}
);
layerId = "3D0525B3-6B2A-4787-8D58-1F6DD6CCA7DC";
paths = (
{
closed = 1;
nodes = (
"916 0 LINE",
"970 244 OFFCURVE",
"897 438 OFFCURVE",
"701 438 CURVE SMOOTH",
"556 438 OFFCURVE",
"419 326 OFFCURVE",
"283 97 CURVE",
"348 12 LINE",
"458 222 OFFCURVE",
"578 334 OFFCURVE",
"689 334 CURVE SMOOTH",
"796 334 OFFCURVE",
"835 247 OFFCURVE",
"833 102 CURVE",
"366 102 LINE",
"366 0 LINE"
);
}
);
width = 1003;
},
{
anchors = (
{
name = "#entry";
position = "{1478, 0}";
},
{
name = bottom;
position = "{1103, 0}";
},
{
name = top;
position = "{1204, 438}";
}
);
components = (
{
name = "behDotless-ar.medi";
}
);
layerId = "950578AD-3C55-42C9-B412-F732192F54B4";
paths = (
{
closed = 1;
nodes = (
"1478 0 LINE",
"1532 244 OFFCURVE",
"1429 438 OFFCURVE",
"1204 438 CURVE SMOOTH",
"1010 438 OFFCURVE",
"831 306 OFFCURVE",
"637 97 CURVE",
"702 12 LINE",
"870 202 OFFCURVE",
"1033 334 OFFCURVE",
"1192 334 CURVE SMOOTH",
"1328 334 OFFCURVE",
"1397 247 OFFCURVE",
"1395 102 CURVE",
"720 102 LINE",
"720 0 LINE"
);
}
);
width = 1695;
}
);
rightMetricsKey = "behDotless-ar";
unicode = FEBB;
},
{
color = 6;
glyphname = "tah-ar";
layers = (
{
anchors = (
{
name = "#entry";
position = "{761, 0}";
},
{
name = bottom;
position = "{453, 0}";
},
{
name = top;
position = "{496, 438}";
}
);
layerId = "3D0525B3-6B2A-4787-8D58-1F6DD6CCA7DC";
paths = (
{
closed = 1;
nodes = (
"761 0 LINE",
"815 244 OFFCURVE",
"742 438 OFFCURVE",
"546 438 CURVE SMOOTH",
"401 438 OFFCURVE",
"264 326 OFFCURVE",
"153 94 CURVE",
"193 12 LINE",
"303 222 OFFCURVE",
"423 334 OFFCURVE",
"534 334 CURVE SMOOTH",
"641 334 OFFCURVE",
"680 247 OFFCURVE",
"678 102 CURVE",
"30 102 LINE",
"30 0 LINE"
);
},
{
closed = 1;
nodes = (
"239 0 LINE",
"239 740 LINE",
"135 738 LINE",
"135 0 LINE"
);
}
);
width = 848;
},
{
anchors = (
{
name = "#entry";
position = "{1081, 0}";
},
{
name = bottom;
position = "{644, 0}";
},
{
name = top;
position = "{757, 438}";
}
);
layerId = "950578AD-3C55-42C9-B412-F732192F54B4";
paths = (
{
closed = 1;
nodes = (
"1081 0 LINE",
"1135 244 OFFCURVE",
"1032 438 OFFCURVE",
"807 438 CURVE SMOOTH",
"613 438 OFFCURVE",
"434 306 OFFCURVE",
"299 148 CURVE",
"305 12 LINE",
"473 207 OFFCURVE",
"636 334 OFFCURVE",
"795 334 CURVE SMOOTH",
"931 334 OFFCURVE",
"1000 247 OFFCURVE",
"998 102 CURVE",
"87 102 LINE",
"87 0 LINE"
);
},
{
closed = 1;
nodes = (
"387 0 LINE",
"387 740 LINE",
"283 738 LINE",
"283 0 LINE"
);
}
);
width = 1298;
}
);
rightMetricsKey = "behDotless-ar";
unicode = 0637;
},
{
color = 6;
glyphname = "tah-ar.init";
layers = (
{
anchors = (
{
name = "#entry";
position = "{731, 0}";
},
{
name = bottom;
position = "{423, 0}";
},
{
name = top;
position = "{466, 438}";
}
);
layerId = "3D0525B3-6B2A-4787-8D58-1F6DD6CCA7DC";
paths = (
{
closed = 1;
nodes = (
"731 0 LINE",
"785 244 OFFCURVE",
"712 438 OFFCURVE",
"516 438 CURVE SMOOTH",
"371 438 OFFCURVE",
"234 326 OFFCURVE",
"123 94 CURVE",
"163 12 LINE",
"273 222 OFFCURVE",
"393 334 OFFCURVE",
"504 334 CURVE SMOOTH",
"611 334 OFFCURVE",
"650 247 OFFCURVE",
"648 102 CURVE",
"0 102 LINE",
"0 0 LINE"
);
},
{
closed = 1;
nodes = (
"209 0 LINE",
"209 740 LINE",
"105 738 LINE",
"105 0 LINE"
);
}
);
width = 818;
},
{
anchors = (
{
name = "#entry";
position = "{1108, 0}";
},
{
name = bottom;
position = "{671, 0}";
},
{
name = top;
position = "{784, 438}";
}
);
layerId = "950578AD-3C55-42C9-B412-F732192F54B4";
paths = (
{
closed = 1;
nodes = (
"1108 0 LINE",
"1162 244 OFFCURVE",
"1059 438 OFFCURVE",
"834 438 CURVE SMOOTH",
"640 438 OFFCURVE",
"461 306 OFFCURVE",
"326 148 CURVE",
"332 12 LINE",
"500 207 OFFCURVE",
"663 334 OFFCURVE",
"822 334 CURVE SMOOTH",
"958 334 OFFCURVE",
"1027 247 OFFCURVE",
"1025 102 CURVE",
"0 102 LINE",
"0 0 LINE"
);
},
{
closed = 1;
nodes = (
"414 0 LINE",
"414 740 LINE",
"310 738 LINE",
"310 0 LINE"
);
}
);
width = 1325;
}
);
rightMetricsKey = "behDotless-ar";
unicode = FEC3;
},
{
color = 6;
glyphname = "ain-ar";
layers = (
{
anchors = (
{
name = bottom;
position = "{359, -456}";
},
{
name = top;
position = "{298, 438}";
}
);
layerId = "3D0525B3-6B2A-4787-8D58-1F6DD6CCA7DC";
paths = (
{
closed = 1;
nodes = (
"499 151 LINE",
"202 120 OFFCURVE",
"20 -21 OFFCURVE",
"20 -208 CURVE SMOOTH",
"20 -372 OFFCURVE",
"173 -456 OFFCURVE",
"359 -456 CURVE SMOOTH",
"451 -456 OFFCURVE",
"544 -448 OFFCURVE",
"663 -395 CURVE",
"642 -452 LINE",
"589 -280 LINE",
"636 -314 LINE",
"564 -341 OFFCURVE",
"483 -354 OFFCURVE",
"392 -354 CURVE SMOOTH",
"218 -354 OFFCURVE",
"124 -297 OFFCURVE",
"124 -194 CURVE SMOOTH",
"124 -79 OFFCURVE",
"243 14 OFFCURVE",
"484 51 CURVE"
);
},
{
closed = 1;
nodes = (
"380 102 LINE",
"233 102 OFFCURVE",
"177 167 OFFCURVE",
"177 236 CURVE SMOOTH",
"177 296 OFFCURVE",
"223 336 OFFCURVE",
"298 336 CURVE SMOOTH",
"349 336 OFFCURVE",
"396 325 OFFCURVE",
"445 295 CURVE",
"396 267 LINE",
"482 430 LINE",
"491 378 LINE",
"438 417 OFFCURVE",
"368 438 OFFCURVE",
"298 438 CURVE SMOOTH",
"166 438 OFFCURVE",
"73 354 OFFCURVE",
"73 236 CURVE SMOOTH",
"73 124 OFFCURVE",
"162 52 OFFCURVE",
"303 16 CURVE"
);
}
);
width = 590;
},
{
anchors = (
{
name = bottom;
position = "{497, -456}";
},
{
name = top;
position = "{426, 438}";
}
);
layerId = "950578AD-3C55-42C9-B412-F732192F54B4";
paths = (
{
closed = 1;
nodes = (
"737 151 LINE",
"327 120 OFFCURVE",
"58 -16 OFFCURVE",
"58 -218 CURVE SMOOTH",
"58 -388 OFFCURVE",
"252 -456 OFFCURVE",
"497 -456 CURVE SMOOTH",
"669 -456 OFFCURVE",
"812 -443 OFFCURVE",
"930 -403 CURVE",
"904 -452 LINE",
"857 -280 LINE",
"904 -314 LINE",
"832 -336 OFFCURVE",
"690 -354 OFFCURVE",
"520 -354 CURVE SMOOTH",
"306 -354 OFFCURVE",
"162 -307 OFFCURVE",
"162 -204 CURVE SMOOTH",
"162 -74 OFFCURVE",
"421 14 OFFCURVE",
"722 51 CURVE"
);
},
{
closed = 1;
nodes = (
"473 89 LINE",
"369 102 OFFCURVE",
"255 153 OFFCURVE",
"255 236 CURVE SMOOTH",
"255 296 OFFCURVE",
"309 336 OFFCURVE",
"426 336 CURVE SMOOTH",
"513 336 OFFCURVE",
"574 322 OFFCURVE",
"623 301 CURVE",
"586 267 LINE",
"649 430 LINE",
"670 385 LINE",
"616 417 OFFCURVE",
"532 438 OFFCURVE",
"426 438 CURVE SMOOTH",
"252 438 OFFCURVE",
"151 354 OFFCURVE",
"151 236 CURVE SMOOTH",
"151 124 OFFCURVE",
"240 52 OFFCURVE",
"399 5 CURVE"
);
}
);
width = 993;
}
);
unicode = 0639;
},
{
color = 6;
glyphname = "ain-ar.fina";
lastChange = "2020-01-05 00:33:23 +0000";
layers = (
{
anchors = (
{
name = bottom;
position = "{359, -456}";
},
{
name = top;
position = "{342, 438}";
}
);
layerId = "3D0525B3-6B2A-4787-8D58-1F6DD6CCA7DC";
paths = (
{
closed = 1;
nodes = (
"386 72 LINE",
"479 127 OFFCURVE",
"546 208 OFFCURVE",
"546 298 CURVE SMOOTH",
"546 398 OFFCURVE",
"470 438 OFFCURVE",
"342 438 CURVE SMOOTH",
"264 438 OFFCURVE",
"187 417 OFFCURVE",
"125 386 CURVE",
"125 251 LINE",
"238 133 LINE SMOOTH",
"310 57 OFFCURVE",
"373 0 OFFCURVE",
"515 0 CURVE SMOOTH",
"616 0 LINE",
"616 102 LINE",
"515 102 LINE SMOOTH",
"427 102 OFFCURVE",
"384 119 OFFCURVE",
"304 203 CURVE SMOOTH",
"164 349 LINE",
"179 306 LINE",
"221 322 OFFCURVE",
"281 336 OFFCURVE",
"342 336 CURVE SMOOTH",
"415 336 OFFCURVE",
"442 316 OFFCURVE",
"442 280 CURVE SMOOTH",
"442 236 OFFCURVE",
"408 173 OFFCURVE",
"302 127 CURVE"
);
},
{
closed = 1;
nodes = (
"284 117 LINE",
"102 42 OFFCURVE",
"20 -62 OFFCURVE",
"20 -195 CURVE SMOOTH",
"20 -361 OFFCURVE",
"173 -456 OFFCURVE",
"359 -456 CURVE SMOOTH",
"451 -456 OFFCURVE",
"544 -448 OFFCURVE",
"663 -395 CURVE",
"642 -452 LINE",
"589 -280 LINE",
"636 -314 LINE",
"564 -341 OFFCURVE",
"483 -354 OFFCURVE",
"392 -354 CURVE SMOOTH",
"218 -354 OFFCURVE",
"124 -285 OFFCURVE",
"124 -180 CURVE SMOOTH",
"124 -79 OFFCURVE",
"198 -10 OFFCURVE",
"352 48 CURVE"
);
}
);
width = 616;
},
{
anchors = (
{
name = bottom;
position = "{497, -456}";
},
{
name = top;
position = "{447, 438}";
}
);
layerId = "950578AD-3C55-42C9-B412-F732192F54B4";
paths = (
{
closed = 1;
nodes = (
"504 102 LINE",
"620 150 OFFCURVE",
"704 220 OFFCURVE",
"702 298 CURVE SMOOTH",
"700 398 OFFCURVE",
"583 438 OFFCURVE",
"447 438 CURVE SMOOTH",
"347 438 OFFCURVE",
"259 417 OFFCURVE",
"163 386 CURVE",
"163 251 LINE",
"336 133 LINE SMOOTH",
"422 75 OFFCURVE",
"491 0 OFFCURVE",
"663 0 CURVE SMOOTH",
"914 0 LINE",
"914 102 LINE",
"663 102 LINE SMOOTH",
"568 102 OFFCURVE",
"496 134 OFFCURVE",
"402 203 CURVE SMOOTH",
"202 349 LINE",
"217 306 LINE",
"290 322 OFFCURVE",
"362 336 OFFCURVE",
"447 336 CURVE SMOOTH",
"528 336 OFFCURVE",
"596 316 OFFCURVE",
"596 280 CURVE SMOOTH",
"596 245 OFFCURVE",
"555 194 OFFCURVE",
"420 157 CURVE"
);
},
{
closed = 1;
nodes = (
"402 147 LINE",
"165 65 OFFCURVE",
"58 -49 OFFCURVE",
"58 -195 CURVE SMOOTH",
"58 -361 OFFCURVE",
"246 -456 OFFCURVE",
"497 -456 CURVE SMOOTH",
"679 -456 OFFCURVE",
"815 -442 OFFCURVE",
"931 -401 CURVE",
"903 -452 LINE",
"857 -280 LINE",
"904 -314 LINE",
"832 -339 OFFCURVE",
"711 -354 OFFCURVE",
"530 -354 CURVE SMOOTH",
"291 -354 OFFCURVE",
"162 -285 OFFCURVE",
"162 -180 CURVE SMOOTH",
"162 -66 OFFCURVE",
"262 12 OFFCURVE",
"470 78 CURVE"
);
}
);
width = 914;
}
);
unicode = FECA;
},
{
color = 6;
glyphname = "ain-ar.medi";
layers = (
{
anchors = (
{
name = bottom;
position = "{302, 0}";
},
{
name = top;
position = "{307, 438}";
}
);
layerId = "3D0525B3-6B2A-4787-8D58-1F6DD6CCA7DC";
paths = (
{
closed = 1;
nodes = (
"90 251 LINE",
"203 133 LINE SMOOTH",
"275 57 OFFCURVE",
"338 0 OFFCURVE",
"529 0 CURVE SMOOTH",
"581 0 LINE",
"581 102 LINE",
"480 102 LINE SMOOTH",
"392 102 OFFCURVE",
"349 119 OFFCURVE",
"269 203 CURVE SMOOTH",
"129 349 LINE",
"144 306 LINE",
"186 322 OFFCURVE",
"246 336 OFFCURVE",
"307 336 CURVE SMOOTH",
"380 336 OFFCURVE",
"407 316 OFFCURVE",
"407 280 CURVE SMOOTH",
"407 213 OFFCURVE",
"293 102 OFFCURVE",
"92 102 CURVE SMOOTH",
"0 102 LINE",
"0 0 LINE",
"50 0 LINE SMOOTH",
"307 0 OFFCURVE",
"511 133 OFFCURVE",
"511 298 CURVE SMOOTH",
"511 398 OFFCURVE",
"435 438 OFFCURVE",
"307 438 CURVE SMOOTH",
"229 438 OFFCURVE",
"152 417 OFFCURVE",
"90 386 CURVE"
);
}
);
width = 581;
},
{
anchors = (
{
name = bottom;
position = "{530, 0}";
},
{
name = top;
position = "{535, 438}";
}
);
layerId = "950578AD-3C55-42C9-B412-F732192F54B4";
paths = (
{
closed = 1;
nodes = (
"261 251 LINE",
"421 133 LINE SMOOTH",
"505 71 OFFCURVE",
"556 0 OFFCURVE",
"818 0 CURVE SMOOTH",
"1013 0 LINE",
"1013 102 LINE",
"769 102 LINE SMOOTH",
"610 102 OFFCURVE",
"579 131 OFFCURVE",
"487 203 CURVE SMOOTH",
"300 349 LINE",
"315 306 LINE",
"357 322 OFFCURVE",
"437 336 OFFCURVE",
"535 336 CURVE SMOOTH",
"645 336 OFFCURVE",
"696 316 OFFCURVE",
"696 280 CURVE SMOOTH",
"696 197 OFFCURVE",
"511 102 OFFCURVE",
"263 102 CURVE SMOOTH",
"0 102 LINE",
"0 0 LINE",
"236 0 LINE SMOOTH",
"505 0 OFFCURVE",
"800 117 OFFCURVE",
"800 298 CURVE SMOOTH",
"800 398 OFFCURVE",
"700 438 OFFCURVE",
"535 438 CURVE SMOOTH",
"420 438 OFFCURVE",
"323 417 OFFCURVE",
"261 386 CURVE"
);
}
);
width = 1013;
}
);
unicode = FECC;
},
{
color = 6;
glyphname = "ain-ar.init";
layers = (
{
anchors = (
{
name = bottom;
position = "{267, 0}";
},
{
name = top;
position = "{307, 438}";
}
);
layerId = "3D0525B3-6B2A-4787-8D58-1F6DD6CCA7DC";
paths = (
{
closed = 1;
nodes = (
"483 0 LINE",
"483 102 LINE",
"389 102 LINE SMOOTH",
"242 102 OFFCURVE",
"186 167 OFFCURVE",
"186 236 CURVE SMOOTH",
"186 296 OFFCURVE",
"232 336 OFFCURVE",
"307 336 CURVE SMOOTH",
"358 336 OFFCURVE",
"405 325 OFFCURVE",
"454 295 CURVE",
"405 267 LINE",
"491 430 LINE",
"500 378 LINE",
"447 417 OFFCURVE",
"377 438 OFFCURVE",
"307 438 CURVE SMOOTH",
"175 438 OFFCURVE",
"82 354 OFFCURVE",
"82 236 CURVE SMOOTH",
"82 83 OFFCURVE",
"230 0 OFFCURVE",
"483 0 CURVE",
"483 102 LINE",
"0 102 LINE",
"0 0 LINE"
);
}
);
width = 543;
},
{
anchors = (
{
name = bottom;
position = "{379, 0}";
},
{
name = top;
position = "{505, 438}";
}
);
layerId = "950578AD-3C55-42C9-B412-F732192F54B4";
paths = (
{
closed = 1;
nodes = (
"721 0 LINE",
"721 102 LINE",
"587 102 LINE SMOOTH",
"400 102 OFFCURVE",
"344 167 OFFCURVE",
"344 236 CURVE SMOOTH",
"344 296 OFFCURVE",
"390 336 OFFCURVE",
"505 336 CURVE SMOOTH",
"575 336 OFFCURVE",
"643 325 OFFCURVE",
"692 301 CURVE",
"650 267 LINE",
"727 430 LINE",
"738 386 LINE",
"685 417 OFFCURVE",
"601 438 OFFCURVE",
"505 438 CURVE SMOOTH",
"333 438 OFFCURVE",
"240 354 OFFCURVE",
"240 236 CURVE SMOOTH",
"240 83 OFFCURVE",
"418 0 OFFCURVE",
"721 0 CURVE",
"721 102 LINE",
"0 102 LINE",
"0 0 LINE"
);
}
);
width = 863;
}
);
unicode = FECB;
},
{
color = 6;
glyphname = "fehDotless-ar";
lastChange = "2020-01-04 23:45:02 +0000";
layers = (
{
anchors = (
{
name = bottom;
position = "{523, 0}";
},
{
name = top;
position = "{813, 547}";
}
);
components = (
{
name = "fehDotless-ar.init";
transform = "{1, 0, 0, 1, 523, 0}";
}
);
layerId = "3D0525B3-6B2A-4787-8D58-1F6DD6CCA7DC";
paths = (
{
closed = 1;
nodes = (
"694 102 LINE",
"324 102 LINE SMOOTH",
"213 102 OFFCURVE",
"134 128 OFFCURVE",
"134 226 CURVE SMOOTH",
"134 265 OFFCURVE",
"142 307 OFFCURVE",
"174 377 CURVE",
"94 413 LINE",
"46 331 OFFCURVE",
"30 260 OFFCURVE",
"30 202 CURVE SMOOTH",
"30 76 OFFCURVE",
"128 0 OFFCURVE",
"292 0 CURVE SMOOTH",
"694 0 LINE"
);
}
);
width = 1083;
},
{
anchors = (
{
name = bottom;
position = "{640, 0}";
},
{
name = top;
position = "{1151, 547}";
}
);
components = (
{
name = "fehDotless-ar.init";
transform = "{1, 0, 0, 1, 640, 0}";
}
);
layerId = "950578AD-3C55-42C9-B412-F732192F54B4";
paths = (
{
closed = 1;
nodes = (
"751 102 LINE",
"381 102 LINE SMOOTH",
"270 102 OFFCURVE",
"191 128 OFFCURVE",
"191 226 CURVE SMOOTH",
"191 265 OFFCURVE",
"199 307 OFFCURVE",
"231 377 CURVE",
"151 413 LINE",
"103 331 OFFCURVE",
"87 260 OFFCURVE",
"87 202 CURVE SMOOTH",
"87 76 OFFCURVE",
"185 0 OFFCURVE",
"349 0 CURVE SMOOTH",
"751 0 LINE"
);
}
);
width = 1604;
}
);
rightMetricsKey = "fehDotless-ar.init";
unicode = 06A1;
},
{
color = 6;
glyphname = "fehDotless-ar.fina";
lastChange = "2020-01-05 00:33:37 +0000";
layers = (
{
anchors = (
{
name = bottom;
position = "{493, 0}";
},
{
name = top;
position = "{797, 439}";
}
);
components = (
{
name = "fehDotless-ar.medi";
transform = "{1, 0, 0, 1, 511, 0}";
}
);
layerId = "3D0525B3-6B2A-4787-8D58-1F6DD6CCA7DC";
paths = (
{
closed = 1;
nodes = (
"694 102 LINE",
"324 102 LINE SMOOTH",
"213 102 OFFCURVE",
"134 128 OFFCURVE",
"134 226 CURVE SMOOTH",
"134 265 OFFCURVE",
"142 307 OFFCURVE",
"174 377 CURVE",
"94 413 LINE",
"46 331 OFFCURVE",
"30 260 OFFCURVE",
"30 202 CURVE SMOOTH",
"30 76 OFFCURVE",
"128 0 OFFCURVE",
"292 0 CURVE SMOOTH",
"578 0 LINE"
);
}
);
width = 1072;
},
{
anchors = (
{
name = bottom;
position = "{650, 0}";
},
{
name = top;
position = "{1151, 439}";
}
);
components = (
{
name = "fehDotless-ar.medi";
transform = "{1, 0, 0, 1, 679, 0}";
}
);
layerId = "950578AD-3C55-42C9-B412-F732192F54B4";
paths = (
{
closed = 1;
nodes = (
"852 102 LINE",
"421 102 LINE SMOOTH",
"295 102 OFFCURVE",
"191 128 OFFCURVE",
"191 226 CURVE SMOOTH",
"191 265 OFFCURVE",
"199 307 OFFCURVE",
"231 377 CURVE",
"151 413 LINE",
"103 331 OFFCURVE",
"87 260 OFFCURVE",
"87 202 CURVE SMOOTH",
"87 76 OFFCURVE",
"207 0 OFFCURVE",
"389 0 CURVE SMOOTH",
"736 0 LINE"
);
}
);
width = 1618;
}
);
},
{
color = 6;
glyphname = "fehDotless-ar.medi";
lastChange = "2020-01-04 23:45:02 +0000";
layers = (
{
anchors = (
{
name = bottom;
position = "{283, 0}";
},
{
name = top;
position = "{296, 439}";
}
);
layerId = "3D0525B3-6B2A-4787-8D58-1F6DD6CCA7DC";
paths = (
{
closed = 1;
nodes = (
"416 102 LINE",
"382 68 LINE",
"316 86 OFFCURVE",
"194 130 OFFCURVE",
"194 237 CURVE SMOOTH",
"194 294 OFFCURVE",
"238 337 OFFCURVE",
"296 337 CURVE SMOOTH",
"352 337 OFFCURVE",
"397 293 OFFCURVE",
"397 237 CURVE SMOOTH",
"397 131 OFFCURVE",
"278 86 OFFCURVE",
"210 68 CURVE",
"171 102 LINE",
"0 102 LINE",
"0 0 LINE",
"80 0 LINE SMOOTH",
"340 0 OFFCURVE",
"501 90 OFFCURVE",
"501 241 CURVE SMOOTH",
"501 353 OFFCURVE",
"410 439 OFFCURVE",
"296 439 CURVE SMOOTH",
"181 439 OFFCURVE",
"90 354 OFFCURVE",
"90 241 CURVE SMOOTH",
"90 89 OFFCURVE",
"254 0 OFFCURVE",
"512 0 CURVE SMOOTH",
"571 0 LINE",
"571 102 LINE"
);
}
);
width = 571;
},
{
anchors = (
{
name = bottom;
position = "{458, 0}";
},
{
name = top;
position = "{471, 439}";
}
);
layerId = "950578AD-3C55-42C9-B412-F732192F54B4";
paths = (
{
closed = 1;
nodes = (
"651 102 LINE",
"584 71 LINE",
"493 86 OFFCURVE",
"310 134 OFFCURVE",
"310 237 CURVE SMOOTH",
"310 287 OFFCURVE",
"355 337 OFFCURVE",
"471 337 CURVE SMOOTH",
"587 337 OFFCURVE",
"632 287 OFFCURVE",
"632 237 CURVE SMOOTH",
"632 134 OFFCURVE",
"449 86 OFFCURVE",
"358 71 CURVE",
"291 102 LINE",
"0 102 LINE",
"0 0 LINE",
"215 0 LINE SMOOTH",
"575 0 OFFCURVE",
"736 90 OFFCURVE",
"736 238 CURVE SMOOTH",
"736 344 OFFCURVE",
"645 439 OFFCURVE",
"471 439 CURVE SMOOTH",
"297 439 OFFCURVE",
"206 344 OFFCURVE",
"206 238 CURVE SMOOTH",
"206 90 OFFCURVE",
"367 0 OFFCURVE",
"727 0 CURVE SMOOTH",
"939 0 LINE",
"939 102 LINE"
);
}
);
width = 939;
}
);
},
{
color = 6;
glyphname = "fehDotless-ar.init";
lastChange = "2020-01-04 23:45:02 +0000";
layers = (
{
anchors = (
{
name = bottom;
position = "{331, 0}";
},
{
name = top;
position = "{290, 547}";
}
);
layerId = "3D0525B3-6B2A-4787-8D58-1F6DD6CCA7DC";
paths = (
{
closed = 1;
nodes = (
"463 0 LINE",
"477 67 OFFCURVE",
"490 189 OFFCURVE",
"490 271 CURVE SMOOTH",
"490 430 OFFCURVE",
"410 547 OFFCURVE",
"290 547 CURVE SMOOTH",
"189 547 OFFCURVE",
"90 455 OFFCURVE",
"90 316 CURVE SMOOTH",
"90 231 OFFCURVE",
"148 160 OFFCURVE",
"283 160 CURVE SMOOTH",
"339 160 OFFCURVE",
"403 175 OFFCURVE",
"454 205 CURVE",
"403 281 LINE",
"366 268 OFFCURVE",
"331 262 OFFCURVE",
"296 262 CURVE SMOOTH",
"212 262 OFFCURVE",
"185 292 OFFCURVE",
"185 336 CURVE SMOOTH",
"185 387 OFFCURVE",
"226 445 OFFCURVE",
"284 445 CURVE SMOOTH",
"360 445 OFFCURVE",
"398 337 OFFCURVE",
"398 212 CURVE SMOOTH",
"398 182 OFFCURVE",
"396 152 OFFCURVE",
"392 102 CURVE",
"0 102 LINE",
"0 0 LINE"
);
}
);
width = 560;
},
{
anchors = (
{
name = bottom;
position = "{552, 0}";
},
{
name = top;
position = "{508, 547}";
}
);
layerId = "950578AD-3C55-42C9-B412-F732192F54B4";
paths = (
{
closed = 1;
nodes = (
"734 0 LINE",
"745 67 OFFCURVE",
"761 184 OFFCURVE",
"761 266 CURVE SMOOTH",
"761 424 OFFCURVE",
"670 547 OFFCURVE",
"508 547 CURVE SMOOTH",
"377 547 OFFCURVE",
"261 458 OFFCURVE",
"261 319 CURVE SMOOTH",
"261 234 OFFCURVE",
"319 160 OFFCURVE",
"504 160 CURVE SMOOTH",
"610 160 OFFCURVE",
"674 175 OFFCURVE",
"725 205 CURVE",
"674 281 LINE",
"637 268 OFFCURVE",
"583 262 OFFCURVE",
"517 262 CURVE SMOOTH",
"383 262 OFFCURVE",
"356 292 OFFCURVE",
"356 336 CURVE SMOOTH",
"356 389 OFFCURVE",
"411 445 OFFCURVE",
"505 445 CURVE SMOOTH",
"623 445 OFFCURVE",
"669 337 OFFCURVE",
"669 212 CURVE SMOOTH",
"669 182 OFFCURVE",
"668 152 OFFCURVE",
"663 102 CURVE",
"0 102 LINE",
"0 0 LINE"
);
}
);
width = 964;
}
);
rightMetricsKey = "behDotless-ar";
},
{
color = 6;
glyphname = "qafDotless-ar";
lastChange = "2020-01-04 23:45:02 +0000";
layers = (
{
anchors = (
{
name = bottom;
position = "{347, -230}";
},
{
name = top;
position = "{518, 408}";
}
);
layerId = "3D0525B3-6B2A-4787-8D58-1F6DD6CCA7DC";
paths = (
{
closed = 1;
nodes = (
"131 84 OFFCURVE",
"146 150 OFFCURVE",
"177 223 CURVE",
"210 169 LINE",
"33 228 LINE",
"89 250 LINE",
"45 151 OFFCURVE",
"30 68 OFFCURVE",
"30 23 CURVE SMOOTH",
"30 -146 OFFCURVE",
"155 -230 OFFCURVE",
"347 -230 CURVE SMOOTH",
"599 -230 OFFCURVE",
"718 -98 OFFCURVE",
"718 122 CURVE SMOOTH",
"718 291 OFFCURVE",
"638 408 OFFCURVE",
"518 408 CURVE SMOOTH",
"417 408 OFFCURVE",
"318 316 OFFCURVE",
"318 177 CURVE SMOOTH",
"318 92 OFFCURVE",
"376 21 OFFCURVE",
"511 21 CURVE SMOOTH",
"567 21 OFFCURVE",
"631 36 OFFCURVE",
"682 66 CURVE",
"631 142 LINE",
"594 129 OFFCURVE",
"559 123 OFFCURVE",
"524 123 CURVE SMOOTH",
"440 123 OFFCURVE",
"413 153 OFFCURVE",
"413 197 CURVE SMOOTH",
"413 248 OFFCURVE",
"454 306 OFFCURVE",
"512 306 CURVE SMOOTH",
"588 306 OFFCURVE",
"626 198 OFFCURVE",
"626 90 CURVE SMOOTH",
"626 -56 OFFCURVE",
"518 -128 OFFCURVE",
"358 -128 CURVE SMOOTH",
"210 -128 OFFCURVE",
"131 -72 OFFCURVE",
"131 38 CURVE SMOOTH"
);
}
);
width = 788;
},
{
anchors = (
{
name = bottom;
position = "{473, -230}";
},
{
name = top;
position = "{666, 408}";
}
);
layerId = "950578AD-3C55-42C9-B412-F732192F54B4";
paths = (
{
closed = 1;
nodes = (
"188 84 OFFCURVE",
"203 150 OFFCURVE",
"234 223 CURVE",
"267 169 LINE",
"90 228 LINE",
"146 250 LINE",
"99 151 OFFCURVE",
"87 68 OFFCURVE",
"87 23 CURVE SMOOTH",
"87 -146 OFFCURVE",
"239 -230 OFFCURVE",
"473 -230 CURVE SMOOTH",
"766 -230 OFFCURVE",
"917 -98 OFFCURVE",
"917 122 CURVE SMOOTH",
"917 291 OFFCURVE",
"812 408 OFFCURVE",
"666 408 CURVE SMOOTH",
"538 408 OFFCURVE",
"419 316 OFFCURVE",
"419 177 CURVE SMOOTH",
"419 92 OFFCURVE",
"477 21 OFFCURVE",
"659 21 CURVE SMOOTH",
"766 21 OFFCURVE",
"830 36 OFFCURVE",
"881 66 CURVE",
"830 142 LINE",
"793 129 OFFCURVE",
"758 123 OFFCURVE",
"672 123 CURVE SMOOTH",
"541 123 OFFCURVE",
"514 153 OFFCURVE",
"514 197 CURVE SMOOTH",
"514 248 OFFCURVE",
"575 306 OFFCURVE",
"660 306 CURVE SMOOTH",
"762 306 OFFCURVE",
"825 198 OFFCURVE",
"825 90 CURVE SMOOTH",
"825 -56 OFFCURVE",
"685 -128 OFFCURVE",
"484 -128 CURVE SMOOTH",
"294 -128 OFFCURVE",
"188 -72 OFFCURVE",
"188 38 CURVE SMOOTH"
);
}
);
width = 1120;
}
);
rightMetricsKey = "behDotless-ar";
unicode = 066F;
},
{
color = 6;
glyphname = "qafDotless-ar.fina";
lastChange = "2020-01-05 00:33:55 +0000";
layers = (
{
anchors = (
{
name = bottom;
position = "{347, -230}";
},
{
name = top;
position = "{518, 387}";
}
);
layerId = "3D0525B3-6B2A-4787-8D58-1F6DD6CCA7DC";
paths = (
{
closed = 1;
nodes = (
"626 -68 OFFCURVE",
"518 -128 OFFCURVE",
"358 -128 CURVE SMOOTH",
"210 -128 OFFCURVE",
"131 -72 OFFCURVE",
"131 38 CURVE SMOOTH",
"131 84 OFFCURVE",
"146 150 OFFCURVE",
"177 223 CURVE",
"210 169 LINE",
"33 228 LINE",
"89 250 LINE",
"45 151 OFFCURVE",
"30 68 OFFCURVE",
"30 23 CURVE SMOOTH",
"30 -146 OFFCURVE",
"155 -230 OFFCURVE",
"347 -230 CURVE SMOOTH",
"599 -230 OFFCURVE",
"718 -98 OFFCURVE",
"718 102 CURVE SMOOTH",
"718 270 OFFCURVE",
"638 387 OFFCURVE",
"518 387 CURVE SMOOTH",
"417 387 OFFCURVE",
"318 295 OFFCURVE",
"318 156 CURVE SMOOTH",
"318 71 OFFCURVE",
"376 0 OFFCURVE",
"531 0 CURVE SMOOTH",
"788 0 LINE",
"788 102 LINE",
"541 102 LINE SMOOTH",
"440 102 OFFCURVE",
"413 132 OFFCURVE",
"413 176 CURVE SMOOTH",
"413 227 OFFCURVE",
"454 285 OFFCURVE",
"512 285 CURVE SMOOTH",
"588 285 OFFCURVE",
"626 177 OFFCURVE",
"626 84 CURVE SMOOTH"
);
}
);
width = 788;
},
{
anchors = (
{
name = bottom;
position = "{477, -230}";
},
{
name = top;
position = "{669, 387}";
}
);
layerId = "950578AD-3C55-42C9-B412-F732192F54B4";
paths = (
{
closed = 1;
nodes = (
"831 -68 OFFCURVE",
"683 -128 OFFCURVE",
"488 -128 CURVE SMOOTH",
"317 -128 OFFCURVE",
"188 -72 OFFCURVE",
"188 38 CURVE SMOOTH",
"188 84 OFFCURVE",
"203 150 OFFCURVE",
"234 223 CURVE",
"267 169 LINE",
"90 228 LINE",
"146 250 LINE",
"99 156 OFFCURVE",
"87 68 OFFCURVE",
"87 23 CURVE SMOOTH",
"87 -146 OFFCURVE",
"262 -230 OFFCURVE",
"477 -230 CURVE SMOOTH",
"764 -230 OFFCURVE",
"926 -98 OFFCURVE",
"923 102 CURVE SMOOTH",
"920 270 OFFCURVE",
"818 387 OFFCURVE",
"669 387 CURVE SMOOTH",
"535 387 OFFCURVE",
"420 295 OFFCURVE",
"420 156 CURVE SMOOTH",
"420 71 OFFCURVE",
"478 0 OFFCURVE",
"633 0 CURVE SMOOTH",
"1129 0 LINE",
"1129 102 LINE",
"643 102 LINE SMOOTH",
"542 102 OFFCURVE",
"515 132 OFFCURVE",
"515 176 CURVE SMOOTH",
"515 227 OFFCURVE",
"572 285 OFFCURVE",
"663 285 CURVE SMOOTH",
"768 285 OFFCURVE",
"831 177 OFFCURVE",
"831 84 CURVE SMOOTH"
);
}
);
width = 1129;
}
);
},
{
color = 6;
glyphname = "kaf-ar";
layers = (
{
anchors = (
{
name = "#entry";
position = "{859, 0}";
}
);
components = (
{
name = "hamzaabove-ar";
transform = "{1.2, 0, 0, 1.2, 321, -461}";
}
);
layerId = "3D0525B3-6B2A-4787-8D58-1F6DD6CCA7DC";
paths = (
{
closed = 1;
nodes = (
"755 0 LINE",
"859 0 LINE",
"859 740 LINE",
"755 740 LINE"
);
},
{
closed = 1;
nodes = (
"324 102 LINE SMOOTH",
"213 102 OFFCURVE",
"134 128 OFFCURVE",
"134 226 CURVE SMOOTH",
"134 265 OFFCURVE",
"142 307 OFFCURVE",
"174 377 CURVE",
"94 413 LINE",
"46 331 OFFCURVE",
"30 260 OFFCURVE",
"30 202 CURVE SMOOTH",
"30 76 OFFCURVE",
"128 0 OFFCURVE",
"292 0 CURVE SMOOTH",
"782 0 LINE",
"788 102 LINE"
);
}
);
width = 939;
},
{
anchors = (
{
name = "#entry";
position = "{1213, 0}";
}
);
components = (
{
name = "hamzaabove-ar";
transform = "{1.2, 0, 0, 1.2, 467, -461}";
}
);
layerId = "950578AD-3C55-42C9-B412-F732192F54B4";
paths = (
{
closed = 1;
nodes = (
"1109 0 LINE",
"1213 0 LINE",
"1213 740 LINE",
"1109 740 LINE"
);
},
{
closed = 1;
nodes = (
"381 102 LINE SMOOTH",
"270 102 OFFCURVE",
"191 128 OFFCURVE",
"191 226 CURVE SMOOTH",
"191 265 OFFCURVE",
"199 307 OFFCURVE",
"231 377 CURVE",
"151 413 LINE",
"103 331 OFFCURVE",
"87 260 OFFCURVE",
"87 202 CURVE SMOOTH",
"87 76 OFFCURVE",
"185 0 OFFCURVE",
"349 0 CURVE SMOOTH",
"1136 0 LINE",
"1142 102 LINE"
);
}
);
width = 1425;
}
);
rightMetricsKey = "alef-ar";
unicode = 0643;
},
{
glyphname = "kaf-ar.medi";
layers = (
{
background = {
paths = (
{
closed = 0;
nodes = (
"100 358 LINE",
"229 301 OFFCURVE",
"300 221 OFFCURVE",
"310 102 CURVE",
"0 102 LINE",
"0 0 LINE",
"398 0 LINE",
"428 225 OFFCURVE",
"342 377 OFFCURVE",
"135 464 CURVE"
);
}
);
};
components = (
{
name = _connection.round;
transform = "{1, 0, 0, 1, 398, 0}";
},
{
name = "kaf-ar.init";
}
);
layerId = "3D0525B3-6B2A-4787-8D58-1F6DD6CCA7DC";
width = 518;
},
{
components = (
{
alignment = -1;
name = _connection.round;
transform = "{1, 0, 0, 1, 553, 0}";
},
{
name = "kaf-ar.init";
transform = "{1, 0, 0, 1, -95, 0}";
}
);
layerId = "950578AD-3C55-42C9-B412-F732192F54B4";
width = 745;
}
);
unicode = FEDC;
},
{
color = 6;
glyphname = "kaf-ar.medi.v2";
lastChange = "2020-01-04 23:45:02 +0000";
layers = (
{
anchors = (
{
name = bottom;
position = "{265, 0}";
},
{
name = top;
position = "{65, 498}";
}
);
background = {
paths = (
{
closed = 0;
nodes = (
"100 358 LINE",
"229 301 OFFCURVE",
"300 221 OFFCURVE",
"310 102 CURVE",
"0 102 LINE",
"0 0 LINE",
"398 0 LINE",
"428 225 OFFCURVE",
"342 377 OFFCURVE",
"135 464 CURVE"
);
}
);
};
layerId = "3D0525B3-6B2A-4787-8D58-1F6DD6CCA7DC";
paths = (
{
closed = 1;
nodes = (
"341 129 LINE",
"312 109 OFFCURVE",
"281 102 OFFCURVE",
"212 102 CURVE SMOOTH",
"0 102 LINE",
"0 0 LINE",
"180 0 LINE SMOOTH",
"327 0 OFFCURVE",
"356 15 OFFCURVE",
"404 60 CURVE"
);
},
{
closed = 1;
nodes = (
"307 116 LINE SMOOTH",
"399 12 OFFCURVE",
"438 0 OFFCURVE",
"519 0 CURVE SMOOTH",
"529 0 LINE",
"529 102 LINE",
"519 102 LINE SMOOTH",
"473 102 OFFCURVE",
"448 115 OFFCURVE",
"385 187 CURVE SMOOTH",
"144 462 LINE",
"123 413 LINE",
"430 668 LINE",
"364 746 LINE",
"65 498 LINE",
"65 388 LINE"
);
}
);
width = 529;
},
{
anchors = (
{
name = bottom;
position = "{485, 0}";
},
{
name = top;
position = "{188, 498}";
}
);
layerId = "950578AD-3C55-42C9-B412-F732192F54B4";
paths = (
{
closed = 1;
nodes = (
"594 129 LINE",
"565 109 OFFCURVE",
"534 102 OFFCURVE",
"465 102 CURVE SMOOTH",
"0 102 LINE",
"0 0 LINE",
"433 0 LINE SMOOTH",
"580 0 OFFCURVE",
"609 15 OFFCURVE",
"657 60 CURVE"
);
},
{
closed = 1;
nodes = (
"545 105 LINE SMOOTH",
"652 20 OFFCURVE",
"701 0 OFFCURVE",
"852 0 CURVE SMOOTH",
"970 0 LINE",
"970 102 LINE",
"852 102 LINE SMOOTH",
"736 102 OFFCURVE",
"701 115 OFFCURVE",
"626 175 CURVE SMOOTH",
"267 462 LINE",
"246 413 LINE",
"790 657 LINE",
"745 746 LINE",
"188 498 LINE",
"188 388 LINE"
);
}
);
width = 970;
}
);
},
{
color = 6;
glyphname = "kaf-ar.init";
layers = (
{
anchors = (
{
name = "#entry";
position = "{398, 0}";
},
{
name = bottom;
position = "{235, 0}";
},
{
name = top;
position = "{65, 498}";
}
);
layerId = "3D0525B3-6B2A-4787-8D58-1F6DD6CCA7DC";
paths = (
{
closed = 1;
nodes = (
"65 382 LINE",
"228 315 OFFCURVE",
"299 232 OFFCURVE",
"310 102 CURVE",
"0 102 LINE",
"0 0 LINE",
"398 0 LINE",
"428 225 OFFCURVE",
"342 377 OFFCURVE",
"135 464 CURVE",
"123 413 LINE",
"430 668 LINE",
"364 746 LINE",
"65 498 LINE"
);
}
);
width = 470;
},
{
anchors = (
{
name = "#entry";
position = "{648, 0}";
},
{
name = bottom;
position = "{410, 0}";
},
{
name = top;
position = "{194, 498}";
}
);
layerId = "950578AD-3C55-42C9-B412-F732192F54B4";
paths = (
{
closed = 1;
nodes = (
"194 382 LINE",
"442 329 OFFCURVE",
"549 232 OFFCURVE",
"560 102 CURVE",
"0 102 LINE",
"0 0 LINE",
"648 0 LINE",
"678 253 OFFCURVE",
"568 405 OFFCURVE",
"264 464 CURVE",
"252 413 LINE",
"665 661 LINE",
"610 746 LINE",
"194 498 LINE"
);
}
);
width = 819;
}
);
rightMetricsKey = "=dal-ar-20";
unicode = FEDB;
},
{
color = 6;
glyphname = "lam-ar";
layers = (
{
anchors = (
{
name = "#entry";
position = "{610, 0}";
},
{
name = bottom;
position = "{321, -230}";
},
{
name = top;
position = "{305, 438}";
}
);
layerId = "3D0525B3-6B2A-4787-8D58-1F6DD6CCA7DC";
paths = (
{
closed = 1;
nodes = (
"630 740 LINE",
"535 740 LINE",
"535 47 LINE SMOOTH",
"535 -70 OFFCURVE",
"439 -128 OFFCURVE",
"334 -128 CURVE SMOOTH",
"206 -128 OFFCURVE",
"131 -70 OFFCURVE",
"131 38 CURVE SMOOTH",
"131 84 OFFCURVE",
"146 150 OFFCURVE",
"177 223 CURVE",
"210 169 LINE",
"33 228 LINE",
"89 250 LINE",
"45 151 OFFCURVE",
"30 68 OFFCURVE",
"30 23 CURVE SMOOTH",
"30 -116 OFFCURVE",
"119 -230 OFFCURVE",
"321 -230 CURVE SMOOTH",
"509 -230 OFFCURVE",
"630 -121 OFFCURVE",
"630 74 CURVE SMOOTH"
);
}
);
width = 710;
},
{
anchors = (
{
name = "#entry";
position = "{827, 0}";
},
{
name = bottom;
position = "{452, -230}";
},
{
name = top;
position = "{463, 438}";
}
);
layerId = "950578AD-3C55-42C9-B412-F732192F54B4";
paths = (
{
closed = 1;
nodes = (
"879 740 LINE",
"784 740 LINE",
"784 97 LINE SMOOTH",
"784 -53 OFFCURVE",
"648 -128 OFFCURVE",
"463 -128 CURVE SMOOTH",
"310 -128 OFFCURVE",
"188 -70 OFFCURVE",
"188 46 CURVE SMOOTH",
"188 95 OFFCURVE",
"202 139 OFFCURVE",
"234 223 CURVE",
"267 169 LINE",
"90 228 LINE",
"146 250 LINE",
"102 151 OFFCURVE",
"87 82 OFFCURVE",
"87 23 CURVE SMOOTH",
"87 -116 OFFCURVE",
"223 -230 OFFCURVE",
"450 -230 CURVE SMOOTH",
"732 -230 OFFCURVE",
"879 -103 OFFCURVE",
"879 124 CURVE SMOOTH"
);
}
);
width = 1091;
}
);
rightMetricsKey = "alef-ar";
unicode = 0644;
},
{
color = 6;
glyphname = "lam-ar.init";
layers = (
{
anchors = (
{
name = "#entry";
position = "{229, 0}";
}
);
layerId = "3D0525B3-6B2A-4787-8D58-1F6DD6CCA7DC";
paths = (
{
closed = 1;
nodes = (
"0 102 LINE",
"0 0 LINE",
"229 0 LINE",
"229 740 LINE",
"125 740 LINE",
"125 84 LINE",
"152 102 LINE"
);
}
);
width = 309;
},
{
anchors = (
{
name = "#entry";
position = "{379, 0}";
}
);
layerId = "950578AD-3C55-42C9-B412-F732192F54B4";
paths = (
{
closed = 1;
nodes = (
"0 102 LINE",
"0 0 LINE",
"379 0 LINE",
"379 740 LINE",
"275 740 LINE",
"275 84 LINE",
"302 102 LINE"
);
}
);
width = 591;
}
);
rightMetricsKey = "alef-ar";
unicode = FEDF;
},
{
color = 6;
glyphname = "meem-ar";
layers = (
{
anchors = (
{
name = bottom;
position = "{270, 0}";
},
{
name = top;
position = "{258, 386}";
}
);
layerId = "3D0525B3-6B2A-4787-8D58-1F6DD6CCA7DC";
paths = (
{
closed = 1;
nodes = (
"477 95 LINE",
"459 284 OFFCURVE",
"374 386 OFFCURVE",
"258 386 CURVE SMOOTH",
"167 386 OFFCURVE",
"94 307 OFFCURVE",
"92 206 CURVE",
"35 237 LINE",
"225 197 LINE",
"177 189 LINE",
"183 240 OFFCURVE",
"210 284 OFFCURVE",
"264 284 CURVE SMOOTH",
"325 284 OFFCURVE",
"374 199 OFFCURVE",
"384 55 CURVE",
"438 0 LINE"
);
},
{
closed = 1;
nodes = (
"30 -89 OFFCURVE",
"79 -234 OFFCURVE",
"73 -466 CURVE",
"41 -446 LINE",
"167 -456 LINE",
"149 -490 LINE",
"191 -294 OFFCURVE",
"133 -127 OFFCURVE",
"131 32 CURVE",
"101 -3 LINE",
"137 19 OFFCURVE",
"191 26 OFFCURVE",
"247 26 CURVE SMOOTH",
"333 26 OFFCURVE",
"394 15 OFFCURVE",
"438 0 CURVE",
"440 102 LINE",
"406 111 OFFCURVE",
"361 123 OFFCURVE",
"285 123 CURVE SMOOTH",
"199 123 OFFCURVE",
"114 109 OFFCURVE",
"72 62 CURVE SMOOTH",
"41 28 OFFCURVE",
"30 -10 OFFCURVE",
"30 -56 CURVE SMOOTH"
);
}
);
width = 547;
},
{
anchors = (
{
name = bottom;
position = "{370, 0}";
},
{
name = top;
position = "{358, 386}";
}
);
layerId = "950578AD-3C55-42C9-B412-F732192F54B4";
paths = (
{
closed = 1;
nodes = (
"632 95 LINE",
"611 280 OFFCURVE",
"509 386 OFFCURVE",
"358 386 CURVE SMOOTH",
"244 386 OFFCURVE",
"169 307 OFFCURVE",
"149 206 CURVE",
"120 260 LINE",
"282 197 LINE",
"234 189 LINE",
"248 240 OFFCURVE",
"287 284 OFFCURVE",
"354 284 CURVE SMOOTH",
"450 284 OFFCURVE",
"529 199 OFFCURVE",
"539 55 CURVE",
"593 0 LINE"
);
},
{
closed = 1;
nodes = (
"87 -89 OFFCURVE",
"136 -234 OFFCURVE",
"130 -466 CURVE",
"98 -446 LINE",
"224 -456 LINE",
"209 -490 LINE",
"251 -294 OFFCURVE",
"193 -127 OFFCURVE",
"191 32 CURVE",
"158 -3 LINE",
"194 15 OFFCURVE",
"280 26 OFFCURVE",
"343 26 CURVE SMOOTH",
"429 26 OFFCURVE",
"549 12 OFFCURVE",
"593 0 CURVE",
"595 102 LINE",
"558 111 OFFCURVE",
"454 123 OFFCURVE",
"364 123 CURVE SMOOTH",
"256 123 OFFCURVE",
"171 109 OFFCURVE",
"129 62 CURVE SMOOTH",
"98 28 OFFCURVE",
"87 -10 OFFCURVE",
"87 -56 CURVE SMOOTH"
);
}
);
width = 835;
}
);
rightMetricsKey = "meem-ar.init";
unicode = 0645;
},
